if (_typeface_js && _typeface_js.loadFace) _typeface_js.loadFace({"glyphs":{"Ẩ":{"x_min":14.921875,"x_max":880.328125,"ha":896,"o":"m 880 0 l 754 0 l 651 272 l 238 272 l 141 0 l 14 0 l 387 972 l 505 972 l 880 0 m 613 375 l 461 789 q 446 854 453 809 l 443 854 q 427 789 436 813 l 276 375 l 613 375 m 579 1404 q 633 1407 603 1407 q 731 1379 694 1407 q 769 1302 769 1351 q 743 1233 769 1261 q 679 1200 718 1204 l 679 1166 l 605 1166 l 605 1244 q 682 1295 682 1244 q 618 1338 682 1338 q 579 1333 606 1338 l 579 1404 m 632 1063 l 551 1063 l 439 1163 l 327 1063 l 251 1063 l 396 1232 l 487 1232 l 632 1063 "},"Ҿ":{"x_min":27.8125,"x_max":1101.4375,"ha":1160,"o":"m 1101 433 l 343 433 q 450 180 354 274 q 694 86 546 86 q 1005 197 874 86 l 1005 82 q 713 -14 883 -8 q 683 -112 683 -69 q 729 -157 683 -157 q 796 -140 762 -157 l 796 -214 q 709 -229 757 -229 q 627 -197 658 -229 q 596 -112 596 -166 q 630 -14 596 -69 q 342 121 451 0 q 223 433 233 242 l 204 433 q 73 480 120 433 q 27 612 27 527 q 54 726 27 676 l 151 726 q 123 622 123 678 q 212 535 123 535 l 225 535 q 369 865 244 741 q 682 988 493 988 q 1101 433 1101 988 m 979 535 q 895 791 973 696 q 680 885 817 885 q 449 789 539 885 q 344 535 359 693 l 979 535 "},"ǻ":{"x_min":61.046875,"x_max":609.71875,"ha":707,"o":"m 609 0 l 498 0 l 498 108 l 495 108 q 282 -16 423 -16 q 119 38 178 -16 q 61 184 61 93 q 290 411 61 379 l 498 440 q 355 617 498 617 q 128 531 229 617 l 128 645 q 364 710 231 710 q 609 451 609 710 l 609 0 m 498 351 l 330 328 q 214 289 253 317 q 174 192 174 262 q 211 109 174 141 q 307 77 247 77 q 444 135 390 77 q 498 282 498 193 l 498 351 m 350 755 q 252 791 291 755 q 213 884 213 826 q 253 982 213 945 q 355 1018 293 1018 q 454 982 415 1018 q 493 888 493 945 q 451 793 493 831 q 350 755 410 755 m 350 963 q 296 941 318 963 q 274 887 274 919 q 350 811 274 811 q 406 832 384 811 q 429 887 429 854 q 406 942 429 920 q 350 963 384 963 m 537 1284 l 359 1062 l 273 1062 l 424 1284 l 537 1284 "},"ʉ":{"x_min":22.375,"x_max":805.734375,"ha":832,"o":"m 805 322 l 702 322 l 702 0 l 591 0 l 591 109 l 588 109 q 375 -16 519 -16 q 124 279 124 -16 l 124 322 l 22 322 l 22 416 l 124 416 l 124 694 l 236 694 l 236 416 l 591 416 l 591 694 l 702 694 l 702 416 l 805 416 l 805 322 m 591 294 l 591 322 l 236 322 l 236 297 q 405 77 236 77 q 539 137 486 77 q 591 294 591 196 "},"ȋ":{"x_min":-17.828125,"x_max":353.828125,"ha":336,"o":"m 223 0 l 112 0 l 112 694 l 223 694 l 223 0 m 353 826 l 284 826 q 245 903 278 874 q 166 931 212 931 q 49 826 58 931 l -17 826 q 35 950 -15 903 q 165 996 85 996 q 294 950 241 996 q 353 826 347 903 "},"Ổ":{"x_min":63.75,"x_max":983.421875,"ha":1047,"o":"m 519 -16 q 188 120 312 -16 q 63 474 63 256 q 190 849 63 709 q 535 988 317 988 q 860 853 737 988 q 983 498 983 717 q 857 122 983 260 q 519 -16 731 -16 m 527 885 q 278 775 374 885 q 183 484 183 664 q 276 195 183 305 q 519 86 369 86 q 771 190 679 86 q 864 482 864 295 q 774 780 864 675 q 527 885 685 885 m 656 1403 q 710 1406 680 1406 q 808 1378 771 1406 q 846 1301 846 1350 q 820 1232 846 1260 q 756 1199 795 1203 l 756 1165 l 682 1165 l 682 1243 q 759 1294 759 1243 q 695 1337 759 1337 q 656 1332 683 1337 l 656 1403 m 709 1062 l 628 1062 l 516 1162 l 404 1062 l 328 1062 l 473 1231 l 564 1231 l 709 1062 "},"ṑ":{"x_min":65.109375,"x_max":748.765625,"ha":814,"o":"m 402 -16 q 157 81 248 -16 q 65 339 65 178 q 160 612 65 514 q 419 710 256 710 q 661 615 574 710 q 748 349 748 519 q 654 83 748 183 q 402 -16 560 -16 m 411 617 q 241 544 303 617 q 179 343 179 471 q 242 148 179 219 q 411 77 305 77 q 576 147 518 77 q 634 345 634 217 q 576 546 634 476 q 411 617 518 617 m 481 952 l 395 952 l 245 1119 l 359 1119 l 481 952 m 579 826 l 235 826 l 235 900 l 579 900 l 579 826 "},"ѩ":{"x_min":112.578125,"x_max":951.546875,"ha":960,"o":"m 951 0 l 832 0 l 729 268 l 663 188 l 663 0 l 562 0 l 562 188 l 494 269 l 389 0 l 275 0 l 406 318 l 223 318 l 223 0 l 112 0 l 112 694 l 223 694 l 223 406 l 444 406 l 565 694 l 675 694 l 951 0 m 691 364 l 638 507 q 615 604 620 556 l 612 604 q 590 510 604 546 l 534 370 l 618 275 l 691 364 "},"`":{"x_min":315.375,"x_max":498.5,"ha":814,"o":"m 498 796 l 434 796 l 315 1041 l 429 1041 l 498 796 "},"ǆ":{"x_min":65.109375,"x_max":1392.84375,"ha":1424,"o":"m 705 0 l 594 0 l 594 118 l 591 118 q 352 -16 514 -16 q 143 76 221 -16 q 65 330 65 170 q 151 607 65 503 q 383 710 238 710 q 591 598 526 710 l 594 598 l 594 1028 l 705 1028 l 705 0 m 594 314 l 594 416 q 538 558 594 500 q 397 617 482 617 q 237 542 295 617 q 179 336 179 467 q 235 146 179 216 q 385 77 290 77 q 536 144 478 77 q 594 314 594 211 m 1392 662 l 981 94 l 1388 94 l 1388 0 l 818 0 l 818 34 l 1229 599 l 857 599 l 857 694 l 1392 694 l 1392 662 m 1326 1049 l 1181 826 l 1091 826 l 945 1049 l 1023 1049 l 1134 894 l 1245 1049 l 1326 1049 "},"Ƹ":{"x_min":63.75,"x_max":840.3125,"ha":848,"o":"m 840 -254 q 524 -326 695 -326 q 192 -219 322 -326 q 63 63 63 -111 q 177 331 63 223 q 470 455 290 440 l 124 921 l 124 972 l 820 972 l 820 869 l 293 869 l 632 411 l 632 359 l 569 359 q 286 281 390 359 q 183 67 183 204 q 281 -142 183 -61 q 537 -223 379 -223 q 840 -139 699 -223 l 840 -254 "},"ɤ":{"x_min":6.78125,"x_max":628.03125,"ha":635,"o":"m 628 585 q 545 617 580 617 q 381 487 466 617 q 482 188 482 325 q 437 40 482 96 q 314 -16 392 -16 q 196 39 238 -16 q 153 185 153 94 q 252 487 153 328 q 86 617 164 617 q 6 587 43 617 l 6 689 q 100 710 50 710 q 318 571 207 710 q 537 710 430 710 q 628 689 585 710 l 628 585 m 318 406 q 258 193 258 296 q 318 77 258 77 q 377 193 377 77 q 318 406 377 293 "},"Ḻ":{"x_min":127.5,"x_max":632.109375,"ha":654,"o":"m 632 0 l 127 0 l 127 972 l 241 972 l 241 103 l 632 103 l 632 0 m 558 -154 l 214 -154 l 214 -81 l 558 -81 l 558 -154 "},"ƃ":{"x_min":112.578125,"x_max":751.46875,"ha":817,"o":"m 225 100 l 222 100 l 222 0 l 112 0 l 112 1028 l 658 1028 l 658 933 l 222 933 l 222 572 l 225 572 q 465 710 307 710 q 675 618 598 710 q 751 367 751 525 q 666 88 751 193 q 433 -16 581 -16 q 225 100 298 -16 m 222 380 l 222 283 q 278 137 222 197 q 420 77 333 77 q 579 153 520 77 q 637 363 637 229 q 583 549 637 482 q 437 617 530 617 q 281 549 340 617 q 222 380 222 482 "},"ἂ":{"x_min":67.828125,"x_max":824.71875,"ha":859,"o":"m 824 694 l 687 352 q 792 0 698 309 l 677 0 l 625 211 l 622 211 q 504 35 568 86 q 348 -16 441 -16 q 145 77 223 -16 q 67 326 67 171 q 154 605 67 500 q 388 710 242 710 q 641 493 569 710 l 644 493 l 708 694 l 824 694 m 592 352 q 508 557 556 495 q 389 618 460 618 q 239 539 297 618 q 181 333 181 460 q 232 150 181 219 q 362 81 283 81 q 580 321 493 81 l 592 352 m 252 793 l 231 834 q 310 915 294 862 q 255 933 277 915 q 233 982 233 952 q 251 1027 233 1009 q 299 1045 269 1045 q 380 963 380 1045 q 252 793 380 849 m 598 796 l 534 796 l 416 1041 l 528 1041 l 598 796 "},"ᾉ":{"x_min":14.921875,"x_max":880.328125,"ha":896,"o":"m 880 0 l 754 0 l 651 272 l 238 272 l 141 0 l 14 0 l 387 972 l 505 972 l 880 0 m 613 375 l 461 789 q 446 854 453 809 l 443 854 q 427 789 436 813 l 276 375 l 613 375 m 187 731 l 159 688 q 65 772 103 716 q 26 889 26 829 q 50 952 26 927 q 109 976 73 976 q 159 956 139 976 q 178 907 178 937 q 105 840 178 844 q 187 731 116 769 m 625 -249 q 526 -303 584 -303 q 442 -275 475 -303 q 410 -200 410 -247 l 410 -80 l 494 -80 l 494 -206 q 540 -252 494 -252 q 595 -223 568 -252 l 625 -249 "},"ṟ":{"x_min":112.578125,"x_max":482.59375,"ha":483,"o":"m 474 581 q 390 604 445 604 q 271 537 319 604 q 223 354 223 470 l 223 0 l 112 0 l 112 694 l 223 694 l 223 551 l 226 551 q 299 665 250 624 q 408 706 347 706 q 474 697 451 706 l 474 581 m 482 -153 l 138 -153 l 138 -80 l 482 -80 l 482 -153 "},"ў":{"x_min":9.5,"x_max":665.34375,"ha":672,"o":"m 665 694 l 345 -111 q 105 -326 260 -326 q 33 -318 62 -326 l 33 -218 q 99 -230 69 -230 q 225 -130 183 -230 l 280 1 l 9 694 l 132 694 l 320 160 q 335 107 324 149 l 339 107 q 352 158 342 123 l 550 694 l 665 694 m 573 996 q 502 873 567 921 q 343 826 438 826 q 184 873 246 826 q 118 996 121 921 l 214 996 q 344 891 222 891 q 434 920 398 891 q 476 996 470 949 l 573 996 "},"ţ":{"x_min":29.15625,"x_max":451.703125,"ha":471,"o":"m 221 -291 l 221 -230 q 268 -234 245 -234 q 363 -173 363 -234 q 276 -120 363 -120 q 248 -123 268 -120 l 248 -2 q 148 188 148 35 l 148 599 l 29 599 l 29 694 l 148 694 l 148 864 q 204 882 151 865 l 259 900 l 259 694 l 434 694 l 434 599 l 259 599 l 259 208 q 283 108 259 138 q 362 78 306 78 q 434 101 402 78 l 434 6 q 330 -14 393 -16 l 322 -14 l 322 -70 q 416 -98 381 -70 q 451 -173 451 -126 q 265 -293 451 -293 q 221 -291 239 -293 "},"ȡ":{"x_min":65.109375,"x_max":1060.734375,"ha":895,"o":"m 732 -257 q 720 -326 722 -300 l 622 -326 q 653 -189 627 -257 q 594 13 594 -108 l 594 118 l 591 118 q 352 -16 514 -16 q 143 76 221 -16 q 65 330 65 170 q 151 607 65 503 q 383 710 238 710 q 591 598 526 710 l 594 598 l 594 1028 l 705 1028 l 705 13 q 718 -83 705 -39 q 890 0 788 0 q 1013 -39 965 0 q 1060 -141 1060 -79 q 1005 -248 1060 -206 q 864 -291 950 -291 q 732 -257 788 -291 m 594 314 l 594 416 q 538 558 594 500 q 397 617 482 617 q 237 542 295 617 q 179 336 179 467 q 235 146 179 216 q 385 77 290 77 q 536 144 478 77 q 594 314 594 211 m 769 -166 q 864 -198 809 -198 q 963 -141 963 -198 q 887 -90 963 -90 q 769 -166 815 -90 "},"í":{"x_min":67.5625,"x_max":331.390625,"ha":336,"o":"m 223 0 l 112 0 l 112 694 l 223 694 l 223 0 m 331 1048 l 153 826 l 67 826 l 218 1048 l 331 1048 "},"◦":{"x_min":75.96875,"x_max":416.421875,"ha":492,"o":"m 416 459 q 366 338 416 387 q 246 288 317 288 q 126 339 176 288 q 75 459 75 389 q 125 579 75 529 q 246 629 174 629 q 366 579 316 629 q 416 459 416 529 m 127 459 q 162 375 127 409 q 246 340 197 340 q 330 375 297 340 q 364 459 364 409 q 330 543 364 509 q 245 577 295 577 q 162 542 196 577 q 127 459 127 507 "},"ң":{"x_min":112.578125,"x_max":792.171875,"ha":834,"o":"m 792 -183 l 695 -183 l 695 0 l 577 0 l 577 315 l 223 315 l 223 0 l 112 0 l 112 694 l 223 694 l 223 409 l 577 409 l 577 694 l 689 694 l 689 94 l 792 94 l 792 -183 "},"ņ":{"x_min":112.578125,"x_max":689.078125,"ha":786,"o":"m 689 0 l 577 0 l 577 396 q 416 617 577 617 q 278 554 333 617 q 223 396 223 491 l 223 0 l 112 0 l 112 694 l 223 694 l 223 579 l 226 579 q 454 710 305 710 q 628 637 568 710 q 689 424 689 563 l 689 0 m 469 -80 l 356 -257 l 273 -257 l 352 -80 l 469 -80 "},"ǜ":{"x_min":97.671875,"x_max":674.15625,"ha":786,"o":"m 674 0 l 562 0 l 562 109 l 560 109 q 345 -16 491 -16 q 97 279 97 -16 l 97 694 l 208 694 l 208 297 q 376 77 208 77 q 510 137 457 77 q 562 294 562 197 l 562 694 l 674 694 l 674 0 m 445 972 l 358 972 l 180 1195 l 293 1195 l 445 972 m 521 826 q 473 845 493 826 q 454 893 454 865 q 474 940 454 921 q 522 959 494 959 q 570 940 550 959 q 589 893 589 921 q 569 845 589 864 q 521 826 548 826 m 260 826 q 212 845 232 826 q 193 893 193 865 q 213 940 193 921 q 262 959 233 959 q 307 940 288 959 q 327 893 327 921 q 307 845 327 864 q 260 826 287 826 "},"ỳ":{"x_min":9.5,"x_max":665.34375,"ha":672,"o":"m 665 694 l 345 -111 q 105 -326 260 -326 q 33 -318 62 -326 l 33 -218 q 99 -230 69 -230 q 225 -130 183 -230 l 280 1 l 9 694 l 132 694 l 320 160 q 335 107 324 149 l 339 107 q 352 158 342 123 l 550 694 l 665 694 m 426 826 l 340 826 l 162 1048 l 276 1048 l 426 826 "},"Ҫ":{"x_min":63.75,"x_max":789.453125,"ha":860,"o":"m 789 40 q 594 -12 712 0 q 629 -112 629 -69 q 598 -197 629 -165 q 516 -229 568 -229 q 430 -214 468 -229 l 430 -140 q 497 -157 463 -157 q 543 -112 543 -157 q 512 -16 543 -70 q 185 119 307 -13 q 63 467 63 252 q 204 845 63 701 q 560 988 344 988 q 789 948 698 988 l 789 827 q 558 885 685 885 q 287 773 391 885 q 183 474 183 661 q 280 191 183 297 q 535 86 377 86 q 789 151 682 86 l 789 40 "},"қ":{"x_min":112.578125,"x_max":694.5,"ha":737,"o":"m 694 -183 l 599 -183 l 599 0 l 531 0 l 226 332 l 223 332 l 223 0 l 112 0 l 112 694 l 223 694 l 223 377 l 226 377 l 518 694 l 665 694 l 341 358 l 601 87 l 694 87 l 694 -183 "},"Ύ":{"x_min":-52.28125,"x_max":916.609375,"ha":926,"o":"m 916 972 l 595 359 l 595 0 l 481 0 l 481 356 l 169 972 l 298 972 l 516 533 q 540 473 520 524 l 542 473 q 568 533 549 496 l 795 972 l 916 972 m 130 972 l 11 726 l -52 726 l 16 972 l 130 972 "},"Ḟ":{"x_min":127.5,"x_max":621.25,"ha":678,"o":"m 621 869 l 241 869 l 241 533 l 592 533 l 592 430 l 241 430 l 241 0 l 127 0 l 127 972 l 621 972 l 621 869 m 364 1063 q 317 1082 337 1063 q 297 1130 297 1101 q 316 1176 297 1157 q 364 1195 336 1195 q 411 1176 392 1195 q 430 1130 430 1158 q 411 1082 430 1102 q 364 1063 392 1063 "},"ѕ":{"x_min":70.53125,"x_max":497.140625,"ha":553,"o":"m 70 25 l 70 144 q 250 77 151 77 q 383 174 383 77 q 354 242 383 215 q 240 305 324 268 q 106 395 140 349 q 71 510 71 442 q 140 653 71 596 q 316 710 208 710 q 465 679 399 710 l 465 567 q 307 617 396 617 q 219 590 252 617 q 185 519 185 562 q 209 451 185 477 q 318 390 233 425 q 458 299 420 347 q 497 185 497 252 q 428 40 497 96 q 242 -16 360 -16 q 70 25 143 -16 "},"Ш":{"x_min":127.5,"x_max":1188.921875,"ha":1318,"o":"m 1188 0 l 127 0 l 127 972 l 241 972 l 241 103 l 601 103 l 601 972 l 714 972 l 714 103 l 1074 103 l 1074 972 l 1188 972 l 1188 0 "},"Ḏ":{"x_min":127.5,"x_max":910.171875,"ha":974,"o":"m 127 0 l 127 972 l 396 972 q 910 498 910 972 q 767 136 910 273 q 385 0 624 0 l 127 0 m 241 869 l 241 103 l 386 103 q 684 205 577 103 q 790 495 790 307 q 393 869 790 869 l 241 869 m 607 -152 l 263 -152 l 263 -79 l 607 -79 l 607 -152 "},"Ψ":{"x_min":92.234375,"x_max":986.140625,"ha":1078,"o":"m 591 972 l 591 364 l 630 364 q 875 613 875 364 l 875 972 l 986 972 l 986 613 q 889 361 986 459 q 630 264 792 264 l 591 264 l 591 0 l 486 0 l 486 264 l 447 264 q 188 361 284 264 q 92 613 92 459 l 92 972 l 202 972 l 202 613 q 447 364 202 364 l 486 364 l 486 972 l 591 972 "},"Ἴ":{"x_min":-45.609375,"x_max":527.453125,"ha":657,"o":"m 527 0 l 413 0 l 413 972 l 527 972 l 527 0 m -25 722 l -45 763 q 33 844 17 791 q -22 862 0 844 q -44 911 -44 881 q -25 956 -44 938 q 22 974 -7 974 q 102 892 102 974 q -25 722 102 778 m 331 970 l 212 725 l 148 725 l 217 970 l 331 970 "},"ŭ":{"x_min":97.671875,"x_max":674.15625,"ha":786,"o":"m 674 0 l 562 0 l 562 109 l 560 109 q 345 -16 491 -16 q 97 279 97 -16 l 97 694 l 208 694 l 208 297 q 376 77 208 77 q 510 137 457 77 q 562 294 562 197 l 562 694 l 674 694 l 674 0 m 569 996 q 509 873 562 920 q 380 826 456 826 q 250 872 300 826 q 197 996 200 919 l 264 996 q 381 891 273 891 q 460 920 427 891 q 500 996 493 948 l 569 996 "},"―":{"x_min":0,"x_max":576.484375,"ha":576,"o":"m 576 946 l 0 946 l 0 1028 l 576 1028 l 576 946 "},"{":{"x_min":62.390625,"x_max":376.40625,"ha":419,"o":"m 376 -221 q 168 -10 168 -218 l 168 192 q 62 336 168 329 l 62 415 q 168 561 168 421 l 168 759 q 376 972 168 969 l 376 885 q 268 751 268 883 l 268 552 q 166 377 268 410 l 166 375 q 268 201 268 344 l 268 5 q 292 -102 268 -69 q 376 -135 316 -134 l 376 -221 "},"Ӄ":{"x_min":128.859375,"x_max":746.046875,"ha":806,"o":"m 746 972 l 364 554 q 631 412 534 531 q 727 118 727 293 q 626 -166 727 -54 q 347 -278 525 -278 q 128 -226 229 -278 l 128 -108 q 344 -181 240 -181 q 541 -102 472 -181 q 611 113 611 -23 q 523 358 611 259 q 288 458 436 458 l 241 458 l 241 0 l 128 0 l 128 972 l 241 972 l 241 560 l 604 972 l 746 972 "},"ɭ":{"x_min":112.578125,"x_max":408.296875,"ha":335,"o":"m 408 -307 q 319 -326 364 -326 q 166 -267 219 -326 q 112 -100 112 -208 l 112 1028 l 223 1028 l 223 -96 q 332 -231 223 -231 q 408 -214 373 -231 l 408 -307 "},"Ĳ":{"x_min":127.5,"x_max":746.40625,"ha":865,"o":"m 241 0 l 127 0 l 127 972 l 241 972 l 241 0 m 746 348 q 673 79 746 175 q 477 -16 599 -16 q 383 0 420 -16 l 383 112 q 478 86 420 86 q 632 347 632 86 l 632 972 l 746 972 l 746 348 "},"ǭ":{"x_min":65.109375,"x_max":748.765625,"ha":814,"o":"m 457 -13 q 369 -151 369 -100 q 415 -198 369 -198 q 453 -189 435 -198 l 453 -262 q 397 -271 432 -271 q 314 -244 345 -271 q 283 -169 283 -217 q 372 -14 283 -94 q 148 90 231 -5 q 65 339 65 187 q 160 612 65 514 q 419 710 256 710 q 661 615 574 710 q 748 349 748 519 q 670 101 748 199 q 457 -13 592 3 m 411 617 q 241 544 303 617 q 179 343 179 471 q 242 148 179 219 q 411 77 305 77 q 576 147 518 77 q 634 345 634 217 q 576 546 634 476 q 411 617 518 617 m 585 826 l 241 826 l 241 900 l 585 900 l 585 826 "},"ἣ":{"x_min":88.171875,"x_max":689.078125,"ha":799,"o":"m 689 -274 l 576 -274 l 576 387 q 416 609 576 609 q 277 549 332 609 q 223 398 223 489 l 223 0 l 112 0 l 112 470 q 88 694 112 629 l 202 694 q 221 577 221 644 l 223 577 q 454 710 299 710 q 689 427 689 710 l 689 -274 m 330 834 l 308 793 q 182 963 182 847 q 262 1045 182 1045 q 310 1027 292 1045 q 329 982 329 1009 q 307 933 329 952 q 251 915 285 915 q 330 834 268 862 m 557 796 l 494 796 l 375 1041 l 489 1041 l 557 796 "},"ᾨ":{"x_min":-45.734375,"x_max":1082.75,"ha":1148,"o":"m 1082 0 l 730 0 l 730 99 q 964 529 964 272 q 870 791 964 695 q 627 888 776 888 q 381 792 477 888 q 285 529 285 695 q 520 99 285 273 l 520 0 l 167 0 l 167 100 l 403 99 q 167 532 167 259 q 293 866 167 744 q 623 988 418 988 q 957 867 833 988 q 1082 533 1082 746 q 847 99 1082 260 l 1082 100 l 1082 0 m -19 688 l -45 731 q 35 840 24 769 q -17 860 3 841 q -38 907 -38 879 q -19 956 -38 937 q 30 976 0 976 q 89 951 66 976 q 113 889 113 926 q 74 773 113 829 q -19 688 35 716 m 795 -249 q 696 -303 754 -303 q 612 -275 645 -303 q 580 -200 580 -247 l 580 -80 l 664 -80 l 664 -206 q 710 -252 664 -252 q 765 -223 738 -252 l 795 -249 "},"ẚ":{"x_min":61.046875,"x_max":609.71875,"ha":707,"o":"m 609 0 l 498 0 l 498 108 l 495 108 q 282 -16 423 -16 q 119 38 178 -16 q 61 184 61 93 q 290 411 61 379 l 498 440 q 355 617 498 617 q 128 531 229 617 l 128 645 q 364 710 231 710 q 609 451 609 710 l 609 0 m 498 351 l 330 328 q 214 289 253 317 q 174 192 174 262 q 211 109 174 141 q 307 77 247 77 q 444 135 390 77 q 498 282 498 193 l 498 351 m 306 815 l 306 877 q 369 939 369 877 q 306 998 369 998 l 306 1062 q 393 1027 359 1062 q 428 939 428 992 q 393 850 428 886 q 306 815 359 815 "},"ԋ":{"x_min":112.578125,"x_max":1102.796875,"ha":1179,"o":"m 1102 262 q 1033 58 1102 132 q 841 -16 964 -16 q 649 58 721 -16 q 577 257 577 132 l 577 315 l 223 315 l 223 0 l 112 0 l 112 694 l 223 694 l 223 409 l 577 409 l 577 694 l 689 694 l 689 263 q 729 127 689 177 q 840 77 770 77 q 988 268 988 77 l 988 377 l 1102 377 l 1102 262 "},"Я":{"x_min":20.34375,"x_max":672.125,"ha":800,"o":"m 672 0 l 558 0 l 558 413 l 432 413 q 358 388 389 413 q 294 293 327 364 l 157 0 l 20 0 l 184 324 q 297 443 232 419 l 297 446 q 142 534 200 467 q 83 698 83 600 q 166 894 83 817 q 390 972 248 972 l 672 972 l 672 0 m 558 516 l 558 869 l 400 869 q 255 823 305 869 q 204 697 204 777 q 259 565 204 613 q 404 516 314 516 l 558 516 "},"Ɲ":{"x_min":-69.171875,"x_max":912.890625,"ha":1039,"o":"m 912 0 l 771 0 l 271 775 q 240 836 252 804 l 236 836 q 241 702 241 805 l 241 35 q 12 -245 241 -245 q -69 -231 -31 -245 l -69 -123 q 6 -143 -35 -143 q 127 35 127 -143 l 127 972 l 275 972 l 762 209 q 801 144 792 162 l 804 144 q 797 287 797 186 l 797 972 l 912 972 l 912 0 "},"ὤ":{"x_min":86.140625,"x_max":1047.171875,"ha":1133,"o":"m 568 114 l 565 114 q 358 -14 495 -14 q 157 72 229 -14 q 86 310 86 159 q 171 695 86 485 l 295 695 q 199 306 199 478 q 240 141 199 199 q 355 83 281 83 q 511 317 511 83 l 511 509 l 622 509 l 622 317 q 777 83 622 83 q 893 142 852 83 q 934 306 934 201 q 837 695 934 478 l 961 695 q 1047 310 1047 483 q 974 71 1047 156 q 773 -14 902 -14 q 568 114 636 -14 m 438 793 l 418 834 q 497 915 481 862 q 441 933 463 915 q 419 982 419 952 q 438 1027 419 1009 q 486 1045 456 1045 q 566 963 566 1045 q 438 793 566 849 m 795 1041 l 676 796 l 612 796 l 681 1041 l 795 1041 "},"Ȓ":{"x_min":127.5,"x_max":752.828125,"ha":799,"o":"m 752 0 l 617 0 l 489 293 q 340 413 436 413 l 241 413 l 241 0 l 127 0 l 127 972 l 417 972 q 635 903 557 972 q 713 713 713 833 q 655 539 713 610 q 497 444 596 467 l 497 442 q 596 326 552 421 l 752 0 m 241 869 l 241 516 l 392 516 q 538 568 482 516 q 594 704 594 620 q 543 825 594 781 q 397 869 492 869 l 241 869 m 575 1062 l 506 1062 q 467 1139 500 1110 q 388 1167 434 1167 q 271 1062 280 1167 l 204 1062 q 257 1186 206 1139 q 387 1232 307 1232 q 516 1186 463 1232 q 575 1062 569 1139 "},"ɝ":{"x_min":61.046875,"x_max":730.453125,"ha":704,"o":"m 730 450 q 659 429 691 429 q 535 511 577 429 l 478 453 q 359 366 421 394 l 359 363 q 508 191 508 328 q 434 41 508 99 q 233 -16 360 -16 q 61 17 138 -16 l 61 122 q 234 77 138 77 q 352 109 309 77 q 394 192 394 141 q 198 309 394 309 l 141 309 l 141 405 l 197 405 q 323 437 275 405 q 372 518 372 468 q 236 617 372 617 q 78 576 155 617 l 78 679 q 244 710 156 710 q 478 561 437 710 l 569 656 l 591 592 q 670 514 617 514 q 730 537 699 514 l 730 450 "},"⁸":{"x_min":48.828125,"x_max":459.15625,"ha":509,"o":"m 348 699 q 459 547 459 651 q 403 426 459 470 q 246 382 347 382 q 105 426 162 382 q 48 541 48 470 q 158 699 48 645 q 69 835 69 750 q 121 944 69 903 q 262 986 173 986 q 391 946 341 986 q 440 843 440 907 q 348 699 440 752 m 254 741 q 346 835 346 779 q 256 905 346 905 q 189 886 215 905 q 163 836 163 866 q 254 741 163 779 m 250 659 q 142 545 142 623 q 174 487 142 510 q 255 463 206 463 q 335 486 303 463 q 366 542 366 510 q 250 659 366 619 "},"k":{"x_min":112.578125,"x_max":689.078125,"ha":690,"o":"m 689 0 l 533 0 l 226 333 l 223 333 l 223 0 l 112 0 l 112 1028 l 223 1028 l 223 376 l 226 376 l 518 694 l 663 694 l 341 359 l 689 0 "},"Ά":{"x_min":14.921875,"x_max":880.328125,"ha":896,"o":"m 880 0 l 754 0 l 651 272 l 238 272 l 141 0 l 14 0 l 387 972 l 505 972 l 880 0 m 613 375 l 461 789 q 446 854 453 809 l 443 854 q 427 789 436 813 l 276 375 l 613 375 m 213 971 l 94 726 l 30 726 l 100 971 l 213 971 "},"ȇ":{"x_min":65.109375,"x_max":670.765625,"ha":726,"o":"m 670 319 l 180 319 q 242 140 183 203 q 406 77 302 77 q 622 154 524 77 l 622 50 q 380 -16 531 -16 q 149 78 233 -16 q 65 344 65 172 q 157 608 65 506 q 385 710 248 710 q 596 622 521 710 q 670 377 670 534 l 670 319 m 556 413 q 510 563 556 510 q 383 617 464 617 q 249 560 304 617 q 181 413 194 504 l 556 413 m 549 826 l 480 826 q 441 903 474 874 q 362 931 408 931 q 245 826 254 931 l 178 826 q 231 950 180 903 q 361 996 281 996 q 490 950 437 996 q 549 826 543 903 "},"ί":{"x_min":112.578125,"x_max":352.671875,"ha":370,"o":"m 352 6 q 270 -8 310 -8 q 112 179 112 -8 l 112 694 l 223 694 l 223 183 q 291 89 223 89 q 352 101 320 89 l 352 6 m 301 1041 l 182 796 l 118 796 l 188 1041 l 301 1041 "},"Ù":{"x_min":115.296875,"x_max":838.96875,"ha":954,"o":"m 838 393 q 469 -16 838 -16 q 115 377 115 -16 l 115 972 l 229 972 l 229 385 q 481 86 229 86 q 725 375 725 86 l 725 972 l 838 972 l 838 393 m 562 1062 l 476 1062 l 298 1284 l 412 1284 l 562 1062 "},"ὓ":{"x_min":106.734375,"x_max":725.265625,"ha":806,"o":"m 106 694 l 216 694 l 216 312 q 268 140 216 200 q 415 81 320 81 q 561 141 508 81 q 613 310 613 201 q 513 694 613 513 l 637 694 q 725 315 725 524 q 640 72 725 162 q 415 -16 555 -16 q 188 65 269 -16 q 106 293 106 146 l 106 694 m 311 834 l 289 793 q 163 963 163 847 q 243 1045 163 1045 q 291 1027 273 1045 q 310 982 310 1009 q 288 933 310 952 q 232 915 266 915 q 311 834 249 862 m 538 796 l 475 796 l 356 1041 l 470 1041 l 538 796 "},"Ҷ":{"x_min":112.578125,"x_max":912.890625,"ha":954,"o":"m 912 -219 l 813 -219 l 813 0 l 668 0 l 668 437 q 379 355 512 355 q 182 421 251 355 q 112 607 112 487 l 112 972 l 226 972 l 226 612 q 393 455 226 455 q 668 530 514 455 l 668 972 l 781 972 l 781 103 l 912 103 l 912 -219 "},"В":{"x_min":127.5,"x_max":726.375,"ha":796,"o":"m 127 0 l 127 972 l 404 972 q 604 910 530 972 q 678 750 678 849 q 633 606 678 667 q 510 519 588 545 l 510 516 q 667 442 608 505 q 726 279 726 379 q 636 77 726 154 q 411 0 547 0 l 127 0 m 241 869 l 241 555 l 358 555 q 505 600 451 555 q 558 727 558 645 q 372 869 558 869 l 241 869 m 241 453 l 241 103 l 396 103 q 551 150 496 103 q 607 280 607 198 q 372 453 607 453 l 241 453 "},"ᾗ":{"x_min":88.171875,"x_max":689.078125,"ha":799,"o":"m 689 -274 l 576 -274 l 576 387 q 416 609 576 609 q 277 549 332 609 q 223 398 223 489 l 223 0 l 112 0 l 112 470 q 88 694 112 629 l 202 694 q 221 577 221 644 l 223 577 q 454 710 299 710 q 689 427 689 710 l 689 -274 m 583 991 l 512 991 q 384 1065 483 1065 q 257 991 285 1065 l 186 991 q 257 1093 203 1056 q 384 1130 311 1130 q 512 1093 458 1130 q 583 991 566 1056 m 387 865 q 448 811 391 826 l 435 775 q 315 898 315 800 q 336 953 315 931 q 390 975 357 975 q 451 919 451 975 q 387 865 451 865 m 355 -249 q 256 -303 314 -303 q 172 -275 205 -303 q 140 -200 140 -247 l 140 -80 l 224 -80 l 224 -206 q 270 -252 224 -252 q 325 -223 298 -252 l 355 -249 "},"Ẹ":{"x_min":127.5,"x_max":642.953125,"ha":703,"o":"m 642 0 l 127 0 l 127 972 l 621 972 l 621 869 l 241 869 l 241 545 l 592 545 l 592 443 l 241 443 l 241 103 l 642 103 l 642 0 m 396 -212 q 348 -193 368 -212 q 329 -145 329 -173 q 349 -99 329 -118 q 396 -80 369 -80 q 443 -99 424 -80 q 463 -145 463 -118 q 443 -193 463 -173 q 396 -212 424 -212 "},"ṱ":{"x_min":29.15625,"x_max":437.921875,"ha":471,"o":"m 434 6 q 330 -14 395 -14 q 148 188 148 -14 l 148 599 l 29 599 l 29 694 l 148 694 l 148 864 l 259 900 l 259 694 l 434 694 l 434 599 l 259 599 l 259 208 q 283 108 259 138 q 362 78 307 78 q 434 101 404 78 l 434 6 m 437 -304 l 355 -304 l 243 -148 l 132 -304 l 55 -304 l 201 -79 l 291 -79 l 437 -304 "},"β":{"x_min":112.578125,"x_max":708.75,"ha":766,"o":"m 223 32 l 223 -268 l 112 -268 l 112 755 q 186 962 112 885 q 387 1039 260 1039 q 567 975 500 1039 q 634 807 634 912 q 583 653 634 722 q 453 558 533 585 l 453 555 q 642 463 576 535 q 708 276 708 390 q 627 65 708 145 q 411 -15 545 -15 q 223 32 307 -15 m 337 501 l 337 591 q 469 659 416 602 q 522 794 522 716 q 381 944 522 944 q 265 892 307 944 q 223 744 223 841 l 223 138 q 408 78 317 78 q 545 128 496 78 q 594 269 594 179 q 337 501 594 475 "},"Ό":{"x_min":-31.625,"x_max":1053.421875,"ha":1148,"o":"m 589 -16 q 258 120 382 -16 q 133 474 133 256 q 260 849 133 709 q 605 988 387 988 q 930 853 807 988 q 1053 498 1053 717 q 927 122 1053 260 q 589 -16 801 -16 m 597 885 q 348 775 444 885 q 253 484 253 664 q 346 195 253 305 q 589 86 439 86 q 841 190 749 86 q 934 482 934 295 q 844 780 934 675 q 597 885 755 885 m 151 971 l 32 726 l -31 726 l 38 971 l 151 971 "},"≠":{"x_min":157.34375,"x_max":794.875,"ha":952,"o":"m 794 215 l 421 215 l 311 0 l 215 0 l 326 215 l 157 215 l 157 305 l 373 305 l 474 504 l 157 504 l 157 594 l 522 594 l 629 805 l 725 805 l 617 594 l 794 594 l 794 504 l 571 504 l 467 305 l 794 305 l 794 215 "},"Ғ":{"x_min":27.8125,"x_max":687.71875,"ha":715,"o":"m 687 869 l 297 869 l 297 558 l 531 558 l 531 454 l 297 454 l 297 0 l 183 0 l 183 454 l 27 454 l 27 558 l 183 558 l 183 972 l 687 972 l 687 869 "},"ƀ":{"x_min":22.375,"x_max":751.46875,"ha":817,"o":"m 225 100 l 222 100 l 222 0 l 112 0 l 112 816 l 22 816 l 22 911 l 112 911 l 112 1028 l 222 1028 l 222 911 l 390 911 l 390 816 l 222 816 l 222 572 l 225 572 q 465 710 307 710 q 675 618 598 710 q 751 367 751 525 q 666 88 751 193 q 433 -16 581 -16 q 225 100 298 -16 m 222 380 l 222 283 q 278 137 222 197 q 420 77 333 77 q 579 153 520 77 q 637 363 637 229 q 583 549 637 482 q 437 617 530 617 q 281 549 340 617 q 222 380 222 482 "},"Ĥ":{"x_min":127.5,"x_max":858.625,"ha":986,"o":"m 858 0 l 744 0 l 744 443 l 241 443 l 241 0 l 127 0 l 127 972 l 241 972 l 241 545 l 744 545 l 744 972 l 858 972 l 858 0 m 681 1062 l 599 1062 l 487 1218 l 376 1062 l 299 1062 l 445 1287 l 535 1287 l 681 1062 "},"U":{"x_min":115.296875,"x_max":838.96875,"ha":954,"o":"m 838 393 q 469 -16 838 -16 q 115 377 115 -16 l 115 972 l 229 972 l 229 385 q 481 86 229 86 q 725 375 725 86 l 725 972 l 838 972 l 838 393 "},"ɼ":{"x_min":112.578125,"x_max":474.75,"ha":483,"o":"m 474 581 q 390 604 445 604 q 271 537 319 604 q 223 354 223 470 l 223 -319 l 112 -319 l 112 694 l 223 694 l 223 551 l 226 551 q 408 706 276 706 q 474 697 451 706 l 474 581 "},"ả":{"x_min":61.046875,"x_max":609.71875,"ha":707,"o":"m 609 0 l 498 0 l 498 108 l 495 108 q 282 -16 423 -16 q 119 38 178 -16 q 61 184 61 93 q 290 411 61 379 l 498 440 q 355 617 498 617 q 128 531 229 617 l 128 645 q 364 710 231 710 q 609 451 609 710 l 609 0 m 498 351 l 330 328 q 214 289 253 317 q 174 192 174 262 q 211 109 174 141 q 307 77 247 77 q 444 135 390 77 q 498 282 498 193 l 498 351 m 280 1065 q 335 1068 306 1068 q 433 1039 394 1068 q 471 963 471 1011 q 445 893 471 921 q 380 859 419 864 l 380 826 l 307 826 l 307 904 q 383 955 383 904 q 319 998 383 998 q 280 992 308 998 l 280 1065 "},"ϴ":{"x_min":63.75,"x_max":983.421875,"ha":1047,"o":"m 519 -16 q 188 120 312 -16 q 63 474 63 256 q 190 849 63 709 q 535 988 317 988 q 860 853 737 988 q 983 498 983 717 q 857 122 983 260 q 519 -16 731 -16 m 861 537 q 761 794 849 703 q 527 885 673 885 q 293 790 386 885 q 185 537 200 695 l 861 537 m 861 432 l 185 432 q 290 179 200 273 q 519 86 381 86 q 758 176 668 86 q 861 432 848 267 "},"ʔ":{"x_min":18.984375,"x_max":504.59375,"ha":507,"o":"m 266 0 l 155 0 l 155 335 q 181 481 155 426 q 282 609 207 536 q 373 718 354 680 q 392 797 392 755 q 340 905 392 862 q 204 948 289 948 q 18 897 107 948 l 18 999 q 214 1043 108 1043 q 425 975 345 1043 q 504 804 504 907 q 477 688 504 742 q 363 551 451 634 q 287 454 309 499 q 266 335 266 410 l 266 0 "},"ᾞ":{"x_min":-45.78125,"x_max":1144.625,"ha":1274,"o":"m 1144 0 l 1030 0 l 1030 443 l 527 443 l 527 0 l 413 0 l 413 972 l 527 972 l 527 545 l 1030 545 l 1030 972 l 1144 972 l 1144 0 m 351 850 l 280 850 q 152 924 251 924 q 25 850 53 924 l -45 850 q 25 952 -28 915 q 152 989 79 989 q 280 952 226 989 q 351 850 334 915 m 109 634 l 94 670 q 157 724 152 685 q 91 778 91 724 q 152 834 91 834 q 206 812 185 834 q 227 757 227 790 q 109 634 227 659 m 951 -249 q 852 -303 910 -303 q 768 -275 801 -303 q 736 -200 736 -247 l 736 -80 l 820 -80 l 820 -206 q 866 -252 820 -252 q 921 -223 894 -252 l 951 -249 "},"ɴ":{"x_min":112.578125,"x_max":701.28125,"ha":814,"o":"m 701 0 l 595 0 l 252 489 q 219 539 227 523 l 217 539 q 219 451 219 503 l 219 0 l 112 0 l 112 694 l 223 694 l 561 217 q 594 164 583 186 l 596 164 q 592 241 592 198 l 592 694 l 701 694 l 701 0 "},"Ᾰ":{"x_min":14.921875,"x_max":880.328125,"ha":896,"o":"m 880 0 l 754 0 l 651 272 l 238 272 l 141 0 l 14 0 l 387 972 l 505 972 l 880 0 m 613 375 l 461 789 q 446 854 453 809 l 443 854 q 427 789 436 813 l 276 375 l 613 375 m 633 1221 q 574 1098 627 1146 q 445 1051 521 1051 q 315 1097 365 1051 q 262 1221 264 1144 l 329 1221 q 446 1116 338 1116 q 525 1145 492 1116 q 564 1221 558 1173 l 633 1221 "},"ờ":{"x_min":65.109375,"x_max":809.125,"ha":829,"o":"m 705 865 l 796 865 q 809 773 809 827 q 660 615 809 642 q 748 349 748 520 q 654 83 748 183 q 402 -16 560 -16 q 157 81 248 -16 q 65 339 65 178 q 160 612 65 514 q 419 710 256 710 q 510 701 451 710 q 625 694 551 694 q 692 718 665 694 q 718 776 718 742 q 705 865 718 826 m 411 617 q 241 544 303 617 q 179 343 179 471 q 242 148 179 219 q 411 77 305 77 q 576 147 518 77 q 634 345 634 217 q 576 546 634 476 q 411 617 518 617 m 494 826 l 408 826 l 230 1048 l 344 1048 l 494 826 "},"҄":{"x_min":63.75,"x_max":527.65625,"ha":572,"o":"m 527 826 l 444 826 q 343 918 411 918 q 243 872 309 918 q 132 826 177 826 l 63 826 l 63 930 l 118 930 q 231 963 159 930 q 354 996 302 996 q 527 826 456 996 "},"Ϋ":{"x_min":12.203125,"x_max":759.609375,"ha":768,"o":"m 759 972 l 438 359 l 438 0 l 324 0 l 324 356 l 12 972 l 141 972 l 359 533 q 383 473 363 524 l 385 473 q 411 533 392 496 l 638 972 l 759 972 m 514 1061 q 467 1080 487 1061 q 448 1128 448 1099 q 467 1175 448 1156 q 513 1194 486 1194 q 561 1175 541 1194 q 581 1128 581 1156 q 562 1080 581 1100 q 514 1061 543 1061 m 254 1061 q 205 1081 225 1061 q 185 1128 185 1101 q 205 1175 185 1156 q 252 1194 224 1194 q 300 1175 280 1194 q 320 1128 320 1156 q 301 1080 320 1100 q 254 1061 281 1061 "},"ō":{"x_min":65.109375,"x_max":748.765625,"ha":814,"o":"m 402 -16 q 157 81 248 -16 q 65 339 65 178 q 160 612 65 514 q 419 710 256 710 q 661 615 574 710 q 748 349 748 519 q 654 83 748 183 q 402 -16 560 -16 m 411 617 q 241 544 303 617 q 179 343 179 471 q 242 148 179 219 q 411 77 305 77 q 576 147 518 77 q 634 345 634 217 q 576 546 634 476 q 411 617 518 617 m 585 826 l 241 826 l 241 900 l 585 900 l 585 826 "},"ḕ":{"x_min":65.109375,"x_max":670.765625,"ha":726,"o":"m 670 319 l 180 319 q 242 140 183 203 q 406 77 302 77 q 622 154 524 77 l 622 50 q 380 -16 531 -16 q 149 78 233 -16 q 65 344 65 172 q 157 608 65 506 q 385 710 248 710 q 596 622 521 710 q 670 377 670 534 l 670 319 m 556 413 q 510 563 556 510 q 383 617 464 617 q 249 560 304 617 q 181 413 194 504 l 556 413 m 443 952 l 357 952 l 207 1119 l 321 1119 l 443 952 m 541 826 l 197 826 l 197 900 l 541 900 l 541 826 "},"Ӕ":{"x_min":6.78125,"x_max":1130.59375,"ha":1195,"o":"m 1130 0 l 615 0 l 615 272 l 269 272 l 139 0 l 6 0 l 481 972 l 1108 972 l 1108 869 l 729 869 l 729 545 l 1081 545 l 1081 443 l 729 443 l 729 103 l 1130 103 l 1130 0 m 615 375 l 615 869 l 551 869 l 316 375 l 615 375 "},"҆":{"x_min":78.671875,"x_max":516.8125,"ha":589,"o":"m 516 826 l 442 826 l 442 890 l 78 890 l 78 978 l 442 978 l 442 1034 l 516 1034 l 516 826 "},"ö":{"x_min":65.109375,"x_max":748.765625,"ha":814,"o":"m 402 -16 q 157 81 248 -16 q 65 339 65 178 q 160 612 65 514 q 419 710 256 710 q 661 615 574 710 q 748 349 748 519 q 654 83 748 183 q 402 -16 560 -16 m 411 617 q 241 544 303 617 q 179 343 179 471 q 242 148 179 219 q 411 77 305 77 q 576 147 518 77 q 634 345 634 217 q 576 546 634 476 q 411 617 518 617 m 537 826 q 490 845 510 826 q 471 893 471 864 q 490 940 471 921 q 536 959 509 959 q 584 940 564 959 q 604 893 604 921 q 585 845 604 865 q 537 826 566 826 m 277 826 q 228 846 248 826 q 208 893 208 866 q 228 940 208 921 q 275 959 247 959 q 323 940 303 959 q 343 893 343 921 q 324 845 343 865 q 277 826 304 826 "},"ẉ":{"x_min":16.28125,"x_max":987.5,"ha":1004,"o":"m 987 694 l 779 0 l 663 0 l 520 497 q 510 561 512 525 l 507 561 q 493 498 505 537 l 337 0 l 226 0 l 16 694 l 132 694 l 276 172 q 286 109 283 148 l 291 109 q 303 173 293 139 l 463 694 l 565 694 l 709 170 q 719 108 716 145 l 725 108 q 736 170 726 134 l 877 694 l 987 694 m 506 -212 q 458 -193 478 -212 q 439 -145 439 -173 q 459 -99 439 -118 q 506 -80 479 -80 q 553 -99 534 -80 q 573 -145 573 -118 q 553 -193 573 -173 q 506 -212 534 -212 "},"Ȧ":{"x_min":14.921875,"x_max":880.328125,"ha":896,"o":"m 880 0 l 754 0 l 651 272 l 238 272 l 141 0 l 14 0 l 387 972 l 505 972 l 880 0 m 613 375 l 461 789 q 446 854 453 809 l 443 854 q 427 789 436 813 l 276 375 l 613 375 m 449 1068 q 402 1087 422 1068 q 382 1135 382 1106 q 401 1181 382 1162 q 449 1200 421 1200 q 496 1181 477 1200 q 515 1135 515 1163 q 496 1087 515 1107 q 449 1068 477 1068 "},"Ḽ":{"x_min":127.5,"x_max":632.109375,"ha":654,"o":"m 632 0 l 127 0 l 127 972 l 241 972 l 241 103 l 632 103 l 632 0 m 571 -305 l 489 -305 l 377 -149 l 266 -305 l 189 -305 l 335 -80 l 425 -80 l 571 -305 "},"А":{"x_min":14.921875,"x_max":880.328125,"ha":896,"o":"m 880 0 l 754 0 l 651 272 l 238 272 l 141 0 l 14 0 l 387 972 l 505 972 l 880 0 m 613 375 l 461 789 q 446 854 453 809 l 443 854 q 427 789 436 813 l 276 375 l 613 375 "},"′":{"x_min":88.171875,"x_max":237.375,"ha":318,"o":"m 237 972 l 166 669 l 88 669 l 146 972 l 237 972 "},"ĭ":{"x_min":-16.90625,"x_max":355.4375,"ha":336,"o":"m 223 0 l 112 0 l 112 694 l 223 694 l 223 0 m 355 996 q 295 873 348 920 q 166 826 242 826 q 36 872 86 826 q -16 996 -13 919 l 50 996 q 167 891 59 891 q 246 920 213 891 q 286 996 279 948 l 355 996 "},"8":{"x_min":67.828125,"x_max":682.296875,"ha":749,"o":"m 278 510 l 278 512 q 103 748 103 594 q 183 921 103 853 q 389 988 263 988 q 576 925 503 988 q 649 763 649 862 q 469 512 649 602 l 469 510 q 682 246 682 434 q 595 54 682 126 q 354 -16 508 -16 q 148 54 229 -16 q 67 237 67 124 q 278 510 67 424 m 535 750 q 493 855 535 817 q 379 894 451 894 q 264 854 311 894 q 217 751 217 813 q 375 560 217 624 q 535 750 535 626 m 367 457 q 181 242 181 383 q 235 123 181 170 q 377 77 289 77 q 515 123 461 77 q 568 238 568 168 q 367 457 568 385 "},"ѯ":{"x_min":22.375,"x_max":561.5625,"ha":625,"o":"m 541 -278 l 440 -278 q 398 -223 440 -223 q 309 -250 367 -223 q 214 -278 252 -278 q 74 -226 126 -278 q 22 -86 22 -174 q 74 42 22 -9 q 215 94 127 94 q 268 90 228 94 q 320 84 307 84 q 450 193 450 84 q 248 309 450 309 l 180 309 l 180 402 l 245 402 q 421 514 421 402 q 381 589 421 560 q 271 617 341 617 q 67 565 169 617 l 67 669 q 279 710 183 710 q 533 524 533 710 q 494 419 533 463 q 390 362 456 376 l 390 359 q 514 307 466 353 q 561 189 561 261 q 501 45 561 96 q 330 -5 442 -5 q 270 0 317 -5 q 211 4 223 4 q 120 -86 120 4 q 146 -158 120 -130 q 215 -185 171 -185 q 303 -160 245 -185 q 406 -135 360 -135 q 541 -278 541 -135 "},"ƿ":{"x_min":112.578125,"x_max":709.421875,"ha":758,"o":"m 223 -30 l 223 -319 l 112 -319 l 112 694 l 223 694 l 223 607 q 472 710 340 710 q 641 644 574 710 q 709 478 709 577 q 580 192 709 327 q 223 -30 451 57 m 223 491 l 223 75 q 491 246 387 141 q 595 467 595 350 q 557 572 595 531 q 457 613 519 613 q 223 491 349 613 "},"Ữ":{"x_min":115.296875,"x_max":1009.203125,"ha":983,"o":"m 838 393 q 469 -16 838 -16 q 115 377 115 -16 l 115 972 l 229 972 l 229 385 q 481 86 229 86 q 725 375 725 86 l 725 972 l 824 972 q 892 996 865 972 q 918 1053 918 1020 q 904 1143 918 1104 l 996 1143 q 1009 1051 1009 1105 q 838 887 1009 908 l 838 393 m 701 1224 q 668 1108 701 1153 q 580 1063 636 1063 q 470 1098 532 1063 q 390 1127 418 1127 q 330 1051 330 1127 l 266 1051 q 299 1167 266 1123 q 390 1211 331 1211 q 491 1176 434 1211 q 578 1146 541 1146 q 635 1224 635 1146 l 701 1224 "},"R":{"x_min":127.5,"x_max":752.828125,"ha":799,"o":"m 752 0 l 617 0 l 489 293 q 340 413 436 413 l 241 413 l 241 0 l 127 0 l 127 972 l 417 972 q 635 903 557 972 q 713 713 713 833 q 655 539 713 610 q 497 444 596 467 l 497 442 q 596 326 552 421 l 752 0 m 241 869 l 241 516 l 392 516 q 538 568 482 516 q 594 704 594 620 q 543 825 594 781 q 397 869 492 869 l 241 869 "},"Ὗ":{"x_min":-45.78125,"x_max":1126.609375,"ha":1137,"o":"m 1126 972 l 805 359 l 805 0 l 691 0 l 691 356 l 379 972 l 508 972 l 726 533 q 750 473 730 524 l 752 473 q 778 533 759 496 l 1005 972 l 1126 972 m 351 849 l 280 849 q 152 923 251 923 q 25 849 53 923 l -45 849 q 25 951 -28 914 q 152 988 79 988 q 280 951 226 988 q 351 849 334 914 m 155 723 q 216 669 159 684 l 203 633 q 83 756 83 658 q 104 811 83 789 q 158 833 125 833 q 219 777 219 833 q 155 723 219 723 "},"Ż":{"x_min":22.375,"x_max":762.328125,"ha":792,"o":"m 762 945 l 192 103 l 748 103 l 748 0 l 22 0 l 22 31 l 587 869 l 67 869 l 67 972 l 762 972 l 762 945 m 402 1062 q 355 1081 375 1062 q 335 1129 335 1100 q 354 1175 335 1156 q 402 1194 374 1194 q 449 1175 430 1194 q 468 1129 468 1157 q 449 1081 468 1101 q 402 1062 430 1062 "},"Ṷ":{"x_min":115.296875,"x_max":838.96875,"ha":954,"o":"m 838 393 q 469 -16 838 -16 q 115 377 115 -16 l 115 972 l 229 972 l 229 385 q 481 86 229 86 q 725 375 725 86 l 725 972 l 838 972 l 838 393 m 662 -305 l 580 -305 l 468 -149 l 357 -305 l 280 -305 l 426 -80 l 516 -80 l 662 -305 "},"ħ":{"x_min":20.34375,"x_max":689.078125,"ha":786,"o":"m 689 0 l 577 0 l 577 400 q 416 617 577 617 q 279 554 335 617 q 223 393 223 491 l 223 0 l 112 0 l 112 815 l 20 815 l 20 906 l 112 906 l 112 1028 l 223 1028 l 223 906 l 448 906 l 448 815 l 223 815 l 223 579 l 226 579 q 454 710 307 710 q 628 638 568 710 q 689 427 689 565 l 689 0 "},"ἵ":{"x_min":-15.390625,"x_max":377.296875,"ha":370,"o":"m 352 6 q 270 -8 310 -8 q 112 179 112 -8 l 112 694 l 223 694 l 223 183 q 291 89 223 89 q 352 101 320 89 l 352 6 m 132 834 l 112 793 q -15 963 -15 849 q 64 1045 -15 1045 q 112 1027 94 1045 q 131 982 131 1009 q 109 933 131 952 q 53 915 87 915 q 132 834 69 862 m 377 1041 l 257 796 l 193 796 l 263 1041 l 377 1041 "},"„":{"x_min":59.6875,"x_max":440.171875,"ha":524,"o":"m 440 147 l 345 -154 l 265 -154 l 339 147 l 440 147 m 234 147 l 139 -154 l 59 -154 l 134 147 l 234 147 "},"δ":{"x_min":65.78125,"x_max":755.546875,"ha":822,"o":"m 341 646 q 201 766 233 716 q 169 869 169 816 q 240 993 169 946 q 431 1040 311 1040 q 655 987 545 1040 l 655 863 q 431 945 540 945 q 284 859 284 945 q 316 792 284 822 q 486 676 348 762 q 696 498 636 582 q 755 318 755 413 q 660 74 755 166 q 404 -16 566 -16 q 160 74 255 -16 q 65 305 65 166 q 341 646 65 548 m 428 590 q 179 311 179 510 q 244 142 179 205 q 413 78 309 78 q 580 140 518 78 q 642 310 642 202 q 428 590 642 453 "},"Â":{"x_min":14.921875,"x_max":880.328125,"ha":896,"o":"m 880 0 l 754 0 l 651 272 l 238 272 l 141 0 l 14 0 l 387 972 l 505 972 l 880 0 m 613 375 l 461 789 q 446 854 453 809 l 443 854 q 427 789 436 813 l 276 375 l 613 375 m 628 1061 l 546 1061 l 434 1217 l 323 1061 l 246 1061 l 392 1286 l 482 1286 l 628 1061 "},"Į":{"x_min":86.140625,"x_max":284.859375,"ha":370,"o":"m 284 -214 q 198 -229 246 -229 q 116 -197 147 -229 q 86 -112 86 -166 q 128 0 86 -67 l 127 0 l 127 972 l 241 972 l 241 0 l 212 0 q 172 -112 172 -67 q 218 -157 172 -157 q 284 -140 250 -157 l 284 -214 "},"ω":{"x_min":86.140625,"x_max":1047.171875,"ha":1133,"o":"m 568 113 l 565 113 q 358 -15 495 -15 q 157 71 229 -15 q 86 309 86 158 q 171 694 86 484 l 295 694 q 199 305 199 477 q 240 140 199 198 q 355 82 281 82 q 511 316 511 82 l 511 508 l 622 508 l 622 316 q 777 82 622 82 q 893 141 852 82 q 934 305 934 200 q 837 694 934 477 l 961 694 q 1047 309 1047 482 q 974 70 1047 155 q 773 -15 902 -15 q 568 113 636 -15 "},"´":{"x_min":91.5625,"x_max":355.390625,"ha":392,"o":"m 355 1048 l 177 826 l 91 826 l 242 1048 l 355 1048 "},"ǥ":{"x_min":65.109375,"x_max":817.9375,"ha":818,"o":"m 817 -141 l 669 -141 q 339 -326 588 -326 q 113 -278 210 -326 l 113 -166 q 337 -231 231 -231 q 548 -141 485 -231 l 323 -141 l 323 -47 l 585 -47 q 594 40 594 -6 l 594 144 l 591 144 q 352 10 512 10 q 144 101 224 10 q 65 339 65 192 q 151 608 65 505 q 383 710 238 710 q 591 598 523 710 l 594 598 l 594 694 l 705 694 l 705 55 q 697 -47 705 1 l 817 -47 l 817 -141 m 594 341 l 594 416 q 538 558 594 499 q 398 617 482 617 q 237 544 296 617 q 179 345 179 472 q 235 172 179 239 q 383 105 292 105 q 535 171 476 105 q 594 341 594 237 "},"Ɛ":{"x_min":75.96875,"x_max":686.359375,"ha":751,"o":"m 686 35 q 433 -16 573 -16 q 171 58 267 -16 q 75 258 75 133 q 130 415 75 348 q 283 507 185 481 l 283 511 q 109 726 109 565 q 202 914 109 839 q 442 988 295 988 q 661 941 562 988 l 661 826 q 438 885 557 885 q 285 843 343 885 q 227 727 227 800 q 296 602 227 651 q 481 552 365 552 l 552 552 l 552 450 l 480 450 q 196 266 196 450 q 260 133 196 181 q 437 86 325 86 q 686 148 573 86 l 686 35 "},"ỏ":{"x_min":65.109375,"x_max":748.765625,"ha":814,"o":"m 402 -16 q 157 81 248 -16 q 65 339 65 178 q 160 612 65 514 q 419 710 256 710 q 661 615 574 710 q 748 349 748 519 q 654 83 748 183 q 402 -16 560 -16 m 411 617 q 241 544 303 617 q 179 343 179 471 q 242 148 179 219 q 411 77 305 77 q 576 147 518 77 q 634 345 634 217 q 576 546 634 476 q 411 617 518 617 m 334 1065 q 389 1068 360 1068 q 487 1039 448 1068 q 525 963 525 1011 q 499 893 525 921 q 434 859 473 864 l 434 826 l 361 826 l 361 904 q 437 955 437 904 q 373 998 437 998 q 334 992 362 998 l 334 1065 "},"Ƈ":{"x_min":63.75,"x_max":912.890625,"ha":861,"o":"m 912 1022 q 859 1036 884 1036 q 783 929 783 1036 q 793 828 783 888 l 787 824 q 551 885 675 885 q 285 773 387 885 q 183 474 183 661 q 280 191 183 297 q 535 86 377 86 q 789 151 682 86 l 789 40 q 520 -16 681 -16 q 188 117 313 -16 q 63 467 63 250 q 203 844 63 700 q 558 988 343 988 q 685 972 621 988 q 732 1083 687 1037 q 847 1130 777 1130 q 912 1117 880 1130 l 912 1022 "},"Ĉ":{"x_min":63.75,"x_max":789.453125,"ha":860,"o":"m 789 40 q 520 -16 681 -16 q 188 117 313 -16 q 63 467 63 250 q 204 845 63 701 q 560 988 344 988 q 789 948 698 988 l 789 827 q 558 885 685 885 q 287 773 391 885 q 183 474 183 661 q 280 191 183 297 q 535 86 377 86 q 789 151 682 86 l 789 40 m 709 1063 l 627 1063 l 515 1219 l 404 1063 l 327 1063 l 473 1288 l 563 1288 l 709 1063 "},"Љ":{"x_min":10.859375,"x_max":1296.078125,"ha":1363,"o":"m 691 0 l 691 869 l 432 869 q 278 90 333 196 q 104 -14 223 -14 q 10 1 46 -14 l 10 112 q 92 86 45 86 q 169 138 139 86 q 247 440 200 191 q 336 972 295 689 l 805 972 l 805 560 l 990 560 q 1215 490 1133 560 q 1296 290 1296 420 q 1211 77 1296 155 q 980 0 1127 0 l 691 0 m 805 457 l 805 103 l 965 103 q 1121 150 1066 103 q 1176 283 1176 198 q 965 457 1176 457 l 805 457 "},"р":{"x_min":112.578125,"x_max":751.46875,"ha":817,"o":"m 226 100 l 223 100 l 223 -319 l 112 -319 l 112 694 l 223 694 l 223 572 l 226 572 q 466 710 308 710 q 676 617 600 710 q 751 367 751 524 q 666 88 751 193 q 434 -16 581 -16 q 226 100 299 -16 m 223 380 l 223 283 q 279 137 223 197 q 421 77 335 77 q 580 154 522 77 q 637 369 637 231 q 583 551 637 485 q 438 617 530 617 q 282 549 341 617 q 223 380 223 482 "},"т":{"x_min":20.34375,"x_max":548.6875,"ha":570,"o":"m 548 599 l 340 599 l 340 0 l 229 0 l 229 599 l 20 599 l 20 694 l 548 694 l 548 599 "},"П":{"x_min":127.5,"x_max":865.40625,"ha":990,"o":"m 865 0 l 750 0 l 750 866 l 242 866 l 242 0 l 127 0 l 127 972 l 865 972 l 865 0 "},"Ö":{"x_min":63.75,"x_max":983.421875,"ha":1047,"o":"m 519 -16 q 188 120 312 -16 q 63 474 63 256 q 190 849 63 709 q 535 988 317 988 q 860 853 737 988 q 983 498 983 717 q 857 122 983 260 q 519 -16 731 -16 m 527 885 q 278 775 374 885 q 183 484 183 664 q 276 195 183 305 q 519 86 369 86 q 771 190 679 86 q 864 482 864 295 q 774 780 864 675 q 527 885 685 885 m 656 1060 q 609 1079 629 1060 q 590 1127 590 1098 q 609 1174 590 1155 q 655 1193 628 1193 q 703 1174 683 1193 q 723 1127 723 1155 q 704 1079 723 1099 q 656 1060 685 1060 m 396 1060 q 347 1080 367 1060 q 327 1127 327 1100 q 347 1174 327 1155 q 394 1193 366 1193 q 442 1174 422 1193 q 462 1127 462 1155 q 443 1079 462 1099 q 396 1060 423 1060 "},"Θ":{"x_min":63.75,"x_max":983.421875,"ha":1047,"o":"m 519 -16 q 188 119 313 -16 q 63 474 63 254 q 190 848 63 707 q 535 988 316 988 q 860 853 737 988 q 983 498 983 717 q 857 122 983 260 q 519 -16 731 -16 m 526 885 q 279 775 374 885 q 183 485 183 664 q 276 195 183 305 q 519 86 369 86 q 771 190 679 86 q 863 483 863 295 q 774 779 863 673 q 526 885 685 885 m 706 432 l 341 432 l 341 538 l 706 538 l 706 432 "},"Ř":{"x_min":127.5,"x_max":752.828125,"ha":799,"o":"m 752 0 l 617 0 l 489 293 q 340 413 436 413 l 241 413 l 241 0 l 127 0 l 127 972 l 417 972 q 635 903 557 972 q 713 713 713 833 q 655 539 713 610 q 497 444 596 467 l 497 442 q 596 326 552 421 l 752 0 m 241 869 l 241 516 l 392 516 q 538 568 482 516 q 594 704 594 620 q 543 825 594 781 q 397 869 492 869 l 241 869 m 588 1285 l 443 1062 l 353 1062 l 207 1285 l 285 1285 l 396 1130 l 507 1285 l 588 1285 "},"ϙ":{"x_min":65.109375,"x_max":748.765625,"ha":814,"o":"m 462 -13 l 462 -319 l 351 -319 l 351 -13 q 141 97 217 2 q 65 339 65 192 q 160 612 65 514 q 419 710 256 710 q 661 615 574 710 q 748 349 748 519 q 672 103 748 200 q 462 -13 595 5 m 411 617 q 241 544 303 617 q 179 343 179 471 q 242 148 179 219 q 411 77 305 77 q 576 147 518 77 q 634 345 634 217 q 576 546 634 476 q 411 617 518 617 "},"ừ":{"x_min":97.671875,"x_max":829.46875,"ha":817,"o":"m 674 0 l 562 0 l 562 109 l 560 109 q 345 -16 491 -16 q 97 279 97 -16 l 97 694 l 208 694 l 208 297 q 376 77 208 77 q 510 137 457 77 q 562 294 562 197 l 562 694 l 645 694 q 712 718 685 694 q 739 776 739 742 q 725 865 739 826 l 816 865 q 829 773 829 827 q 674 614 829 638 l 674 0 m 452 826 l 366 826 l 188 1048 l 302 1048 l 452 826 "},"Ợ":{"x_min":63.75,"x_max":1081.09375,"ha":1059,"o":"m 791 913 q 845 907 824 907 q 990 995 990 907 q 976 1083 990 1044 l 1068 1083 q 1081 992 1081 1047 q 1033 874 1081 919 q 903 828 986 828 l 880 828 q 983 498 983 697 q 857 122 983 260 q 519 -16 731 -16 q 188 120 312 -16 q 63 474 63 256 q 190 849 63 709 q 535 988 317 988 q 791 913 682 988 m 527 885 q 278 775 374 885 q 183 484 183 664 q 276 195 183 305 q 519 86 369 86 q 771 190 679 86 q 864 482 864 295 q 774 780 864 675 q 527 885 685 885 m 521 -212 q 473 -193 493 -212 q 454 -145 454 -173 q 474 -99 454 -118 q 521 -80 494 -80 q 568 -99 549 -80 q 588 -145 588 -118 q 568 -193 588 -173 q 521 -212 549 -212 "},"ᾝ":{"x_min":-44.390625,"x_max":1143.625,"ha":1274,"o":"m 1143 0 l 1029 0 l 1029 443 l 526 443 l 526 0 l 412 0 l 412 972 l 526 972 l 526 545 l 1029 545 l 1029 972 l 1143 972 l 1143 0 m 103 764 l 83 723 q -44 893 -44 779 q 35 975 -44 975 q 83 957 65 975 q 102 912 102 939 q 80 863 102 882 q 24 845 58 845 q 103 764 40 792 m 348 971 l 228 726 l 164 726 l 234 971 l 348 971 m 950 -249 q 851 -303 909 -303 q 767 -275 800 -303 q 735 -200 735 -247 l 735 -80 l 819 -80 l 819 -206 q 865 -252 819 -252 q 920 -223 893 -252 l 950 -249 "},"ƴ":{"x_min":9.5,"x_max":759.609375,"ha":718,"o":"m 759 602 q 699 615 729 615 q 585 501 630 615 l 345 -111 q 105 -326 261 -326 q 33 -318 61 -326 l 33 -218 q 99 -230 67 -230 q 225 -130 183 -230 l 280 1 l 9 694 l 132 694 l 320 160 q 335 107 327 141 l 339 107 q 352 160 342 124 l 482 511 q 698 710 556 710 q 759 699 726 710 l 759 602 "},"É":{"x_min":127.5,"x_max":642.953125,"ha":703,"o":"m 642 0 l 127 0 l 127 972 l 621 972 l 621 869 l 241 869 l 241 545 l 592 545 l 592 443 l 241 443 l 241 103 l 642 103 l 642 0 m 544 1283 l 366 1061 l 280 1061 l 431 1283 l 544 1283 "},"ṅ":{"x_min":112.578125,"x_max":689.078125,"ha":786,"o":"m 689 0 l 577 0 l 577 396 q 416 617 577 617 q 278 554 333 617 q 223 396 223 491 l 223 0 l 112 0 l 112 694 l 223 694 l 223 579 l 226 579 q 454 710 305 710 q 628 637 568 710 q 689 424 689 563 l 689 0 m 407 826 q 360 845 380 826 q 340 893 340 864 q 359 939 340 920 q 407 958 379 958 q 454 939 435 958 q 473 893 473 921 q 454 845 473 865 q 407 826 435 826 "},"ұ":{"x_min":9.5,"x_max":665.34375,"ha":672,"o":"m 619 0 l 619 -90 l 389 -90 l 389 -319 l 278 -319 l 278 -90 l 52 -90 l 52 0 l 278 0 l 9 694 l 132 694 l 315 176 l 335 108 l 336 108 q 358 179 343 131 l 550 694 l 665 694 l 389 0 l 619 0 "},"и":{"x_min":112.578125,"x_max":694.5,"ha":807,"o":"m 694 0 l 594 0 l 594 554 q 548 472 579 524 l 227 0 l 112 0 l 112 694 l 214 694 l 214 147 q 249 214 222 166 l 579 694 l 694 694 l 694 0 "},"³":{"x_min":87.484375,"x_max":443.5625,"ha":509,"o":"m 87 417 l 87 514 q 234 462 157 462 q 320 487 288 462 q 351 556 351 513 q 202 652 351 652 l 145 652 l 145 732 l 200 732 q 333 823 333 732 q 236 904 333 904 q 109 857 172 904 l 109 951 q 254 986 168 986 q 376 945 330 986 q 421 840 421 905 q 323 701 421 737 l 323 698 q 443 561 443 670 q 385 432 443 482 q 231 381 328 381 q 87 417 139 381 "},"Ṧ":{"x_min":82.0625,"x_max":623.96875,"ha":690,"o":"m 82 39 l 82 173 q 191 110 125 134 q 316 86 257 86 q 504 231 504 86 q 466 333 504 288 q 299 451 429 378 q 133 579 183 517 q 83 729 83 642 q 168 915 83 843 q 392 988 252 988 q 583 954 522 988 l 583 826 q 386 885 505 885 q 252 845 301 885 q 202 739 202 804 q 232 642 202 685 q 392 527 261 599 q 571 392 518 457 q 623 245 623 326 q 539 54 623 125 q 301 -16 455 -16 q 180 0 246 -16 q 82 39 113 16 m 354 1228 q 308 1248 327 1228 q 288 1296 288 1267 q 307 1342 288 1323 q 354 1361 327 1361 q 402 1342 382 1361 q 421 1296 421 1323 q 402 1248 421 1268 q 354 1228 382 1228 m 548 1231 l 402 1062 l 311 1062 l 166 1231 l 242 1231 l 354 1131 l 466 1231 l 548 1231 "},"Ӫ":{"x_min":63.75,"x_max":983.421875,"ha":1047,"o":"m 519 -16 q 188 120 312 -16 q 63 474 63 256 q 190 849 63 709 q 535 988 317 988 q 860 853 737 988 q 983 498 983 717 q 857 122 983 260 q 519 -16 731 -16 m 861 537 q 761 794 849 703 q 527 885 673 885 q 293 790 386 885 q 185 537 200 695 l 861 537 m 861 432 l 185 432 q 290 179 200 273 q 519 86 381 86 q 758 176 668 86 q 861 432 848 267 m 656 1063 q 609 1082 629 1063 q 590 1130 590 1101 q 609 1177 590 1158 q 655 1196 628 1196 q 703 1177 683 1196 q 723 1130 723 1158 q 704 1082 723 1102 q 656 1063 685 1063 m 396 1063 q 347 1083 367 1063 q 327 1130 327 1103 q 347 1177 327 1158 q 394 1196 366 1196 q 442 1177 422 1196 q 462 1130 462 1158 q 443 1082 462 1102 q 396 1063 423 1063 "},"[":{"x_min":135.640625,"x_max":385.234375,"ha":419,"o":"m 385 -221 l 135 -221 l 135 972 l 385 972 l 385 891 l 234 891 l 234 -140 l 385 -140 l 385 -221 "},"ζ":{"x_min":56.96875,"x_max":612.4375,"ha":625,"o":"m 565 -209 l 443 -209 q 510 -103 510 -155 q 467 -36 510 -57 q 332 -2 425 -14 q 56 305 56 31 q 461 935 56 600 l 461 937 l 165 937 l 165 1028 l 575 1028 l 575 936 q 172 307 172 585 q 367 106 172 138 q 560 36 507 83 q 612 -86 612 -10 q 565 -209 612 -154 "},"ῇ":{"x_min":89.171875,"x_max":690.078125,"ha":799,"o":"m 690 -274 l 577 -274 l 577 387 q 417 609 577 609 q 278 549 333 609 q 224 398 224 489 l 224 0 l 113 0 l 113 470 q 89 694 113 629 l 203 694 q 222 577 222 644 l 224 577 q 455 710 300 710 q 690 427 690 710 l 690 -274 m 589 807 l 517 807 q 399 901 501 901 q 281 807 298 901 l 210 807 q 269 923 216 878 q 399 968 321 968 q 530 923 478 968 q 589 807 583 878 m 354 -249 q 255 -303 313 -303 q 171 -275 204 -303 q 139 -200 139 -247 l 139 -80 l 223 -80 l 223 -206 q 269 -252 223 -252 q 324 -223 297 -252 l 354 -249 "},"ḥ":{"x_min":112.578125,"x_max":689.078125,"ha":786,"o":"m 689 0 l 577 0 l 577 400 q 416 617 577 617 q 279 554 335 617 q 223 393 223 491 l 223 0 l 112 0 l 112 1028 l 223 1028 l 223 579 l 226 579 q 454 710 306 710 q 689 427 689 710 l 689 0 m 388 -212 q 340 -193 360 -212 q 321 -145 321 -173 q 341 -99 321 -118 q 388 -80 361 -80 q 435 -99 416 -80 q 455 -145 455 -118 q 435 -193 455 -173 q 388 -212 416 -212 "},"Ἅ":{"x_min":-44.390625,"x_max":1014.328125,"ha":1030,"o":"m 1014 0 l 888 0 l 785 272 l 372 272 l 275 0 l 148 0 l 521 972 l 639 972 l 1014 0 m 747 375 l 595 789 q 580 854 587 809 l 577 854 q 561 789 570 813 l 410 375 l 747 375 m 103 763 l 83 722 q -44 892 -44 778 q 35 974 -44 974 q 83 956 65 974 q 102 911 102 938 q 80 862 102 881 q 24 844 58 844 q 103 763 40 791 m 348 970 l 228 725 l 164 725 l 234 970 l 348 970 "},"Ρ":{"x_min":127.5,"x_max":722.3125,"ha":778,"o":"m 241 367 l 241 0 l 127 0 l 127 972 l 394 972 q 636 896 550 972 q 722 682 722 820 q 627 455 722 543 q 369 367 531 367 l 241 367 m 241 869 l 241 470 l 360 470 q 540 524 478 470 q 602 676 602 578 q 375 869 602 869 l 241 869 "},"ῌ":{"x_min":127.5,"x_max":858.625,"ha":986,"o":"m 858 0 l 744 0 l 744 443 l 241 443 l 241 0 l 127 0 l 127 972 l 241 972 l 241 545 l 744 545 l 744 972 l 858 972 l 858 0 m 664 -249 q 565 -303 623 -303 q 481 -275 514 -303 q 449 -200 449 -247 l 449 -80 l 533 -80 l 533 -206 q 579 -252 533 -252 q 634 -223 607 -252 l 664 -249 "},"ᾎ":{"x_min":-45.78125,"x_max":1014.328125,"ha":1030,"o":"m 1014 0 l 888 0 l 785 272 l 372 272 l 275 0 l 148 0 l 521 972 l 639 972 l 1014 0 m 747 375 l 595 789 q 580 854 587 809 l 577 854 q 561 789 570 813 l 410 375 l 747 375 m 351 849 l 280 849 q 152 923 251 923 q 25 849 53 923 l -45 849 q 25 951 -28 914 q 152 988 79 988 q 280 951 226 988 q 351 849 334 914 m 109 633 l 94 669 q 157 723 152 684 q 91 777 91 723 q 152 833 91 833 q 206 811 185 833 q 227 756 227 789 q 109 633 227 658 m 755 -249 q 656 -303 714 -303 q 572 -275 605 -303 q 540 -200 540 -247 l 540 -80 l 624 -80 l 624 -206 q 670 -252 624 -252 q 725 -223 698 -252 l 755 -249 "},"Ṙ":{"x_min":127.5,"x_max":752.828125,"ha":799,"o":"m 752 0 l 617 0 l 489 293 q 340 413 436 413 l 241 413 l 241 0 l 127 0 l 127 972 l 417 972 q 635 903 557 972 q 713 713 713 833 q 655 539 713 610 q 497 444 596 467 l 497 442 q 596 326 552 421 l 752 0 m 241 869 l 241 516 l 392 516 q 538 568 482 516 q 594 704 594 620 q 543 825 594 781 q 397 869 492 869 l 241 869 m 390 1063 q 343 1082 363 1063 q 323 1130 323 1101 q 342 1176 323 1157 q 390 1195 362 1195 q 437 1176 418 1195 q 456 1130 456 1158 q 437 1082 456 1102 q 390 1063 418 1063 "},"ª":{"x_min":55.609375,"x_max":466.625,"ha":545,"o":"m 466 486 l 379 486 l 379 554 l 376 554 q 219 473 322 473 q 100 513 145 473 q 55 617 55 554 q 223 776 55 754 l 379 797 q 276 911 379 911 q 104 853 184 911 l 104 940 q 284 987 179 987 q 418 938 370 987 q 466 801 466 889 l 466 486 m 379 729 l 257 712 q 143 621 143 696 q 169 564 143 586 q 238 543 195 543 q 336 584 294 543 q 379 683 379 626 l 379 729 "},"Ἓ":{"x_min":-43.25,"x_max":928.953125,"ha":989,"o":"m 928 0 l 413 0 l 413 972 l 907 972 l 907 869 l 527 869 l 527 545 l 878 545 l 878 443 l 527 443 l 527 103 l 928 103 l 928 0 m 104 763 l 82 722 q -43 892 -43 776 q 36 974 -43 974 q 84 956 66 974 q 103 911 103 938 q 81 862 103 881 q 25 844 59 844 q 104 763 42 791 m 331 725 l 268 725 l 149 970 l 263 970 l 331 725 "},"ї":{"x_min":-30.21875,"x_max":365.1875,"ha":336,"o":"m 223 0 l 112 0 l 112 694 l 223 694 l 223 0 m 298 826 q 251 845 271 826 q 232 893 232 864 q 251 940 232 921 q 297 959 270 959 q 345 940 325 959 q 365 893 365 921 q 346 845 365 865 q 298 826 327 826 m 38 826 q -10 846 9 826 q -30 893 -30 866 q -10 940 -30 921 q 36 959 8 959 q 84 940 64 959 q 104 893 104 921 q 85 845 104 865 q 38 826 65 826 "},"š":{"x_min":70.53125,"x_max":497.140625,"ha":553,"o":"m 70 25 l 70 144 q 250 77 151 77 q 383 174 383 77 q 354 242 383 215 q 240 305 324 268 q 106 395 140 349 q 71 510 71 442 q 140 653 71 596 q 316 710 208 710 q 465 679 399 710 l 465 567 q 307 617 396 617 q 219 590 252 617 q 185 519 185 562 q 209 451 185 477 q 318 390 233 425 q 458 299 420 347 q 497 185 497 252 q 428 40 497 96 q 242 -16 360 -16 q 70 25 143 -16 m 462 1049 l 317 826 l 227 826 l 81 1049 l 159 1049 l 270 894 l 381 1049 l 462 1049 "},"Ƕ":{"x_min":127.5,"x_max":1297.4375,"ha":1388,"o":"m 1297 290 q 1218 64 1297 145 q 1001 -16 1140 -16 q 790 61 864 -16 q 716 282 716 139 l 716 443 l 241 443 l 241 0 l 127 0 l 127 972 l 241 972 l 241 545 l 716 545 l 716 972 l 830 972 l 830 291 q 1007 86 830 86 q 1183 287 1183 86 l 1183 694 l 1297 694 l 1297 290 "},"1":{"x_min":113.9375,"x_max":669.40625,"ha":749,"o":"m 669 0 l 119 0 l 119 97 l 339 97 l 339 853 l 113 786 l 113 891 l 450 994 l 450 97 l 669 97 l 669 0 "},"ϒ":{"x_min":12.203125,"x_max":819.296875,"ha":785,"o":"m 819 872 q 759 885 789 885 q 638 756 704 885 l 438 356 l 438 0 l 324 0 l 324 356 l 12 972 l 141 972 l 359 533 q 383 473 363 524 l 385 473 q 408 533 390 492 l 543 803 q 641 946 594 904 q 752 988 689 988 q 819 975 789 988 l 819 872 "},"ҍ":{"x_min":30.515625,"x_max":642.953125,"ha":703,"o":"m 112 0 l 112 836 l 30 836 l 30 926 l 112 926 l 112 1028 l 223 1028 l 223 926 l 311 926 l 311 836 l 223 836 l 223 427 l 411 427 q 580 372 517 427 q 642 217 642 316 q 579 58 642 116 q 420 0 516 0 l 112 0 m 223 332 l 223 94 l 390 94 q 529 217 529 94 q 389 332 529 332 l 223 332 "},"ℓ":{"x_min":9.5,"x_max":437.453125,"ha":449,"o":"m 9 286 l 130 446 l 130 754 q 171 959 130 907 q 288 1011 213 1011 q 397 965 356 1011 q 437 849 437 919 q 244 451 437 716 l 244 169 q 253 94 244 108 q 283 80 263 80 q 417 153 316 80 l 417 43 q 265 -16 341 -16 q 130 147 130 -16 l 130 299 l 75 233 l 9 286 m 244 609 q 330 774 318 736 q 343 849 343 813 q 291 929 343 929 q 258 908 271 929 q 244 763 244 887 l 244 609 "},"ɩ":{"x_min":100.375,"x_max":379.125,"ha":387,"o":"m 379 5 q 278 -14 340 -14 q 100 185 100 -14 l 100 694 l 211 694 l 211 205 q 309 78 211 78 q 379 100 349 78 l 379 5 "},"Ǜ":{"x_min":115.296875,"x_max":838.96875,"ha":954,"o":"m 838 393 q 469 -16 838 -16 q 115 377 115 -16 l 115 972 l 229 972 l 229 385 q 481 86 229 86 q 725 375 725 86 l 725 972 l 838 972 l 838 393 m 531 1211 l 444 1211 l 266 1434 l 379 1434 l 531 1211 m 607 1065 q 559 1084 579 1065 q 540 1132 540 1104 q 560 1179 540 1160 q 608 1198 580 1198 q 656 1179 636 1198 q 675 1132 675 1160 q 655 1084 675 1103 q 607 1065 634 1065 m 346 1065 q 298 1084 318 1065 q 279 1132 279 1104 q 299 1179 279 1160 q 348 1198 319 1198 q 393 1179 374 1198 q 413 1132 413 1160 q 393 1084 413 1103 q 346 1065 373 1065 "},"ǒ":{"x_min":65.109375,"x_max":748.765625,"ha":814,"o":"m 402 -16 q 157 81 248 -16 q 65 339 65 178 q 160 612 65 514 q 419 710 256 710 q 661 615 574 710 q 748 349 748 519 q 654 83 748 183 q 402 -16 560 -16 m 411 617 q 241 544 303 617 q 179 343 179 471 q 242 148 179 219 q 411 77 305 77 q 576 147 518 77 q 634 345 634 217 q 576 546 634 476 q 411 617 518 617 m 597 1049 l 452 826 l 362 826 l 216 1049 l 294 1049 l 405 894 l 516 1049 l 597 1049 "},"ἥ":{"x_min":88.171875,"x_max":689.078125,"ha":799,"o":"m 689 -274 l 576 -274 l 576 387 q 416 609 576 609 q 277 549 332 609 q 223 398 223 489 l 223 0 l 112 0 l 112 470 q 88 694 112 629 l 202 694 q 221 577 221 644 l 223 577 q 454 710 299 710 q 689 427 689 710 l 689 -274 m 364 834 l 344 793 q 216 963 216 849 q 296 1045 216 1045 q 344 1027 326 1045 q 363 982 363 1009 q 341 933 363 952 q 285 915 319 915 q 364 834 301 862 m 609 1041 l 489 796 l 425 796 l 495 1041 l 609 1041 "},"ӡ":{"x_min":-23.734375,"x_max":591.40625,"ha":614,"o":"m -23 -269 l -23 -160 q 208 -230 88 -230 q 401 -168 326 -230 q 477 -9 477 -107 q 402 147 477 91 q 187 204 326 204 l 131 204 l 131 238 l 392 599 l 0 599 l 0 694 l 551 694 l 551 659 l 284 291 q 512 194 432 274 q 591 -6 591 115 q 481 -235 591 -145 q 204 -324 371 -324 q -23 -269 80 -324 "},"ḽ":{"x_min":-22.609375,"x_max":359.921875,"ha":336,"o":"m 223 0 l 112 0 l 112 1028 l 223 1028 l 223 0 m 359 -304 l 277 -304 l 165 -148 l 54 -304 l -22 -304 l 123 -79 l 213 -79 l 359 -304 "},"ī":{"x_min":-2.953125,"x_max":341.59375,"ha":336,"o":"m 223 0 l 112 0 l 112 694 l 223 694 l 223 0 m 341 826 l -2 826 l -2 900 l 341 900 l 341 826 "},"ϯ":{"x_min":0,"x_max":573.78125,"ha":567,"o":"m 573 599 l 356 599 l 356 50 q 118 -245 356 -199 l 118 -137 q 217 -80 188 -122 q 245 48 245 -37 l 245 599 l 162 599 q 97 543 97 599 q 101 500 97 520 l 6 500 q 0 564 0 533 q 162 694 0 694 l 245 694 l 245 864 l 356 900 l 356 694 l 573 694 l 573 599 "},"ӹ":{"x_min":112.578125,"x_max":872.1875,"ha":985,"o":"m 872 0 l 762 0 l 762 694 l 872 694 l 872 0 m 112 0 l 112 694 l 223 694 l 223 427 l 411 427 q 580 372 517 427 q 642 217 642 316 q 579 58 642 116 q 420 0 516 0 l 112 0 m 223 332 l 223 94 l 390 94 q 529 217 529 94 q 389 332 529 332 l 223 332 m 621 826 q 574 845 594 826 q 555 893 555 864 q 574 940 555 921 q 620 959 593 959 q 668 940 648 959 q 688 893 688 921 q 669 845 688 865 q 621 826 650 826 m 361 826 q 312 846 332 826 q 292 893 292 866 q 312 940 292 921 q 359 959 331 959 q 407 940 387 959 q 427 893 427 921 q 408 845 427 865 q 361 826 388 826 "},"ṻ":{"x_min":97.671875,"x_max":674.15625,"ha":786,"o":"m 674 0 l 562 0 l 562 109 l 560 109 q 345 -16 491 -16 q 97 279 97 -16 l 97 694 l 208 694 l 208 297 q 376 77 208 77 q 510 137 457 77 q 562 294 562 197 l 562 694 l 674 694 l 674 0 m 515 952 q 468 971 487 952 q 448 1019 448 990 q 467 1067 448 1047 q 514 1086 487 1086 q 561 1066 541 1086 q 581 1019 581 1047 q 562 972 581 991 q 515 952 543 952 m 254 952 q 206 971 225 952 q 186 1019 186 990 q 206 1067 186 1047 q 253 1086 225 1086 q 300 1066 280 1086 q 320 1019 320 1047 q 301 972 320 991 q 254 952 282 952 m 559 826 l 215 826 l 215 900 l 559 900 l 559 826 "},"G":{"x_min":63.75,"x_max":854.5625,"ha":953,"o":"m 854 66 q 529 -16 708 -16 q 192 118 320 -16 q 63 473 63 252 q 206 844 63 699 q 568 988 349 988 q 834 937 727 988 l 834 811 q 555 885 716 885 q 287 773 392 885 q 183 481 183 660 q 280 191 183 297 q 543 86 377 86 q 740 131 657 86 l 740 404 l 527 404 l 527 507 l 854 507 l 854 66 "},"`":{"x_min":55.609375,"x_max":319.4375,"ha":372,"o":"m 319 826 l 233 826 l 55 1048 l 169 1048 l 319 826 "},"Ễ":{"x_min":127.5,"x_max":642.953125,"ha":703,"o":"m 642 0 l 127 0 l 127 972 l 621 972 l 621 869 l 241 869 l 241 545 l 592 545 l 592 443 l 241 443 l 241 103 l 642 103 l 642 0 m 602 1432 q 570 1324 602 1363 q 481 1284 539 1284 q 377 1309 436 1284 q 291 1334 318 1334 q 231 1272 231 1334 l 167 1272 q 291 1418 167 1418 q 389 1392 333 1418 q 478 1366 444 1366 q 535 1432 535 1366 l 602 1432 m 575 1062 l 493 1062 l 382 1162 l 270 1062 l 194 1062 l 339 1231 l 430 1231 l 575 1062 "},"ằ":{"x_min":61.046875,"x_max":609.71875,"ha":707,"o":"m 609 0 l 498 0 l 498 108 l 495 108 q 282 -16 423 -16 q 119 38 178 -16 q 61 184 61 93 q 290 411 61 379 l 498 440 q 355 617 498 617 q 128 531 229 617 l 128 645 q 364 710 231 710 q 609 451 609 710 l 609 0 m 498 351 l 330 328 q 214 289 253 317 q 174 192 174 262 q 211 109 174 141 q 307 77 247 77 q 444 135 390 77 q 498 282 498 193 l 498 351 m 443 983 l 357 983 l 207 1150 l 321 1150 l 443 983 m 192 996 l 262 996 q 380 906 273 906 q 496 996 490 906 l 564 996 q 511 872 561 919 q 381 826 460 826 q 252 873 305 826 q 192 996 199 921 "},"ŏ":{"x_min":65.109375,"x_max":748.765625,"ha":814,"o":"m 402 -16 q 157 81 248 -16 q 65 339 65 178 q 160 612 65 514 q 419 710 256 710 q 661 615 574 710 q 748 349 748 519 q 654 83 748 183 q 402 -16 560 -16 m 411 617 q 241 544 303 617 q 179 343 179 471 q 242 148 179 219 q 411 77 305 77 q 576 147 518 77 q 634 345 634 217 q 576 546 634 476 q 411 617 518 617 m 607 996 q 547 873 600 920 q 418 826 494 826 q 288 872 338 826 q 235 996 238 919 l 302 996 q 419 891 311 891 q 498 920 465 891 q 538 996 531 948 l 607 996 "},"ý":{"x_min":9.5,"x_max":665.34375,"ha":672,"o":"m 665 694 l 345 -111 q 105 -326 260 -326 q 33 -318 62 -326 l 33 -218 q 99 -230 69 -230 q 225 -130 183 -230 l 280 1 l 9 694 l 132 694 l 320 160 q 335 107 324 149 l 339 107 q 352 158 342 123 l 550 694 l 665 694 m 516 1048 l 338 826 l 252 826 l 403 1048 l 516 1048 "},"º":{"x_min":52.90625,"x_max":544.609375,"ha":598,"o":"m 295 472 q 117 540 182 472 q 52 725 52 608 q 122 916 52 847 q 306 986 191 986 q 480 918 417 986 q 544 735 544 851 q 477 543 544 614 q 295 472 409 472 m 301 911 q 186 862 229 911 q 144 727 144 813 q 184 596 144 643 q 299 548 225 548 q 412 597 370 548 q 454 729 454 645 q 413 863 454 814 q 301 911 372 911 "},"ȑ":{"x_min":2.640625,"x_max":474.75,"ha":483,"o":"m 474 581 q 390 604 445 604 q 271 537 319 604 q 223 354 223 470 l 223 0 l 112 0 l 112 694 l 223 694 l 223 551 l 226 551 q 299 665 250 624 q 408 706 347 706 q 474 697 451 706 l 474 581 m 398 826 l 332 826 l 170 1041 l 258 1041 l 398 826 m 234 826 l 169 826 l 2 1041 l 92 1041 l 234 826 "},"ʘ":{"x_min":65.109375,"x_max":793.515625,"ha":859,"o":"m 425 -16 q 158 118 250 -16 q 65 505 65 252 q 161 903 65 763 q 433 1043 257 1043 q 700 909 608 1043 q 793 519 793 775 q 697 122 793 261 q 425 -16 602 -16 m 429 948 q 243 835 307 948 q 179 511 179 722 q 429 77 179 77 q 615 189 551 77 q 679 514 679 302 q 429 948 679 948 m 429 437 q 375 459 397 437 q 354 514 354 482 q 375 567 354 545 q 429 590 397 590 q 483 567 460 590 q 505 514 505 545 q 483 460 505 482 q 429 437 460 437 "},"Ί":{"x_min":-40.625,"x_max":329.453125,"ha":458,"o":"m 329 0 l 215 0 l 215 972 l 329 972 l 329 0 m 142 971 l 23 726 l -40 726 l 29 971 l 142 971 "},"ӛ":{"x_min":55.609375,"x_max":661.265625,"ha":726,"o":"m 55 375 l 545 375 q 483 554 542 491 q 319 617 424 617 q 104 539 202 617 l 104 644 q 345 710 195 710 q 577 616 493 710 q 661 349 661 521 q 569 85 661 186 q 341 -16 477 -16 q 129 72 204 -16 q 55 316 55 161 l 55 375 m 544 280 l 169 280 q 216 130 170 183 q 343 77 261 77 q 476 133 421 77 q 544 280 531 189 m 496 826 q 449 845 469 826 q 430 893 430 864 q 449 940 430 921 q 495 959 468 959 q 543 940 523 959 q 563 893 563 921 q 544 845 563 865 q 496 826 525 826 m 236 826 q 187 846 207 826 q 167 893 167 866 q 187 940 167 921 q 234 959 206 959 q 282 940 262 959 q 302 893 302 921 q 283 845 302 865 q 236 826 263 826 "},"ń":{"x_min":112.578125,"x_max":689.078125,"ha":786,"o":"m 689 0 l 577 0 l 577 396 q 416 617 577 617 q 278 554 333 617 q 223 396 223 491 l 223 0 l 112 0 l 112 694 l 223 694 l 223 579 l 226 579 q 454 710 305 710 q 628 637 568 710 q 689 424 689 563 l 689 0 m 567 1048 l 389 826 l 303 826 l 454 1048 l 567 1048 "},"ἒ":{"x_min":61.046875,"x_max":567,"ha":620,"o":"m 567 14 q 345 -16 478 -16 q 137 39 213 -16 q 61 188 61 94 q 108 298 61 251 q 233 357 155 344 l 233 360 q 131 416 174 372 q 87 516 87 459 q 159 659 87 608 q 352 710 231 710 q 535 680 450 710 l 535 568 q 345 617 445 617 q 200 518 200 617 q 255 435 200 465 q 394 404 309 404 q 474 406 444 404 l 474 307 q 379 310 425 310 q 173 189 173 310 q 222 107 173 137 q 356 77 271 77 q 567 126 469 77 l 567 14 m 165 793 l 144 834 q 223 915 207 862 q 168 933 190 915 q 146 982 146 952 q 164 1027 146 1009 q 212 1045 182 1045 q 293 963 293 1045 q 165 793 293 849 m 511 796 l 447 796 l 329 1041 l 441 1041 l 511 796 "},"ἑ":{"x_min":61.046875,"x_max":567,"ha":620,"o":"m 567 14 q 345 -16 478 -16 q 137 39 213 -16 q 61 188 61 94 q 108 298 61 251 q 233 357 155 344 l 233 360 q 131 416 174 372 q 87 516 87 459 q 159 659 87 608 q 352 710 231 710 q 535 680 450 710 l 535 568 q 345 617 445 617 q 200 518 200 617 q 255 435 200 465 q 394 404 309 404 q 474 406 444 404 l 474 307 q 379 310 425 310 q 173 189 173 310 q 222 107 173 137 q 356 77 271 77 q 567 126 469 77 l 567 14 m 402 820 l 374 777 q 280 861 318 805 q 241 978 241 918 q 265 1041 241 1016 q 324 1065 288 1065 q 374 1045 354 1065 q 393 996 393 1026 q 320 929 393 933 q 402 820 331 858 "},"Ь":{"x_min":127.5,"x_max":732.484375,"ha":800,"o":"m 127 0 l 127 972 l 241 972 l 241 560 l 425 560 q 651 490 571 560 q 732 290 732 419 q 647 77 732 155 q 416 0 562 0 l 127 0 m 241 457 l 241 103 l 401 103 q 557 150 502 103 q 612 283 612 198 q 401 457 612 457 l 241 457 "},"ƽ":{"x_min":48.828125,"x_max":486.28125,"ha":528,"o":"m 61 16 l 61 128 q 221 77 138 77 q 330 113 288 77 q 372 209 372 150 q 327 300 372 266 q 205 335 283 335 q 77 329 189 335 l 119 599 l 48 599 l 48 694 l 458 694 l 458 599 l 221 599 l 193 427 q 241 429 227 429 q 417 372 347 429 q 486 215 486 316 q 414 48 486 113 q 221 -16 341 -16 q 61 16 113 -16 "},"ᾯ":{"x_min":-45.78125,"x_max":1262.75,"ha":1328,"o":"m 1262 0 l 910 0 l 910 99 q 1144 529 1144 272 q 1050 791 1144 695 q 807 888 956 888 q 561 792 657 888 q 465 529 465 695 q 700 99 465 273 l 700 0 l 347 0 l 347 100 l 583 99 q 347 532 347 259 q 473 866 347 744 q 803 988 598 988 q 1137 867 1013 988 q 1262 533 1262 746 q 1027 99 1262 260 l 1262 100 l 1262 0 m 351 850 l 280 850 q 152 924 251 924 q 25 850 53 924 l -45 850 q 25 952 -28 915 q 152 989 79 989 q 280 952 226 989 q 351 850 334 915 m 155 724 q 216 670 159 685 l 203 634 q 83 757 83 659 q 104 812 83 790 q 158 834 125 834 q 219 778 219 834 q 155 724 219 724 m 976 -249 q 877 -303 935 -303 q 793 -275 826 -303 q 761 -200 761 -247 l 761 -80 l 845 -80 l 845 -206 q 891 -252 845 -252 q 946 -223 919 -252 l 976 -249 "},"¤":{"x_min":67.828125,"x_max":704,"ha":772,"o":"m 704 240 l 641 174 l 548 268 q 386 217 477 217 q 223 268 294 217 l 130 174 l 67 240 l 161 330 q 109 491 109 407 q 161 652 109 579 l 67 744 l 130 809 l 223 716 q 386 769 298 769 q 547 716 474 769 l 641 809 l 704 744 l 611 652 q 663 491 663 576 q 611 330 663 409 l 704 240 m 386 679 q 253 624 307 679 q 200 493 200 569 q 254 361 200 416 q 386 306 309 306 q 518 361 463 306 q 573 493 573 416 q 517 624 573 569 q 386 679 461 679 "},"Ǣ":{"x_min":6.78125,"x_max":1130.59375,"ha":1195,"o":"m 1130 0 l 615 0 l 615 272 l 269 272 l 139 0 l 6 0 l 481 972 l 1108 972 l 1108 869 l 729 869 l 729 545 l 1081 545 l 1081 443 l 729 443 l 729 103 l 1130 103 l 1130 0 m 615 375 l 615 869 l 551 869 l 316 375 l 615 375 m 968 1063 l 624 1063 l 624 1137 l 968 1137 l 968 1063 "},"Ɨ":{"x_min":27.8125,"x_max":358.109375,"ha":387,"o":"m 358 443 l 249 443 l 249 0 l 135 0 l 135 443 l 27 443 l 27 545 l 135 545 l 135 972 l 249 972 l 249 545 l 358 545 l 358 443 "},"p":{"x_min":112.578125,"x_max":751.46875,"ha":817,"o":"m 226 100 l 223 100 l 223 -319 l 112 -319 l 112 694 l 223 694 l 223 572 l 226 572 q 466 710 308 710 q 676 617 600 710 q 751 367 751 524 q 666 88 751 193 q 434 -16 581 -16 q 226 100 299 -16 m 223 380 l 223 283 q 279 137 223 197 q 421 77 335 77 q 580 154 522 77 q 637 369 637 231 q 583 551 637 485 q 438 617 530 617 q 282 549 341 617 q 223 380 223 482 "},"Ἤ":{"x_min":-45.609375,"x_max":1144.625,"ha":1274,"o":"m 1144 0 l 1030 0 l 1030 443 l 527 443 l 527 0 l 413 0 l 413 972 l 527 972 l 527 545 l 1030 545 l 1030 972 l 1144 972 l 1144 0 m -25 722 l -45 763 q 33 844 17 791 q -22 862 0 844 q -44 911 -44 881 q -25 956 -44 938 q 22 974 -7 974 q 102 892 102 974 q -25 722 102 778 m 331 970 l 212 725 l 148 725 l 217 970 l 331 970 "},"Ѹ":{"x_min":63.75,"x_max":1822.390625,"ha":1822,"o":"m 519 -44 l 519 10 q 188 147 313 10 q 63 503 63 284 q 193 874 63 732 q 531 1016 323 1016 l 531 961 q 863 827 742 961 q 983 470 983 693 q 857 94 983 233 q 519 -44 732 -44 m 531 858 l 531 914 q 279 801 375 914 q 183 512 183 688 q 276 223 183 333 q 519 113 368 113 l 519 58 q 771 162 679 58 q 864 455 864 267 q 776 752 864 647 q 531 858 689 858 m 1818 561 l 1717 561 q 1667 618 1710 618 q 1595 526 1626 618 l 1327 -278 l 1211 -278 l 1308 -16 l 1043 694 l 1165 694 l 1341 189 q 1365 92 1360 134 l 1368 92 q 1390 187 1372 129 l 1505 568 q 1669 710 1549 710 q 1818 561 1804 710 m 1822 988 l 1822 988 "},"ο":{"x_min":65.109375,"x_max":748.765625,"ha":814,"o":"m 402 -16 q 157 81 248 -16 q 65 339 65 178 q 160 612 65 514 q 419 710 256 710 q 661 615 574 710 q 748 349 748 519 q 654 83 748 183 q 402 -16 560 -16 m 411 617 q 241 544 303 617 q 179 343 179 471 q 242 148 179 219 q 411 77 305 77 q 576 147 518 77 q 634 345 634 217 q 576 546 634 476 q 411 617 518 617 "},"Ḛ":{"x_min":127.5,"x_max":642.953125,"ha":703,"o":"m 642 0 l 127 0 l 127 972 l 621 972 l 621 869 l 241 869 l 241 545 l 592 545 l 592 443 l 241 443 l 241 103 l 642 103 l 642 0 m 600 -69 q 567 -185 600 -140 q 479 -230 535 -230 q 369 -195 431 -230 q 289 -166 317 -166 q 229 -242 229 -166 l 165 -242 q 198 -126 165 -170 q 289 -82 230 -82 q 390 -117 333 -82 q 477 -147 440 -147 q 534 -69 534 -147 l 600 -69 "},"ϭ":{"x_min":65.109375,"x_max":748.765625,"ha":814,"o":"m 669 1045 l 669 951 q 577 940 631 940 q 522 942 561 940 q 451 945 483 945 q 267 857 335 945 q 183 592 200 769 l 185 592 q 425 710 273 710 q 661 614 575 710 q 748 349 748 518 q 653 84 748 184 q 400 -16 558 -16 q 152 100 239 -16 q 65 433 65 216 q 163 890 65 737 q 457 1043 261 1043 q 525 1040 478 1043 q 592 1037 572 1037 q 669 1045 638 1037 m 181 481 q 179 401 179 437 q 239 166 179 255 q 406 77 299 77 q 575 147 515 77 q 634 345 634 217 q 574 547 634 478 q 402 617 513 617 q 275 578 335 617 q 181 481 214 540 "},"ϲ":{"x_min":65.109375,"x_max":587.34375,"ha":642,"o":"m 585 31 q 396 -16 505 -16 q 156 80 247 -16 q 65 330 65 177 q 163 606 65 502 q 425 710 261 710 q 587 676 517 710 l 587 562 q 421 617 510 617 q 247 540 315 617 q 179 340 179 464 q 243 147 179 218 q 415 77 307 77 q 585 137 505 77 l 585 31 "},"Ӭ":{"x_min":70.53125,"x_max":792.171875,"ha":856,"o":"m 70 40 l 70 151 q 329 86 177 86 q 567 178 474 86 q 670 433 659 269 l 240 433 l 240 535 l 669 535 q 559 793 651 701 q 320 885 467 885 q 70 827 183 885 l 70 946 q 320 988 174 988 q 661 848 530 988 q 792 472 792 707 q 666 119 792 255 q 335 -16 540 -16 q 70 40 178 -16 m 493 1063 q 446 1082 466 1063 q 427 1130 427 1101 q 446 1177 427 1158 q 492 1196 465 1196 q 540 1177 520 1196 q 560 1130 560 1158 q 541 1082 560 1102 q 493 1063 522 1063 m 233 1063 q 184 1083 204 1063 q 164 1130 164 1103 q 184 1177 164 1158 q 231 1196 203 1196 q 279 1177 259 1196 q 299 1130 299 1158 q 280 1082 299 1102 q 233 1063 260 1063 "},"ʦ":{"x_min":29.15625,"x_max":794.875,"ha":852,"o":"m 148 599 l 29 599 l 29 694 l 148 694 l 148 864 l 259 900 l 259 694 l 511 694 q 615 710 558 710 q 765 679 699 710 l 765 567 q 607 617 697 617 q 518 590 551 617 q 486 520 486 563 q 510 453 486 478 q 617 393 534 427 q 756 302 717 349 q 794 188 794 255 q 713 41 794 99 q 469 -16 631 -16 q 223 53 299 -16 q 148 268 148 122 l 148 599 m 396 599 l 259 599 l 259 276 q 313 123 259 170 q 474 77 367 77 q 680 185 680 77 q 650 249 680 224 q 538 307 620 275 q 408 393 444 345 q 372 511 372 440 q 396 599 372 560 "},"῭":{"x_min":174.984375,"x_max":638.890625,"ha":814,"o":"m 477 796 l 413 796 l 294 1041 l 408 1041 l 477 796 m 571 820 q 524 838 543 820 q 505 885 505 857 q 524 933 505 914 q 571 952 543 952 q 618 933 598 952 q 638 885 638 914 q 619 839 638 858 q 571 820 599 820 m 241 820 q 194 839 214 820 q 174 885 174 857 q 194 933 174 914 q 241 952 214 952 q 289 933 269 952 q 309 885 309 914 q 289 839 309 858 q 241 820 269 820 "},"ђ":{"x_min":26.453125,"x_max":708.0625,"ha":802,"o":"m 318 -263 l 318 -157 q 402 -181 363 -181 q 548 -80 501 -181 q 595 262 595 21 q 417 598 595 598 q 282 534 337 598 q 227 377 227 471 l 227 0 l 116 0 l 116 815 l 26 815 l 26 906 l 116 906 l 116 1028 l 227 1028 l 227 906 l 454 906 l 454 815 l 227 815 l 227 561 l 230 561 q 444 693 301 693 q 708 263 708 693 q 633 -151 708 -22 q 401 -280 559 -280 q 318 -263 362 -280 "},"ϕ":{"x_min":65.109375,"x_max":820.65625,"ha":886,"o":"m 498 -16 l 498 -319 l 387 -319 l 387 -16 q 151 93 238 -4 q 65 343 65 191 q 153 597 65 499 q 387 710 241 695 l 387 1028 l 498 1028 l 498 710 q 735 602 649 699 q 820 349 820 505 q 733 96 820 196 q 498 -16 645 -2 m 498 617 l 498 77 q 652 160 598 89 q 706 347 706 230 q 652 534 706 463 q 498 617 598 604 m 387 77 l 387 617 q 234 533 289 604 q 179 345 179 462 q 234 161 179 233 q 387 77 289 90 "},"y":{"x_min":9.5,"x_max":665.34375,"ha":672,"o":"m 665 694 l 345 -111 q 105 -326 260 -326 q 33 -318 62 -326 l 33 -218 q 99 -230 69 -230 q 225 -130 183 -230 l 280 1 l 9 694 l 132 694 l 320 160 q 335 107 324 149 l 339 107 q 352 158 342 123 l 550 694 l 665 694 "},"‗":{"x_min":0,"x_max":576.484375,"ha":576,"o":"m 0 -201 l 0 -120 l 576 -120 l 576 -201 l 0 -201 m 0 -392 l 0 -311 l 576 -311 l 576 -392 l 0 -392 "},"ḓ":{"x_min":65.109375,"x_max":705.359375,"ha":818,"o":"m 705 0 l 594 0 l 594 118 l 591 118 q 352 -16 514 -16 q 143 76 221 -16 q 65 330 65 170 q 151 607 65 503 q 383 710 238 710 q 591 598 526 710 l 594 598 l 594 1028 l 705 1028 l 705 0 m 594 314 l 594 416 q 538 558 594 500 q 397 617 482 617 q 237 542 295 617 q 179 336 179 467 q 235 146 179 216 q 385 77 290 77 q 536 144 478 77 q 594 314 594 211 m 596 -304 l 514 -304 l 402 -148 l 291 -304 l 214 -304 l 360 -79 l 450 -79 l 596 -304 "},"ƅ":{"x_min":22.375,"x_max":751.46875,"ha":817,"o":"m 225 100 l 222 100 l 222 0 l 112 0 l 112 826 l 22 904 l 22 919 l 206 1028 l 222 1028 l 222 572 l 225 572 q 465 710 307 710 q 675 618 598 710 q 751 367 751 525 q 666 88 751 193 q 433 -16 581 -16 q 225 100 298 -16 m 222 380 l 222 283 q 278 137 222 197 q 420 77 333 77 q 579 153 520 77 q 637 363 637 229 q 583 549 637 482 q 437 617 530 617 q 281 549 340 617 q 222 380 222 482 "},"ë":{"x_min":65.109375,"x_max":670.765625,"ha":726,"o":"m 670 319 l 180 319 q 242 140 183 203 q 406 77 302 77 q 622 154 524 77 l 622 50 q 380 -16 531 -16 q 149 78 233 -16 q 65 344 65 172 q 157 608 65 506 q 385 710 248 710 q 596 622 521 710 q 670 377 670 534 l 670 319 m 556 413 q 510 563 556 510 q 383 617 464 617 q 249 560 304 617 q 181 413 194 504 l 556 413 m 505 826 q 458 845 478 826 q 439 893 439 864 q 458 940 439 921 q 504 959 477 959 q 552 940 532 959 q 572 893 572 921 q 553 845 572 865 q 505 826 534 826 m 245 826 q 196 846 216 826 q 176 893 176 866 q 196 940 176 921 q 243 959 215 959 q 291 940 271 959 q 311 893 311 921 q 292 845 311 865 q 245 826 272 826 "},"б":{"x_min":80.703125,"x_max":737.90625,"ha":804,"o":"m 649 1036 l 649 931 q 560 901 621 911 q 346 856 407 878 q 247 765 286 835 q 197 561 208 695 l 200 561 q 432 679 281 679 q 653 585 569 679 q 737 336 737 491 q 650 80 737 177 q 413 -16 562 -16 q 167 97 253 -16 q 80 421 80 210 q 111 700 80 585 q 198 872 143 814 q 321 951 253 929 q 552 1002 388 973 q 649 1036 617 1017 m 196 451 l 196 355 q 212 248 196 301 q 257 156 227 196 q 325 96 286 116 q 416 77 365 77 q 566 146 509 77 q 623 324 623 216 q 565 514 623 444 q 406 584 506 584 q 196 451 267 584 "},"ȟ":{"x_min":112.578125,"x_max":689.078125,"ha":786,"o":"m 689 0 l 577 0 l 577 400 q 416 617 577 617 q 279 554 335 617 q 223 393 223 491 l 223 0 l 112 0 l 112 1028 l 223 1028 l 223 579 l 226 579 q 454 710 306 710 q 689 427 689 710 l 689 0 m 537 1281 l 392 1058 l 302 1058 l 156 1281 l 234 1281 l 345 1126 l 456 1281 l 537 1281 "},"Ẏ":{"x_min":12.203125,"x_max":759.609375,"ha":768,"o":"m 759 972 l 438 359 l 438 0 l 324 0 l 324 356 l 12 972 l 141 972 l 359 533 q 383 473 363 524 l 385 473 q 411 533 392 496 l 638 972 l 759 972 m 383 1063 q 336 1082 356 1063 q 316 1130 316 1101 q 335 1176 316 1157 q 383 1195 355 1195 q 430 1176 411 1195 q 449 1130 449 1158 q 430 1082 449 1102 q 383 1063 411 1063 "},"ṝ":{"x_min":112.578125,"x_max":474.75,"ha":483,"o":"m 474 581 q 390 604 445 604 q 271 537 319 604 q 223 354 223 470 l 223 0 l 112 0 l 112 694 l 223 694 l 223 551 l 226 551 q 299 665 250 624 q 408 706 347 706 q 474 697 451 706 l 474 581 m 459 826 l 115 826 l 115 900 l 459 900 l 459 826 m 292 -212 q 244 -193 264 -212 q 225 -145 225 -173 q 245 -99 225 -118 q 292 -80 265 -80 q 339 -99 320 -80 q 359 -145 359 -118 q 339 -193 359 -173 q 292 -212 320 -212 "},"ӌ":{"x_min":103.09375,"x_max":672.125,"ha":785,"o":"m 672 0 l 552 0 l 552 -183 l 458 -183 l 458 94 l 561 94 l 561 279 q 336 212 439 212 q 103 459 103 212 l 103 694 l 214 694 l 214 465 q 345 312 214 312 q 561 370 446 312 l 561 694 l 672 694 l 672 0 "},"Ȥ":{"x_min":22.375,"x_max":777.921875,"ha":792,"o":"m 755 -165 l 644 -165 q 670 -77 670 -118 q 572 0 670 0 l 22 0 l 22 31 l 587 869 l 67 869 l 67 972 l 762 972 l 762 945 l 192 103 l 580 103 q 777 -67 777 103 q 755 -165 777 -115 "},"ʋ":{"x_min":97.671875,"x_max":709.421875,"ha":775,"o":"m 97 694 l 208 694 l 208 295 q 389 77 208 77 q 542 151 489 77 q 596 356 596 225 q 564 550 596 482 q 473 618 531 618 q 397 599 433 618 l 397 693 q 493 710 439 710 q 652 615 594 710 q 709 360 709 520 q 622 86 709 189 q 381 -16 535 -16 q 97 286 97 -16 l 97 694 "},"ц":{"x_min":112.578125,"x_max":792.171875,"ha":834,"o":"m 792 -183 l 695 -183 l 695 0 l 112 0 l 112 694 l 223 694 l 223 94 l 577 94 l 577 694 l 689 694 l 689 94 l 792 94 l 792 -183 "},"w":{"x_min":16.28125,"x_max":987.5,"ha":1004,"o":"m 987 694 l 779 0 l 663 0 l 520 497 q 510 561 512 525 l 507 561 q 493 498 505 537 l 337 0 l 226 0 l 16 694 l 132 694 l 276 172 q 286 109 283 148 l 291 109 q 303 173 293 139 l 463 694 l 565 694 l 709 170 q 719 108 716 145 l 725 108 q 736 170 726 134 l 877 694 l 987 694 "},"Ԅ":{"x_min":27.8125,"x_max":1034.96875,"ha":1118,"o":"m 1034 272 q 963 60 1034 136 q 763 -16 892 -16 q 563 63 638 -16 q 484 268 488 143 q 231 455 478 455 l 130 455 l 130 550 l 223 550 q 391 597 331 550 q 450 729 450 644 q 400 846 450 803 q 265 890 351 890 q 27 813 143 890 l 27 929 q 275 988 134 988 q 493 922 413 988 q 572 750 572 856 q 387 511 572 560 l 387 508 q 605 275 595 482 q 765 86 613 86 q 921 280 921 86 l 921 560 l 1034 560 l 1034 272 "},"о":{"x_min":65.109375,"x_max":748.765625,"ha":814,"o":"m 402 -16 q 157 81 248 -16 q 65 339 65 178 q 160 612 65 514 q 419 710 256 710 q 661 615 574 710 q 748 349 748 519 q 654 83 748 183 q 402 -16 560 -16 m 411 617 q 241 544 303 617 q 179 343 179 471 q 242 148 179 219 q 411 77 305 77 q 576 147 518 77 q 634 345 634 217 q 576 546 634 476 q 411 617 518 617 "},"Д":{"x_min":16.28125,"x_max":923.734375,"ha":970,"o":"m 923 -219 l 824 -219 l 824 0 l 115 0 l 115 -219 l 16 -219 l 16 103 l 105 103 q 260 511 197 269 q 332 972 324 753 l 793 972 l 793 103 l 923 103 l 923 -219 m 679 103 l 679 869 l 432 869 q 366 486 425 709 q 229 103 308 263 l 679 103 "},"Ϡ":{"x_min":0,"x_max":784.703125,"ha":849,"o":"m 691 0 l 565 0 q 668 400 668 174 q 658 520 668 459 l 363 291 l 306 364 l 634 622 q 579 740 613 687 l 227 466 l 169 539 l 516 812 q 312 885 432 885 q 0 737 139 885 l 0 869 q 318 988 142 988 q 658 824 532 988 q 784 412 784 659 q 691 0 784 198 "},"ӣ":{"x_min":112.578125,"x_max":694.5,"ha":807,"o":"m 694 0 l 594 0 l 594 554 q 548 472 579 524 l 227 0 l 112 0 l 112 694 l 214 694 l 214 147 q 249 214 222 166 l 579 694 l 694 694 l 694 0 m 580 826 l 236 826 l 236 900 l 580 900 l 580 826 "},"Ḯ":{"x_min":-11.21875,"x_max":384.1875,"ha":370,"o":"m 241 0 l 127 0 l 127 972 l 241 972 l 241 0 m 131 1190 l 253 1357 l 367 1357 l 218 1190 l 131 1190 m 317 1062 q 270 1081 290 1062 q 251 1129 251 1100 q 270 1177 251 1157 q 316 1196 289 1196 q 364 1176 344 1196 q 384 1129 384 1157 q 365 1081 384 1101 q 317 1062 346 1062 m 57 1062 q 8 1082 28 1062 q -11 1129 -11 1102 q 8 1177 -11 1157 q 55 1196 28 1196 q 103 1176 83 1196 q 123 1129 123 1157 q 104 1081 123 1101 q 57 1062 84 1062 "},"Ӂ":{"x_min":-14.921875,"x_max":1216.734375,"ha":1204,"o":"m 1216 0 l 1064 0 l 683 444 q 658 478 667 463 l 655 478 l 655 0 l 547 0 l 547 478 l 544 478 q 519 444 534 461 l 139 0 l -14 0 l 430 504 l 14 972 l 154 972 l 519 551 q 544 518 534 534 l 547 518 l 547 972 l 655 972 l 655 518 l 658 518 q 683 551 667 533 l 1048 972 l 1187 972 l 771 504 l 1216 0 m 787 1232 q 727 1109 780 1156 q 598 1062 674 1062 q 468 1108 518 1062 q 415 1232 418 1155 l 482 1232 q 599 1127 491 1127 q 678 1156 645 1127 q 718 1232 711 1184 l 787 1232 "},"Ḁ":{"x_min":14.921875,"x_max":880.328125,"ha":896,"o":"m 880 0 l 754 0 l 651 272 l 238 272 l 141 0 l 14 0 l 387 972 l 505 972 l 880 0 m 613 375 l 461 789 q 446 854 453 809 l 443 854 q 427 789 436 813 l 276 375 l 613 375 m 445 -344 q 347 -308 386 -344 q 308 -215 308 -273 q 348 -117 308 -154 q 450 -81 388 -81 q 549 -117 510 -81 q 588 -211 588 -154 q 546 -306 588 -268 q 445 -344 505 -344 m 445 -136 q 391 -158 413 -136 q 369 -212 369 -180 q 445 -288 369 -288 q 501 -267 479 -288 q 524 -212 524 -245 q 501 -157 524 -179 q 445 -136 479 -136 "},"Ὁ":{"x_min":-45.09375,"x_max":1052.421875,"ha":1116,"o":"m 588 -16 q 257 120 381 -16 q 132 474 132 256 q 259 849 132 709 q 604 988 386 988 q 929 853 806 988 q 1052 498 1052 717 q 926 122 1052 260 q 588 -16 800 -16 m 596 885 q 347 775 443 885 q 252 484 252 664 q 345 195 252 305 q 588 86 438 86 q 840 190 748 86 q 933 482 933 295 q 843 780 933 675 q 596 885 754 885 m 115 731 l 87 688 q -6 772 31 716 q -45 889 -45 829 q -21 952 -45 927 q 37 976 1 976 q 87 956 67 976 q 106 907 106 937 q 33 840 106 844 q 115 731 44 769 "},"ɫ":{"x_min":-13.5625,"x_max":402.859375,"ha":389,"o":"m 402 494 q 297 455 356 455 q 245 462 273 455 l 245 0 l 134 0 l 134 494 q 87 503 103 503 q -13 455 35 503 l -13 556 q 91 596 33 596 q 134 591 111 596 l 134 1028 l 245 1028 l 245 558 q 301 550 276 550 q 402 596 354 550 l 402 494 "},"Ĵ":{"x_min":13.5625,"x_max":510.921875,"ha":496,"o":"m 376 348 q 303 79 376 175 q 107 -16 229 -16 q 13 0 50 -16 l 13 112 q 108 86 50 86 q 262 347 262 86 l 262 972 l 376 972 l 376 348 m 510 1062 l 428 1062 l 316 1218 l 205 1062 l 128 1062 l 274 1287 l 364 1287 l 510 1062 "},"Ẻ":{"x_min":127.5,"x_max":642.953125,"ha":703,"o":"m 642 0 l 127 0 l 127 972 l 621 972 l 621 869 l 241 869 l 241 545 l 592 545 l 592 443 l 241 443 l 241 103 l 642 103 l 642 0 m 297 1301 q 352 1304 323 1304 q 450 1275 411 1304 q 488 1199 488 1247 q 462 1129 488 1157 q 397 1095 436 1100 l 397 1062 l 324 1062 l 324 1140 q 400 1191 400 1140 q 336 1234 400 1234 q 297 1228 325 1234 l 297 1301 "},"Ҕ":{"x_min":127.5,"x_max":729.09375,"ha":789,"o":"m 128 -226 l 128 -101 q 344 -174 240 -174 q 541 -99 472 -174 q 609 113 609 -23 q 523 357 609 258 q 288 457 437 457 l 241 457 l 241 0 l 127 0 l 127 972 l 615 972 l 615 868 l 241 868 l 241 560 l 291 560 q 610 437 491 560 q 729 118 729 315 q 629 -165 729 -53 q 347 -278 529 -278 q 128 -226 229 -278 "},"ô":{"x_min":65.109375,"x_max":748.765625,"ha":814,"o":"m 402 -16 q 157 81 248 -16 q 65 339 65 178 q 160 612 65 514 q 419 710 256 710 q 661 615 574 710 q 748 349 748 519 q 654 83 748 183 q 402 -16 560 -16 m 411 617 q 241 544 303 617 q 179 343 179 471 q 242 148 179 219 q 411 77 305 77 q 576 147 518 77 q 634 345 634 217 q 576 546 634 476 q 411 617 518 617 m 599 826 l 517 826 l 405 982 l 294 826 l 217 826 l 363 1051 l 453 1051 l 599 826 "},"ҝ":{"x_min":112.578125,"x_max":686.359375,"ha":688,"o":"m 686 0 l 531 0 l 340 208 l 340 77 l 288 77 l 288 263 l 226 332 l 223 332 l 223 0 l 112 0 l 112 694 l 223 694 l 223 377 l 226 377 l 288 446 l 288 607 l 340 607 l 340 501 l 518 694 l 665 694 l 341 358 l 686 0 "},"г":{"x_min":112.578125,"x_max":498.5,"ha":532,"o":"m 498 599 l 223 599 l 223 0 l 112 0 l 112 694 l 498 694 l 498 599 "},"ấ":{"x_min":61.046875,"x_max":750.546875,"ha":707,"o":"m 609 0 l 498 0 l 498 108 l 495 108 q 282 -16 423 -16 q 119 38 178 -16 q 61 184 61 93 q 290 411 61 379 l 498 440 q 355 617 498 617 q 128 531 229 617 l 128 645 q 364 710 231 710 q 609 451 609 710 l 609 0 m 498 351 l 330 328 q 214 289 253 317 q 174 192 174 262 q 211 109 174 141 q 307 77 247 77 q 444 135 390 77 q 498 282 498 193 l 498 351 m 514 929 l 636 1096 l 750 1096 l 600 929 l 514 929 m 559 826 l 477 826 l 365 926 l 253 826 l 176 826 l 323 995 l 412 995 l 559 826 "},"Ŀ":{"x_min":127.5,"x_max":632.109375,"ha":654,"o":"m 632 0 l 127 0 l 127 972 l 241 972 l 241 103 l 632 103 l 632 0 m 499 452 q 452 471 472 452 q 432 519 432 490 q 451 565 432 546 q 499 584 471 584 q 546 565 527 584 q 565 519 565 547 q 546 471 565 491 q 499 452 527 452 "},"ᾄ":{"x_min":67.828125,"x_max":824.71875,"ha":859,"o":"m 824 694 l 687 352 q 792 0 698 309 l 677 0 l 625 211 l 622 211 q 504 35 568 86 q 348 -16 441 -16 q 145 77 223 -16 q 67 326 67 171 q 154 605 67 500 q 388 710 242 710 q 641 493 569 710 l 644 493 l 708 694 l 824 694 m 592 352 q 508 557 556 495 q 389 618 460 618 q 239 539 297 618 q 181 333 181 460 q 232 150 181 219 q 362 81 283 81 q 580 321 493 81 l 592 352 m 276 793 l 256 834 q 335 915 319 862 q 279 933 301 915 q 257 982 257 952 q 276 1027 257 1009 q 324 1045 294 1045 q 404 963 404 1045 q 276 793 404 849 m 633 1041 l 514 796 l 450 796 l 519 1041 l 633 1041 m 576 -249 q 477 -303 535 -303 q 393 -275 426 -303 q 361 -200 361 -247 l 361 -80 l 445 -80 l 445 -206 q 491 -252 445 -252 q 546 -223 519 -252 l 576 -249 "},"ᾙ":{"x_min":-45.09375,"x_max":945.625,"ha":1074,"o":"m 945 0 l 831 0 l 831 443 l 328 443 l 328 0 l 214 0 l 214 972 l 328 972 l 328 545 l 831 545 l 831 972 l 945 972 l 945 0 m 115 731 l 87 688 q -6 772 31 716 q -45 889 -45 829 q -21 952 -45 927 q 37 976 1 976 q 87 956 67 976 q 106 907 106 937 q 33 840 106 844 q 115 731 44 769 m 752 -249 q 653 -303 711 -303 q 569 -275 602 -303 q 537 -200 537 -247 l 537 -80 l 621 -80 l 621 -206 q 667 -252 621 -252 q 722 -223 695 -252 l 752 -249 "},"Ἇ":{"x_min":-45.78125,"x_max":1014.328125,"ha":1030,"o":"m 1014 0 l 888 0 l 785 272 l 372 272 l 275 0 l 148 0 l 521 972 l 639 972 l 1014 0 m 747 375 l 595 789 q 580 854 587 809 l 577 854 q 561 789 570 813 l 410 375 l 747 375 m 351 849 l 280 849 q 152 923 251 923 q 25 849 53 923 l -45 849 q 25 951 -28 914 q 152 988 79 988 q 280 951 226 988 q 351 849 334 914 m 155 723 q 216 669 159 684 l 203 633 q 83 756 83 658 q 104 811 83 789 q 158 833 125 833 q 219 777 219 833 q 155 723 219 723 "},"Ἃ":{"x_min":-44.25,"x_max":1014.328125,"ha":1030,"o":"m 1014 0 l 888 0 l 785 272 l 372 272 l 275 0 l 148 0 l 521 972 l 639 972 l 1014 0 m 747 375 l 595 789 q 580 854 587 809 l 577 854 q 561 789 570 813 l 410 375 l 747 375 m 103 763 l 81 722 q -44 892 -44 776 q 35 974 -44 974 q 83 956 65 974 q 102 911 102 938 q 80 862 102 881 q 24 844 58 844 q 103 763 41 791 m 330 725 l 267 725 l 148 970 l 262 970 l 330 725 "},"ṇ":{"x_min":112.578125,"x_max":689.078125,"ha":786,"o":"m 689 0 l 577 0 l 577 396 q 416 617 577 617 q 278 554 333 617 q 223 396 223 491 l 223 0 l 112 0 l 112 694 l 223 694 l 223 579 l 226 579 q 454 710 305 710 q 628 637 568 710 q 689 424 689 563 l 689 0 m 407 -212 q 359 -193 379 -212 q 340 -145 340 -173 q 360 -99 340 -118 q 407 -80 380 -80 q 454 -99 435 -80 q 474 -145 474 -118 q 454 -193 474 -173 q 407 -212 435 -212 "},"ʟ":{"x_min":112.578125,"x_max":515.453125,"ha":534,"o":"m 515 0 l 112 0 l 112 694 l 223 694 l 223 94 l 515 94 l 515 0 "},"Ǟ":{"x_min":14.921875,"x_max":880.328125,"ha":896,"o":"m 880 0 l 754 0 l 651 272 l 238 272 l 141 0 l 14 0 l 387 972 l 505 972 l 880 0 m 613 375 l 461 789 q 446 854 453 809 l 443 854 q 427 789 436 813 l 276 375 l 613 375 m 614 1246 l 269 1246 l 269 1320 l 614 1320 l 614 1246 m 572 1065 q 525 1084 545 1065 q 505 1132 505 1103 q 525 1179 505 1160 q 570 1198 544 1198 q 619 1179 599 1198 q 639 1132 639 1160 q 619 1084 639 1104 q 572 1065 600 1065 m 311 1065 q 263 1084 283 1065 q 243 1132 243 1103 q 262 1179 243 1160 q 310 1198 281 1198 q 358 1179 338 1198 q 378 1132 378 1160 q 358 1084 378 1104 q 311 1065 339 1065 "},"ь":{"x_min":112.578125,"x_max":642.953125,"ha":700,"o":"m 112 0 l 112 694 l 223 694 l 223 427 l 411 427 q 580 372 517 427 q 642 217 642 316 q 579 58 642 116 q 420 0 516 0 l 112 0 m 223 332 l 223 94 l 390 94 q 529 217 529 94 q 389 332 529 332 l 223 332 "},"Җ":{"x_min":-14.921875,"x_max":1222.15625,"ha":1264,"o":"m 1222 -219 l 1125 -219 l 1125 0 l 1064 0 l 683 444 q 658 478 667 463 l 655 478 l 655 0 l 547 0 l 547 478 l 544 478 q 519 444 534 461 l 139 0 l -14 0 l 430 504 l 14 972 l 154 972 l 519 551 q 544 518 534 534 l 547 518 l 547 972 l 655 972 l 655 518 l 658 518 q 683 551 667 533 l 1048 972 l 1187 972 l 771 504 l 1127 101 l 1222 101 l 1222 -219 "},"ὑ":{"x_min":106.734375,"x_max":725.265625,"ha":806,"o":"m 106 694 l 216 694 l 216 312 q 268 140 216 200 q 415 81 320 81 q 561 141 508 81 q 613 310 613 201 q 513 694 613 513 l 637 694 q 725 315 725 524 q 640 72 725 162 q 415 -16 555 -16 q 188 65 269 -16 q 106 293 106 146 l 106 694 m 416 820 l 388 777 q 294 861 332 805 q 255 978 255 918 q 279 1041 255 1016 q 338 1065 302 1065 q 388 1045 368 1065 q 407 996 407 1026 q 334 929 407 933 q 416 820 345 858 "},"€":{"x_min":69.171875,"x_max":687.71875,"ha":749,"o":"m 687 33 q 496 -16 597 -16 q 151 326 206 -16 l 69 326 l 69 421 l 142 421 q 139 474 139 442 q 143 547 139 506 l 69 547 l 69 642 l 158 642 q 288 896 192 805 q 521 988 384 988 q 687 950 614 988 l 687 841 q 514 893 610 893 q 363 825 429 893 q 270 642 297 757 l 607 642 l 607 547 l 255 547 q 255 421 250 480 l 607 421 l 607 326 l 265 326 q 503 78 314 78 q 687 137 592 78 l 687 33 "},"ƶ":{"x_min":22.375,"x_max":596.84375,"ha":628,"o":"m 596 662 l 409 404 l 537 404 l 537 309 l 341 309 l 185 94 l 592 94 l 592 0 l 22 0 l 22 34 l 222 309 l 108 309 l 108 404 l 290 404 l 433 599 l 61 599 l 61 694 l 596 694 l 596 662 "},"Ὦ":{"x_min":-45.78125,"x_max":1262.75,"ha":1328,"o":"m 1262 0 l 910 0 l 910 99 q 1144 529 1144 272 q 1050 791 1144 695 q 807 888 956 888 q 561 792 657 888 q 465 529 465 695 q 700 99 465 273 l 700 0 l 347 0 l 347 100 l 583 99 q 347 532 347 259 q 473 866 347 744 q 803 988 598 988 q 1137 867 1013 988 q 1262 533 1262 746 q 1027 99 1262 260 l 1262 100 l 1262 0 m 351 849 l 280 849 q 152 923 251 923 q 25 849 53 923 l -45 849 q 25 951 -28 914 q 152 988 79 988 q 280 951 226 988 q 351 849 334 914 m 109 633 l 94 669 q 157 723 152 684 q 91 777 91 723 q 152 833 91 833 q 206 811 185 833 q 227 756 227 789 q 109 633 227 658 "},"Ἀ":{"x_min":14.921875,"x_max":880.328125,"ha":896,"o":"m 880 0 l 754 0 l 651 272 l 238 272 l 141 0 l 14 0 l 387 972 l 505 972 l 880 0 m 613 375 l 461 789 q 446 854 453 809 l 443 854 q 427 789 436 813 l 276 375 l 613 375 m 49 688 l 23 731 q 104 840 93 769 q 51 860 72 841 q 30 907 30 879 q 49 956 30 937 q 99 976 69 976 q 158 951 135 976 q 182 889 182 926 q 143 773 182 829 q 49 688 104 716 "},"С":{"x_min":63.75,"x_max":789.453125,"ha":860,"o":"m 789 40 q 520 -16 681 -16 q 188 117 313 -16 q 63 467 63 250 q 204 845 63 701 q 560 988 344 988 q 789 948 698 988 l 789 827 q 558 885 685 885 q 287 773 391 885 q 183 474 183 661 q 280 191 183 297 q 535 86 377 86 q 789 151 682 86 l 789 40 "},"ß":{"x_min":112.578125,"x_max":708.0625,"ha":756,"o":"m 312 1 l 312 109 q 427 77 363 77 q 548 127 501 77 q 594 261 594 177 q 526 426 594 362 q 337 503 458 489 l 337 591 q 469 661 417 604 q 520 794 520 717 q 483 908 520 868 q 380 948 446 948 q 223 739 223 948 l 223 0 l 112 0 l 112 755 q 187 964 112 885 q 387 1043 261 1043 q 567 978 500 1043 q 634 808 634 914 q 583 653 634 722 q 451 558 533 585 l 451 555 q 708 266 708 504 q 632 65 708 146 q 433 -16 557 -16 q 312 1 364 -16 "},"ǩ":{"x_min":112.578125,"x_max":689.078125,"ha":690,"o":"m 689 0 l 533 0 l 226 333 l 223 333 l 223 0 l 112 0 l 112 1028 l 223 1028 l 223 376 l 226 376 l 518 694 l 663 694 l 341 359 l 689 0 m 537 1281 l 392 1058 l 302 1058 l 156 1281 l 234 1281 l 345 1126 l 456 1281 l 537 1281 "},"Ӓ":{"x_min":14.921875,"x_max":880.328125,"ha":896,"o":"m 880 0 l 754 0 l 651 272 l 238 272 l 141 0 l 14 0 l 387 972 l 505 972 l 880 0 m 613 375 l 461 789 q 446 854 453 809 l 443 854 q 427 789 436 813 l 276 375 l 613 375 m 569 1061 q 522 1080 542 1061 q 503 1128 503 1099 q 522 1175 503 1156 q 568 1194 541 1194 q 616 1175 596 1194 q 636 1128 636 1156 q 617 1080 636 1100 q 569 1061 598 1061 m 309 1061 q 260 1081 280 1061 q 240 1128 240 1101 q 260 1175 240 1156 q 307 1194 279 1194 q 355 1175 335 1194 q 375 1128 375 1156 q 356 1080 375 1100 q 309 1061 336 1061 "},"Ὕ":{"x_min":-44.390625,"x_max":1126.609375,"ha":1137,"o":"m 1126 972 l 805 359 l 805 0 l 691 0 l 691 356 l 379 972 l 508 972 l 726 533 q 750 473 730 524 l 752 473 q 778 533 759 496 l 1005 972 l 1126 972 m 103 763 l 83 722 q -44 892 -44 778 q 35 974 -44 974 q 83 956 65 974 q 102 911 102 938 q 80 862 102 881 q 24 844 58 844 q 103 763 40 791 m 348 970 l 228 725 l 164 725 l 234 970 l 348 970 "},"ẳ":{"x_min":61.046875,"x_max":609.71875,"ha":707,"o":"m 609 0 l 498 0 l 498 108 l 495 108 q 282 -16 423 -16 q 119 38 178 -16 q 61 184 61 93 q 290 411 61 379 l 498 440 q 355 617 498 617 q 128 531 229 617 l 128 645 q 364 710 231 710 q 609 451 609 710 l 609 0 m 498 351 l 330 328 q 214 289 253 317 q 174 192 174 262 q 211 109 174 141 q 307 77 247 77 q 444 135 390 77 q 498 282 498 193 l 498 351 m 294 1219 q 347 1222 319 1222 q 446 1193 409 1222 q 484 1116 484 1165 q 457 1047 484 1075 q 393 1013 430 1018 l 393 980 l 320 980 l 320 1058 q 396 1109 396 1058 q 332 1152 396 1152 q 294 1147 321 1152 l 294 1219 m 552 996 q 492 873 545 920 q 363 826 439 826 q 233 872 283 826 q 180 996 183 919 l 247 996 q 364 906 255 906 q 483 996 471 906 l 552 996 "},"Ű":{"x_min":115.296875,"x_max":838.96875,"ha":954,"o":"m 838 393 q 469 -16 838 -16 q 115 377 115 -16 l 115 972 l 229 972 l 229 385 q 481 86 229 86 q 725 375 725 86 l 725 972 l 838 972 l 838 393 m 711 1277 l 545 1062 l 479 1062 l 621 1277 l 711 1277 m 544 1277 l 381 1062 l 316 1062 l 456 1277 l 544 1277 "},"¶":{"x_min":56.96875,"x_max":565.640625,"ha":636,"o":"m 565 902 l 478 902 l 478 0 l 406 0 l 406 902 l 299 902 l 299 0 l 226 0 l 226 612 q 105 663 153 612 q 56 793 56 715 q 107 922 56 872 q 230 972 158 972 l 565 972 l 565 902 "},"Ή":{"x_min":-40.28125,"x_max":946.625,"ha":1075,"o":"m 946 0 l 832 0 l 832 443 l 329 443 l 329 0 l 215 0 l 215 972 l 329 972 l 329 545 l 832 545 l 832 972 l 946 972 l 946 0 m 142 972 l 23 726 l -40 726 l 28 972 l 142 972 "},"Ὅ":{"x_min":-44.390625,"x_max":1260.421875,"ha":1324,"o":"m 796 -16 q 465 120 589 -16 q 340 474 340 256 q 467 849 340 709 q 812 988 594 988 q 1137 853 1014 988 q 1260 498 1260 717 q 1134 122 1260 260 q 796 -16 1008 -16 m 804 885 q 555 775 651 885 q 460 484 460 664 q 553 195 460 305 q 796 86 646 86 q 1048 190 956 86 q 1141 482 1141 295 q 1051 780 1141 675 q 804 885 962 885 m 103 763 l 83 722 q -44 892 -44 778 q 35 974 -44 974 q 83 956 65 974 q 102 911 102 938 q 80 862 102 881 q 24 844 58 844 q 103 763 40 791 m 348 970 l 228 725 l 164 725 l 234 970 l 348 970 "},"Ụ":{"x_min":115.296875,"x_max":838.96875,"ha":954,"o":"m 838 393 q 469 -16 838 -16 q 115 377 115 -16 l 115 972 l 229 972 l 229 385 q 481 86 229 86 q 725 375 725 86 l 725 972 l 838 972 l 838 393 m 474 -212 q 426 -193 446 -212 q 407 -145 407 -173 q 427 -99 407 -118 q 474 -80 447 -80 q 521 -99 502 -80 q 541 -145 541 -118 q 521 -193 541 -173 q 474 -212 502 -212 "},"­":{"x_min":97.671875,"x_max":467.96875,"ha":555,"o":"m 467 343 l 97 343 l 97 430 l 467 430 l 467 343 "},"Ὴ":{"x_min":-56.625,"x_max":946.625,"ha":1075,"o":"m 946 0 l 832 0 l 832 443 l 329 443 l 329 0 l 215 0 l 215 972 l 329 972 l 329 545 l 832 545 l 832 972 l 946 972 l 946 0 m 126 726 l 62 726 l -56 971 l 57 971 l 126 726 "},"ḳ":{"x_min":112.578125,"x_max":689.078125,"ha":690,"o":"m 689 0 l 533 0 l 226 333 l 223 333 l 223 0 l 112 0 l 112 1028 l 223 1028 l 223 376 l 226 376 l 518 694 l 663 694 l 341 359 l 689 0 m 367 -212 q 319 -193 339 -212 q 300 -145 300 -173 q 320 -99 300 -118 q 367 -80 340 -80 q 414 -99 395 -80 q 434 -145 434 -118 q 414 -193 434 -173 q 367 -212 395 -212 "},"ѫ":{"x_min":20.34375,"x_max":763.671875,"ha":785,"o":"m 763 0 l 645 0 q 447 294 623 241 l 447 0 l 341 0 l 341 295 q 139 0 162 244 l 20 0 q 110 253 48 166 q 291 376 173 341 l 75 694 l 719 694 l 497 375 q 675 251 613 338 q 763 0 737 164 m 535 602 l 263 602 l 386 405 q 396 385 389 401 q 406 405 398 392 l 535 602 "},":":{"x_min":75.96875,"x_max":227.890625,"ha":301,"o":"m 151 558 q 98 581 120 558 q 75 634 75 603 q 98 687 75 666 q 151 709 120 709 q 205 687 183 709 q 227 634 227 666 q 205 581 227 603 q 151 558 183 558 m 151 -14 q 98 7 120 -14 q 75 61 75 29 q 98 114 75 92 q 151 137 120 137 q 205 114 183 137 q 227 61 227 92 q 205 7 227 29 q 151 -14 183 -14 "},"Ѝ":{"x_min":127.5,"x_max":911.53125,"ha":1040,"o":"m 911 0 l 797 0 l 797 702 q 804 836 797 797 l 800 836 q 769 775 787 803 l 268 0 l 127 0 l 127 972 l 241 972 l 241 287 q 236 144 241 177 l 238 144 q 276 209 253 174 l 765 972 l 911 972 l 911 0 m 640 1063 l 554 1063 l 376 1285 l 490 1285 l 640 1063 "},"ǲ":{"x_min":127.5,"x_max":1551.84375,"ha":1582,"o":"m 127 0 l 127 972 l 396 972 q 910 498 910 972 q 767 136 910 273 q 385 0 624 0 l 127 0 m 241 869 l 241 103 l 386 103 q 684 205 577 103 q 790 495 790 307 q 393 869 790 869 l 241 869 m 1551 662 l 1140 94 l 1547 94 l 1547 0 l 977 0 l 977 34 l 1388 599 l 1016 599 l 1016 694 l 1551 694 l 1551 662 "},"ẇ":{"x_min":16.28125,"x_max":987.5,"ha":1004,"o":"m 987 694 l 779 0 l 663 0 l 520 497 q 510 561 512 525 l 507 561 q 493 498 505 537 l 337 0 l 226 0 l 16 694 l 132 694 l 276 172 q 286 109 283 148 l 291 109 q 303 173 293 139 l 463 694 l 565 694 l 709 170 q 719 108 716 145 l 725 108 q 736 170 726 134 l 877 694 l 987 694 m 512 826 q 465 845 485 826 q 445 893 445 864 q 464 939 445 920 q 512 958 484 958 q 559 939 540 958 q 578 893 578 921 q 559 845 578 865 q 512 826 540 826 "},"Ƨ":{"x_min":66.46875,"x_max":608.359375,"ha":690,"o":"m 608 40 q 375 -16 510 -16 q 146 51 225 -16 q 66 236 66 118 q 117 384 66 318 q 297 524 168 451 q 454 639 421 596 q 487 739 487 682 q 436 845 487 804 q 298 885 385 885 q 107 826 193 885 l 107 946 q 305 988 189 988 q 524 918 441 988 q 607 736 607 849 q 557 586 607 651 q 387 451 507 522 q 223 332 261 377 q 185 231 185 288 q 236 125 185 164 q 377 86 286 86 q 608 162 514 86 l 608 40 "},"У":{"x_min":34.59375,"x_max":790.8125,"ha":782,"o":"m 790 972 l 487 293 q 338 41 400 98 q 191 -16 276 -16 q 70 4 121 -16 l 70 119 q 183 84 128 84 q 271 121 231 84 q 363 276 311 158 l 34 972 l 164 972 l 397 453 l 421 390 l 423 390 q 451 450 433 410 l 668 972 l 790 972 "},"ᾢ":{"x_min":86.140625,"x_max":1047.171875,"ha":1133,"o":"m 568 114 l 565 114 q 358 -14 495 -14 q 157 72 229 -14 q 86 310 86 159 q 171 695 86 485 l 295 695 q 199 306 199 478 q 240 141 199 199 q 355 83 281 83 q 511 317 511 83 l 511 509 l 622 509 l 622 317 q 777 83 622 83 q 893 142 852 83 q 934 306 934 201 q 837 695 934 478 l 961 695 q 1047 310 1047 483 q 974 71 1047 156 q 773 -14 902 -14 q 568 114 636 -14 m 382 793 l 361 834 q 440 915 424 862 q 385 933 407 915 q 363 982 363 952 q 381 1027 363 1009 q 429 1045 399 1045 q 510 963 510 1045 q 382 793 510 849 m 728 796 l 664 796 l 546 1041 l 658 1041 l 728 796 m 741 -249 q 642 -303 700 -303 q 558 -275 591 -303 q 526 -200 526 -247 l 526 -80 l 610 -80 l 610 -206 q 656 -252 610 -252 q 711 -223 684 -252 l 741 -249 "},"ү":{"x_min":9.5,"x_max":665.34375,"ha":672,"o":"m 665 694 l 389 4 l 389 -319 l 278 -319 l 278 5 l 9 694 l 132 694 l 315 176 l 335 108 l 336 108 q 358 179 343 131 l 550 694 l 665 694 "},"Ί":{"x_min":-40.28125,"x_max":329.453125,"ha":458,"o":"m 329 0 l 215 0 l 215 972 l 329 972 l 329 0 m 142 972 l 23 726 l -40 726 l 28 972 l 142 972 "},"Ģ":{"x_min":63.75,"x_max":854.5625,"ha":953,"o":"m 448 -291 l 448 -230 q 495 -234 477 -234 q 591 -173 591 -234 q 504 -120 591 -120 q 476 -123 503 -120 l 476 -14 q 176 135 289 3 q 63 473 63 267 q 206 844 63 699 q 568 988 349 988 q 834 937 725 988 l 834 811 q 555 885 717 885 q 287 772 392 885 q 183 481 183 659 q 280 191 183 297 q 543 86 377 86 q 740 131 655 86 l 740 404 l 527 404 l 527 507 l 854 507 l 854 66 q 550 -16 717 -12 l 550 -70 q 644 -97 609 -70 q 679 -173 679 -124 q 493 -293 679 -293 q 448 -291 467 -293 "},"ᾇ":{"x_min":67.828125,"x_max":824.71875,"ha":859,"o":"m 824 694 l 687 352 q 792 0 698 309 l 677 0 l 625 211 l 622 211 q 504 35 568 86 q 348 -16 441 -16 q 145 77 223 -16 q 67 326 67 171 q 154 605 67 500 q 388 710 242 710 q 641 493 569 710 l 644 493 l 708 694 l 824 694 m 592 352 q 508 557 556 495 q 389 618 460 618 q 239 539 297 618 q 181 333 181 460 q 232 150 181 219 q 362 81 283 81 q 580 321 493 81 l 592 352 m 605 991 l 534 991 q 406 1065 505 1065 q 279 991 307 1065 l 208 991 q 279 1093 225 1056 q 406 1130 333 1130 q 534 1093 480 1130 q 605 991 588 1056 m 409 865 q 470 811 413 826 l 457 775 q 337 898 337 800 q 358 953 337 931 q 412 975 379 975 q 473 919 473 975 q 409 865 473 865 m 576 -249 q 477 -303 535 -303 q 393 -275 426 -303 q 361 -200 361 -247 l 361 -80 l 445 -80 l 445 -206 q 491 -252 445 -252 q 546 -223 519 -252 l 576 -249 "},"m":{"x_min":112.578125,"x_max":1098.71875,"ha":1196,"o":"m 1098 0 l 987 0 l 987 398 q 951 565 987 514 q 832 617 916 617 q 711 552 760 617 q 661 396 661 486 l 661 0 l 550 0 l 550 412 q 392 617 550 617 q 271 555 318 617 q 223 396 223 494 l 223 0 l 112 0 l 112 694 l 223 694 l 223 584 l 226 584 q 442 710 300 710 q 566 671 513 710 q 638 567 619 631 q 869 710 716 710 q 1098 427 1098 710 l 1098 0 "},"Ị":{"x_min":121.125,"x_max":255.421875,"ha":370,"o":"m 241 0 l 127 0 l 127 972 l 241 972 l 241 0 m 188 -212 q 140 -193 160 -212 q 121 -145 121 -173 q 141 -99 121 -118 q 188 -80 161 -80 q 235 -99 216 -80 q 255 -145 255 -118 q 235 -193 255 -173 q 188 -212 216 -212 "},"ǌ":{"x_min":112.578125,"x_max":1028.796875,"ha":1122,"o":"m 689 0 l 577 0 l 577 396 q 416 617 577 617 q 278 554 333 617 q 223 396 223 491 l 223 0 l 112 0 l 112 694 l 223 694 l 223 579 l 226 579 q 454 710 305 710 q 628 637 568 710 q 689 424 689 563 l 689 0 m 1009 29 q 940 -234 1009 -141 q 743 -326 872 -326 q 651 -305 696 -326 l 651 -201 q 746 -231 701 -231 q 898 10 898 -231 l 898 694 l 1009 694 l 1009 29 m 955 870 q 904 891 925 870 q 883 942 883 911 q 904 994 883 973 q 955 1015 925 1015 q 1007 994 986 1015 q 1028 942 1028 973 q 1007 891 1028 912 q 955 870 986 870 "},"⁵":{"x_min":85.453125,"x_max":440.84375,"ha":509,"o":"m 85 411 l 85 510 q 221 462 162 462 q 313 493 278 462 q 347 571 347 523 q 208 674 347 674 l 103 668 l 103 975 l 413 975 l 413 891 l 190 891 l 190 755 q 377 713 314 764 q 440 575 440 661 q 381 435 440 489 q 219 381 322 381 q 85 411 135 381 "},"ớ":{"x_min":65.109375,"x_max":809.125,"ha":829,"o":"m 705 865 l 796 865 q 809 773 809 827 q 660 615 809 642 q 748 349 748 520 q 654 83 748 183 q 402 -16 560 -16 q 157 81 248 -16 q 65 339 65 178 q 160 612 65 514 q 419 710 256 710 q 510 701 451 710 q 625 694 551 694 q 692 718 665 694 q 718 776 718 742 q 705 865 718 826 m 411 617 q 241 544 303 617 q 179 343 179 471 q 242 148 179 219 q 411 77 305 77 q 576 147 518 77 q 634 345 634 217 q 576 546 634 476 q 411 617 518 617 m 594 1048 l 416 826 l 330 826 l 481 1048 l 594 1048 "},"ὀ":{"x_min":65.109375,"x_max":748.765625,"ha":814,"o":"m 402 -16 q 157 81 248 -16 q 65 339 65 178 q 160 612 65 514 q 419 710 256 710 q 661 615 574 710 q 748 349 748 519 q 654 83 748 183 q 402 -16 560 -16 m 411 617 q 241 544 303 617 q 179 343 179 471 q 242 148 179 219 q 411 77 305 77 q 576 147 518 77 q 634 345 634 217 q 576 546 634 476 q 411 617 518 617 m 361 777 l 335 820 q 416 929 405 858 q 363 949 384 930 q 342 996 342 968 q 361 1045 342 1026 q 411 1065 381 1065 q 470 1040 447 1065 q 494 978 494 1015 q 455 862 494 918 q 361 777 416 805 "},"á":{"x_min":61.046875,"x_max":609.71875,"ha":707,"o":"m 609 0 l 498 0 l 498 108 l 495 108 q 282 -16 423 -16 q 119 38 178 -16 q 61 184 61 93 q 290 411 61 379 l 498 440 q 355 617 498 617 q 128 531 229 617 l 128 645 q 364 710 231 710 q 609 451 609 710 l 609 0 m 498 351 l 330 328 q 214 289 253 317 q 174 192 174 262 q 211 109 174 141 q 307 77 247 77 q 444 135 390 77 q 498 282 498 193 l 498 351 m 513 1048 l 335 826 l 249 826 l 400 1048 l 513 1048 "},"Ӱ":{"x_min":34.59375,"x_max":790.8125,"ha":782,"o":"m 790 972 l 487 293 q 338 41 400 98 q 191 -16 276 -16 q 70 4 121 -16 l 70 119 q 183 84 128 84 q 271 121 231 84 q 363 276 311 158 l 34 972 l 164 972 l 397 453 l 421 390 l 423 390 q 451 450 433 410 l 668 972 l 790 972 m 550 1063 q 503 1082 523 1063 q 484 1130 484 1101 q 503 1177 484 1158 q 549 1196 522 1196 q 597 1177 577 1196 q 617 1130 617 1158 q 598 1082 617 1102 q 550 1063 579 1063 m 290 1063 q 241 1083 261 1063 q 221 1130 221 1103 q 241 1177 221 1158 q 288 1196 260 1196 q 336 1177 316 1196 q 356 1130 356 1158 q 337 1082 356 1102 q 290 1063 317 1063 "},"K":{"x_min":127.5,"x_max":804.375,"ha":806,"o":"m 804 0 l 645 0 l 269 444 q 244 478 248 470 l 241 478 l 241 0 l 127 0 l 127 972 l 241 972 l 241 515 l 244 515 q 269 548 253 530 l 633 972 l 775 972 l 358 505 l 804 0 "},"7":{"x_min":58.328125,"x_max":685,"ha":749,"o":"m 685 937 l 299 0 l 184 0 l 548 872 l 58 872 l 58 972 l 685 972 l 685 937 "},"¨":{"x_min":84.78125,"x_max":480.1875,"ha":575,"o":"m 413 826 q 366 845 386 826 q 347 893 347 864 q 366 940 347 921 q 412 959 385 959 q 460 940 440 959 q 480 893 480 921 q 461 845 480 865 q 413 826 442 826 m 153 826 q 104 846 124 826 q 84 893 84 866 q 104 940 84 921 q 151 959 123 959 q 199 940 179 959 q 219 893 219 921 q 200 845 219 865 q 153 826 180 826 "},"Y":{"x_min":12.203125,"x_max":759.609375,"ha":768,"o":"m 759 972 l 438 359 l 438 0 l 324 0 l 324 356 l 12 972 l 141 972 l 359 533 q 383 473 363 524 l 385 473 q 411 533 392 496 l 638 972 l 759 972 "},"E":{"x_min":127.5,"x_max":642.953125,"ha":703,"o":"m 642 0 l 127 0 l 127 972 l 621 972 l 621 869 l 241 869 l 241 545 l 592 545 l 592 443 l 241 443 l 241 103 l 642 103 l 642 0 "},"Ô":{"x_min":63.75,"x_max":983.421875,"ha":1047,"o":"m 519 -16 q 188 120 312 -16 q 63 474 63 256 q 190 849 63 709 q 535 988 317 988 q 860 853 737 988 q 983 498 983 717 q 857 122 983 260 q 519 -16 731 -16 m 527 885 q 278 775 374 885 q 183 484 183 664 q 276 195 183 305 q 519 86 369 86 q 771 190 679 86 q 864 482 864 295 q 774 780 864 675 q 527 885 685 885 m 720 1062 l 638 1062 l 526 1218 l 415 1062 l 338 1062 l 484 1287 l 574 1287 l 720 1062 "},"έ":{"x_min":61.046875,"x_max":567,"ha":620,"o":"m 567 14 q 345 -16 478 -16 q 137 39 213 -16 q 61 188 61 94 q 108 298 61 251 q 233 357 155 344 l 233 360 q 131 416 174 372 q 87 516 87 459 q 159 659 87 608 q 352 710 231 710 q 535 680 450 710 l 535 568 q 345 617 445 617 q 200 518 200 617 q 255 435 200 465 q 394 404 309 404 q 474 406 444 404 l 474 307 q 379 310 425 310 q 173 189 173 310 q 222 107 173 137 q 356 77 271 77 q 567 126 469 77 l 567 14 m 472 1041 l 353 796 l 289 796 l 359 1041 l 472 1041 "},"ὺ":{"x_min":106.734375,"x_max":725.265625,"ha":806,"o":"m 106 694 l 216 694 l 216 312 q 268 140 216 200 q 415 81 320 81 q 561 141 508 81 q 613 310 613 201 q 513 694 613 513 l 637 694 q 725 315 725 524 q 640 72 725 162 q 415 -16 555 -16 q 188 65 269 -16 q 106 293 106 146 l 106 694 m 425 796 l 361 796 l 242 1041 l 356 1041 l 425 796 "},"Ƥ":{"x_min":-56.96875,"x_max":777.921875,"ha":835,"o":"m 297 367 l 297 0 l 183 0 l 183 869 l 166 869 q 81 837 111 869 q 51 754 51 806 q 65 682 51 716 l -42 682 q -56 765 -56 720 q 9 913 -56 854 q 184 972 75 972 l 450 972 q 692 896 606 972 q 777 682 777 819 q 682 456 777 544 q 424 367 586 367 l 297 367 m 297 869 l 297 470 l 416 470 q 658 676 658 470 q 430 869 658 869 l 297 869 "},"Є":{"x_min":63.75,"x_max":784.703125,"ha":857,"o":"m 784 40 q 518 -16 677 -16 q 188 117 312 -16 q 63 467 63 251 q 195 846 63 703 q 537 988 327 988 q 784 948 682 988 l 784 827 q 535 885 674 885 q 296 792 389 885 q 185 535 202 699 l 615 535 l 615 433 l 184 433 q 287 178 195 271 q 526 86 380 86 q 784 151 678 86 l 784 40 "},"Ï":{"x_min":-10.21875,"x_max":385.1875,"ha":370,"o":"m 241 0 l 127 0 l 127 972 l 241 972 l 241 0 m 318 1062 q 271 1081 291 1062 q 252 1129 252 1100 q 271 1176 252 1157 q 317 1195 290 1195 q 365 1176 345 1195 q 385 1129 385 1157 q 366 1081 385 1101 q 318 1062 347 1062 m 58 1062 q 9 1082 29 1062 q -10 1129 -10 1102 q 9 1176 -10 1157 q 56 1195 28 1195 q 104 1176 84 1195 q 124 1129 124 1157 q 105 1081 124 1101 q 58 1062 85 1062 "},"Ѷ":{"x_min":12.203125,"x_max":992.921875,"ha":1000,"o":"m 992 824 l 888 824 q 832 891 880 891 q 759 807 788 891 l 493 0 l 364 0 l 12 972 l 139 972 l 408 201 q 427 115 421 164 l 430 115 q 453 202 435 149 l 666 858 q 836 988 709 988 q 992 824 978 988 m 577 1062 l 511 1062 l 349 1277 l 437 1277 l 577 1062 m 413 1062 l 348 1062 l 181 1277 l 271 1277 l 413 1062 "},"Ȅ":{"x_min":107.640625,"x_max":642.953125,"ha":703,"o":"m 642 0 l 127 0 l 127 972 l 621 972 l 621 869 l 241 869 l 241 545 l 592 545 l 592 443 l 241 443 l 241 103 l 642 103 l 642 0 m 503 1063 l 437 1063 l 275 1278 l 363 1278 l 503 1063 m 339 1063 l 274 1063 l 107 1278 l 197 1278 l 339 1063 "},"ῶ":{"x_min":86.140625,"x_max":1047.171875,"ha":1133,"o":"m 568 114 l 565 114 q 358 -14 495 -14 q 157 72 229 -14 q 86 310 86 159 q 171 695 86 485 l 295 695 q 199 306 199 478 q 240 141 199 199 q 355 83 281 83 q 511 317 511 83 l 511 509 l 622 509 l 622 317 q 777 83 622 83 q 893 142 852 83 q 934 306 934 201 q 837 695 934 478 l 961 695 q 1047 310 1047 483 q 974 71 1047 156 q 773 -14 902 -14 q 568 114 636 -14 m 755 807 l 683 807 q 565 901 667 901 q 447 807 464 901 l 376 807 q 435 923 382 878 q 565 968 487 968 q 696 923 644 968 q 755 807 749 878 "},"ứ":{"x_min":97.671875,"x_max":829.46875,"ha":817,"o":"m 674 0 l 562 0 l 562 109 l 560 109 q 345 -16 491 -16 q 97 279 97 -16 l 97 694 l 208 694 l 208 297 q 376 77 208 77 q 510 137 457 77 q 562 294 562 197 l 562 694 l 645 694 q 712 718 685 694 q 739 776 739 742 q 725 865 739 826 l 816 865 q 829 773 829 827 q 674 614 829 638 l 674 0 m 567 1048 l 389 826 l 303 826 l 454 1048 l 567 1048 "},"έ":{"x_min":61.046875,"x_max":567,"ha":620,"o":"m 567 14 q 345 -16 478 -16 q 137 39 213 -16 q 61 188 61 94 q 108 298 61 251 q 233 357 155 344 l 233 360 q 131 416 174 372 q 87 516 87 459 q 159 659 87 608 q 352 710 231 710 q 535 680 450 710 l 535 568 q 345 617 445 617 q 200 518 200 617 q 255 435 200 465 q 394 404 309 404 q 474 406 444 404 l 474 307 q 379 310 425 310 q 173 189 173 310 q 222 107 173 137 q 356 77 271 77 q 567 126 469 77 l 567 14 m 478 1042 l 359 796 l 295 796 l 364 1042 l 478 1042 "},"ȴ":{"x_min":112.578125,"x_max":579.203125,"ha":412,"o":"m 249 -257 q 238 -326 240 -300 l 140 -326 q 172 -189 145 -257 q 112 13 112 -108 l 112 1028 l 223 1028 l 223 13 q 236 -83 223 -39 q 408 0 305 0 q 532 -40 485 0 q 579 -141 579 -80 q 523 -248 579 -205 q 381 -291 467 -291 q 249 -257 306 -291 m 287 -166 q 381 -198 327 -198 q 480 -141 480 -198 q 405 -90 480 -90 q 287 -166 333 -90 "},"Ɖ":{"x_min":18.984375,"x_max":910.171875,"ha":974,"o":"m 127 0 l 127 434 l 18 434 l 18 539 l 127 539 l 127 972 l 396 972 q 910 498 910 972 q 767 135 910 271 q 385 0 624 0 l 127 0 m 241 869 l 241 539 l 469 539 l 469 434 l 241 434 l 241 103 l 386 103 q 684 205 577 103 q 790 495 790 307 q 393 869 790 869 l 241 869 "},"ἰ":{"x_min":100.265625,"x_max":352.671875,"ha":370,"o":"m 352 6 q 270 -8 310 -8 q 112 179 112 -8 l 112 694 l 223 694 l 223 183 q 291 89 223 89 q 352 101 320 89 l 352 6 m 126 777 l 100 820 q 181 929 170 858 q 128 949 149 930 q 107 996 107 968 q 126 1045 107 1026 q 176 1065 146 1065 q 235 1040 212 1065 q 259 978 259 1015 q 220 862 259 918 q 126 777 181 805 "},"ể":{"x_min":65.109375,"x_max":728.40625,"ha":726,"o":"m 670 319 l 180 319 q 242 140 183 203 q 406 77 302 77 q 622 154 524 77 l 622 50 q 380 -16 531 -16 q 149 78 233 -16 q 65 344 65 172 q 157 608 65 506 q 385 710 248 710 q 596 622 521 710 q 670 377 670 534 l 670 319 m 556 413 q 510 563 556 510 q 383 617 464 617 q 249 560 304 617 q 181 413 194 504 l 556 413 m 538 1167 q 592 1170 562 1170 q 690 1142 653 1170 q 728 1065 728 1114 q 702 996 728 1024 q 638 963 677 967 l 638 929 l 564 929 l 564 1007 q 641 1058 641 1007 q 577 1101 641 1101 q 538 1096 565 1101 l 538 1167 m 591 826 l 510 826 l 398 926 l 286 826 l 210 826 l 355 995 l 446 995 l 591 826 "},"ϋ":{"x_min":101.734375,"x_max":720.265625,"ha":806,"o":"m 101 694 l 211 694 l 211 312 q 263 140 211 200 q 410 81 315 81 q 556 141 503 81 q 608 310 608 201 q 508 694 608 513 l 632 694 q 720 315 720 524 q 635 72 720 162 q 410 -16 550 -16 q 183 65 264 -16 q 101 293 101 146 l 101 694 m 515 815 q 468 834 488 815 q 449 882 449 853 q 468 929 449 910 q 514 948 487 948 q 562 929 542 948 q 582 882 582 910 q 563 834 582 854 q 515 815 544 815 m 255 815 q 206 835 226 815 q 186 882 186 855 q 206 929 186 910 q 253 948 225 948 q 301 929 281 948 q 321 882 321 910 q 302 834 321 854 q 255 815 282 815 "},"ἶ":{"x_min":-43.78125,"x_max":353.65625,"ha":370,"o":"m 352 6 q 270 -8 310 -8 q 112 179 112 -8 l 112 694 l 223 694 l 223 183 q 291 89 223 89 q 352 101 320 89 l 352 6 m 353 991 l 282 991 q 154 1065 253 1065 q 27 991 55 1065 l -43 991 q 27 1093 -26 1056 q 154 1130 81 1130 q 282 1093 228 1130 q 353 991 336 1056 m 111 775 l 96 811 q 159 865 154 826 q 93 919 93 865 q 154 975 93 975 q 208 953 187 975 q 229 898 229 931 q 111 775 229 800 "},"ἳ":{"x_min":-52.25,"x_max":352.671875,"ha":370,"o":"m 352 6 q 270 -8 310 -8 q 112 179 112 -8 l 112 694 l 223 694 l 223 183 q 291 89 223 89 q 352 101 320 89 l 352 6 m 95 834 l 73 793 q -52 963 -52 847 q 27 1045 -52 1045 q 75 1027 57 1045 q 94 982 94 1009 q 72 933 94 952 q 16 915 50 915 q 95 834 33 862 m 322 796 l 259 796 l 140 1041 l 254 1041 l 322 796 "},"Ἐ":{"x_min":-45.734375,"x_max":729.953125,"ha":792,"o":"m 729 0 l 214 0 l 214 972 l 708 972 l 708 869 l 328 869 l 328 545 l 679 545 l 679 443 l 328 443 l 328 103 l 729 103 l 729 0 m -19 688 l -45 731 q 35 840 24 769 q -17 860 3 841 q -38 907 -38 879 q -19 956 -38 937 q 30 976 0 976 q 89 951 66 976 q 113 889 113 926 q 74 773 113 829 q -19 688 35 716 "},"b":{"x_min":112.578125,"x_max":751.46875,"ha":817,"o":"m 226 100 l 223 100 l 223 0 l 112 0 l 112 1028 l 223 1028 l 223 572 l 226 572 q 466 710 308 710 q 675 617 600 710 q 751 367 751 524 q 666 88 751 193 q 434 -16 581 -16 q 226 100 297 -16 m 223 380 l 223 283 q 279 137 223 197 q 421 77 335 77 q 580 154 522 77 q 637 369 637 231 q 583 551 637 485 q 438 617 530 617 q 282 549 341 617 q 223 380 223 482 "},"ύ":{"x_min":101.734375,"x_max":720.265625,"ha":806,"o":"m 101 694 l 211 694 l 211 312 q 263 140 211 200 q 410 81 315 81 q 556 141 503 81 q 608 310 608 201 q 508 694 608 513 l 632 694 q 720 315 720 524 q 635 72 720 162 q 410 -16 550 -16 q 183 65 264 -16 q 101 293 101 146 l 101 694 m 506 1042 l 387 796 l 323 796 l 392 1042 l 506 1042 "},"ﬂ":{"x_min":35.953125,"x_max":661.265625,"ha":770,"o":"m 455 930 q 381 948 423 948 q 265 801 265 948 l 265 694 l 427 694 l 427 599 l 265 599 l 265 0 l 154 0 l 154 599 l 35 599 l 35 694 l 154 694 l 154 807 q 217 979 154 916 q 375 1043 280 1043 q 455 1030 425 1043 l 455 930 m 661 0 l 551 0 l 551 1028 l 661 1028 l 661 0 "},"ῦ":{"x_min":106.734375,"x_max":725.265625,"ha":806,"o":"m 106 694 l 216 694 l 216 312 q 268 140 216 200 q 415 81 320 81 q 561 141 508 81 q 613 310 613 201 q 513 694 613 513 l 637 694 q 725 315 725 524 q 640 72 725 162 q 415 -16 555 -16 q 188 65 269 -16 q 106 293 106 146 l 106 694 m 554 807 l 482 807 q 364 901 466 901 q 246 807 263 901 l 175 807 q 234 923 181 878 q 364 968 286 968 q 495 923 443 968 q 554 807 548 878 "},"ᾱ":{"x_min":67.828125,"x_max":824.71875,"ha":859,"o":"m 824 694 l 687 352 q 792 0 698 309 l 677 0 l 625 211 l 622 211 q 504 35 568 86 q 348 -16 441 -16 q 145 77 223 -16 q 67 326 67 171 q 154 605 67 500 q 388 710 242 710 q 641 493 569 710 l 644 493 l 708 694 l 824 694 m 592 352 q 508 557 556 495 q 389 618 460 618 q 239 539 297 618 q 181 333 181 460 q 232 150 181 219 q 362 81 283 81 q 580 321 493 81 l 592 352 m 590 826 l 245 826 l 245 900 l 590 900 l 590 826 "},"ƞ":{"x_min":88.84375,"x_max":689.078125,"ha":799,"o":"m 689 -274 l 576 -274 l 576 387 q 416 609 576 609 q 277 549 331 609 q 223 398 223 489 l 223 0 l 112 0 l 112 470 q 88 694 112 632 l 202 694 q 221 576 221 646 l 223 576 q 454 710 299 710 q 628 638 567 710 q 689 427 689 565 l 689 -274 "},"ɢ":{"x_min":65.109375,"x_max":659.90625,"ha":735,"o":"m 659 42 q 416 -16 541 -16 q 160 78 256 -16 q 65 336 65 173 q 170 605 65 499 q 443 710 276 710 q 636 678 548 710 l 636 572 q 437 617 548 617 q 250 541 322 617 q 179 343 179 465 q 245 147 179 218 q 425 77 312 77 q 551 103 500 77 l 551 279 l 400 279 l 400 373 l 659 373 l 659 42 "},"Ǌ":{"x_min":127.5,"x_max":1370.40625,"ha":1489,"o":"m 911 0 l 771 0 l 271 775 q 240 836 252 804 l 236 836 q 241 702 241 805 l 241 0 l 127 0 l 127 972 l 275 972 l 762 209 q 801 144 792 162 l 804 144 q 797 287 797 186 l 797 972 l 911 972 l 911 0 m 1370 348 q 1297 79 1370 175 q 1101 -16 1223 -16 q 1007 0 1044 -16 l 1007 112 q 1102 86 1044 86 q 1256 347 1256 86 l 1256 972 l 1370 972 l 1370 348 "},"ῼ":{"x_min":68.828125,"x_max":983.75,"ha":1049,"o":"m 983 0 l 631 0 l 631 99 q 865 529 865 272 q 771 791 865 695 q 528 888 677 888 q 282 792 378 888 q 186 529 186 695 q 421 99 186 273 l 421 0 l 68 0 l 68 100 l 304 99 q 68 532 68 259 q 194 866 68 744 q 524 988 319 988 q 858 867 734 988 q 983 533 983 746 q 748 99 983 260 l 983 100 l 983 0 m 697 -249 q 598 -303 656 -303 q 514 -275 547 -303 q 482 -200 482 -247 l 482 -80 l 566 -80 l 566 -206 q 612 -252 566 -252 q 667 -223 640 -252 l 697 -249 "},"Ʈ":{"x_min":26.453125,"x_max":702.640625,"ha":729,"o":"m 702 869 l 421 869 l 421 35 q 537 -143 421 -143 q 619 -127 584 -143 l 619 -227 q 527 -245 580 -245 q 307 29 307 -245 l 307 869 l 26 869 l 26 972 l 702 972 l 702 869 "},"Ὢ":{"x_min":-46.1875,"x_max":1262.75,"ha":1328,"o":"m 1262 0 l 910 0 l 910 99 q 1144 529 1144 272 q 1050 791 1144 695 q 807 888 956 888 q 561 792 657 888 q 465 529 465 695 q 700 99 465 273 l 700 0 l 347 0 l 347 100 l 583 99 q 347 532 347 259 q 473 866 347 744 q 803 988 598 988 q 1137 867 1013 988 q 1262 533 1262 746 q 1027 99 1262 260 l 1262 100 l 1262 0 m -25 722 l -46 763 q 32 844 16 791 q -22 862 0 844 q -44 911 -44 881 q -26 956 -44 938 q 21 974 -8 974 q 102 892 102 974 q -25 722 102 778 m 320 725 l 256 725 l 138 970 l 250 970 l 320 725 "},"Ḡ":{"x_min":63.75,"x_max":854.5625,"ha":953,"o":"m 854 66 q 529 -16 708 -16 q 192 118 320 -16 q 63 473 63 252 q 206 844 63 699 q 568 988 349 988 q 834 937 727 988 l 834 811 q 555 885 716 885 q 287 773 392 885 q 183 481 183 660 q 280 191 183 297 q 543 86 377 86 q 740 131 657 86 l 740 404 l 527 404 l 527 507 l 854 507 l 854 66 m 707 1063 l 363 1063 l 363 1137 l 707 1137 l 707 1063 "},"ф":{"x_min":65.109375,"x_max":887.109375,"ha":953,"o":"m 526 -16 l 526 -326 l 425 -326 l 425 -16 l 404 -16 q 158 82 252 -16 q 65 339 65 180 q 159 609 65 507 q 409 710 254 710 l 425 710 l 425 988 l 526 988 l 526 710 l 541 710 q 792 610 697 710 q 887 339 887 509 q 794 82 887 180 q 550 -16 701 -16 l 526 -16 m 526 617 l 526 77 l 541 77 q 710 148 647 77 q 773 343 773 220 q 711 544 773 472 q 544 617 649 617 l 526 617 m 425 77 l 425 617 l 409 617 q 242 544 305 617 q 179 343 179 471 q 242 149 179 221 q 412 77 305 77 l 425 77 "},"ȭ":{"x_min":65.109375,"x_max":748.765625,"ha":814,"o":"m 402 -16 q 157 81 248 -16 q 65 339 65 178 q 160 612 65 514 q 419 710 256 710 q 661 615 574 710 q 748 349 748 519 q 654 83 748 183 q 402 -16 560 -16 m 411 617 q 241 544 303 617 q 179 343 179 471 q 242 148 179 219 q 411 77 305 77 q 576 147 518 77 q 634 345 634 217 q 576 546 634 476 q 411 617 518 617 m 632 988 q 599 872 632 917 q 511 827 567 827 q 401 862 463 827 q 320 891 349 891 q 261 815 261 891 l 197 815 q 229 931 197 887 q 320 975 262 975 q 421 940 364 975 q 508 910 472 910 q 565 988 565 910 l 632 988 m 583 1025 l 238 1025 l 238 1099 l 583 1099 l 583 1025 "},"Ŋ":{"x_min":127.5,"x_max":911.53125,"ha":1039,"o":"m 271 775 q 240 836 256 796 l 236 836 q 241 702 241 800 l 241 0 l 127 0 l 127 972 l 275 972 l 762 249 q 801 179 763 248 l 804 179 q 797 328 797 227 l 797 972 l 911 972 l 911 43 q 663 -286 911 -286 q 571 -265 612 -286 l 571 -153 q 666 -183 623 -183 q 794 0 794 -183 l 271 775 "},"Ũ":{"x_min":115.296875,"x_max":838.96875,"ha":954,"o":"m 838 393 q 469 -16 838 -16 q 115 377 115 -16 l 115 972 l 229 972 l 229 385 q 481 86 229 86 q 725 375 725 86 l 725 972 l 838 972 l 838 393 m 696 1224 q 663 1108 696 1153 q 575 1063 631 1063 q 465 1098 527 1063 q 385 1127 413 1127 q 325 1051 325 1127 l 261 1051 q 294 1167 261 1123 q 385 1211 326 1211 q 486 1176 429 1211 q 573 1146 536 1146 q 630 1224 630 1146 l 696 1224 "},"L":{"x_min":127.5,"x_max":632.109375,"ha":654,"o":"m 632 0 l 127 0 l 127 972 l 241 972 l 241 103 l 632 103 l 632 0 "},"Ẋ":{"x_min":17.640625,"x_max":798.953125,"ha":819,"o":"m 798 0 l 659 0 l 436 372 q 413 420 425 389 l 411 420 q 387 372 404 404 l 157 0 l 17 0 l 343 489 l 43 972 l 183 972 l 381 630 q 416 562 401 596 l 419 562 q 457 633 440 607 l 663 972 l 794 972 l 489 490 l 798 0 m 413 1063 q 366 1082 386 1063 q 346 1130 346 1101 q 365 1176 346 1157 q 413 1195 385 1195 q 460 1176 441 1195 q 479 1130 479 1158 q 460 1082 479 1102 q 413 1063 441 1063 "},";":{"x_min":26.453125,"x_max":229.234375,"ha":301,"o":"m 153 558 q 99 581 121 558 q 77 634 77 603 q 99 687 77 666 q 153 709 121 709 q 206 687 184 709 q 229 634 229 666 q 206 581 229 603 q 153 558 184 558 m 214 154 l 105 -179 l 26 -179 l 105 154 l 214 154 "},"ď":{"x_min":65.109375,"x_max":989.53125,"ha":920,"o":"m 705 0 l 594 0 l 594 118 l 591 118 q 352 -16 514 -16 q 143 76 221 -16 q 65 330 65 170 q 151 607 65 503 q 383 710 238 710 q 591 598 526 710 l 594 598 l 594 1028 l 705 1028 l 705 0 m 594 314 l 594 416 q 538 558 594 500 q 397 617 482 617 q 237 542 295 617 q 179 336 179 467 q 235 146 179 216 q 385 77 290 77 q 536 144 478 77 q 594 314 594 211 m 989 1028 l 876 851 l 793 851 l 872 1028 l 989 1028 "},"ṯ":{"x_min":29.15625,"x_max":448.59375,"ha":471,"o":"m 434 6 q 330 -14 395 -14 q 148 188 148 -14 l 148 599 l 29 599 l 29 694 l 148 694 l 148 864 l 259 900 l 259 694 l 434 694 l 434 599 l 259 599 l 259 208 q 283 108 259 138 q 362 78 307 78 q 434 101 404 78 l 434 6 m 448 -154 l 104 -154 l 104 -81 l 448 -81 l 448 -154 "},"Ο":{"x_min":63.75,"x_max":983.421875,"ha":1047,"o":"m 519 -16 q 188 120 312 -16 q 63 474 63 256 q 190 849 63 709 q 535 988 317 988 q 860 853 737 988 q 983 498 983 717 q 857 122 983 260 q 519 -16 731 -16 m 527 885 q 278 775 374 885 q 183 484 183 664 q 276 195 183 305 q 519 86 369 86 q 771 190 679 86 q 864 482 864 295 q 774 780 864 675 q 527 885 685 885 "},"ŧ":{"x_min":29.15625,"x_max":434.734375,"ha":471,"o":"m 427 370 l 259 370 l 259 208 q 283 108 259 138 q 362 78 306 78 q 434 101 402 78 l 434 6 q 330 -14 395 -14 q 148 188 148 -14 l 148 370 l 37 370 l 37 461 l 148 461 l 148 599 l 29 599 l 29 694 l 148 694 l 148 864 q 204 882 151 865 l 259 900 l 259 694 l 434 694 l 434 599 l 259 599 l 259 461 l 427 461 l 427 370 "},"À":{"x_min":14.921875,"x_max":880.328125,"ha":896,"o":"m 880 0 l 754 0 l 651 272 l 238 272 l 141 0 l 14 0 l 387 972 l 505 972 l 880 0 m 613 375 l 461 789 q 446 854 453 809 l 443 854 q 427 789 436 813 l 276 375 l 613 375 m 514 1062 l 428 1062 l 250 1284 l 364 1284 l 514 1062 "},"Ώ":{"x_min":-31.625,"x_max":1082.75,"ha":1148,"o":"m 1082 0 l 730 0 l 730 99 q 964 529 964 272 q 870 791 964 695 q 627 888 776 888 q 381 792 477 888 q 285 529 285 695 q 520 99 285 273 l 520 0 l 167 0 l 167 100 l 403 99 q 167 532 167 259 q 293 866 167 744 q 623 988 418 988 q 957 867 833 988 q 1082 533 1082 746 q 847 99 1082 260 l 1082 100 l 1082 0 m 151 971 l 32 726 l -31 726 l 38 971 l 151 971 "},"½":{"x_min":86.140625,"x_max":1185.265625,"ha":1293,"o":"m 433 396 l 91 396 l 91 472 l 217 472 l 217 874 l 86 837 l 86 922 l 305 987 l 305 472 l 433 472 l 433 396 m 944 972 l 363 0 l 265 0 l 847 972 l 944 972 m 1185 1 l 809 1 l 809 78 l 972 238 q 1061 344 1042 307 q 1080 418 1080 381 q 1055 482 1080 458 q 987 507 1029 507 q 840 438 907 507 l 840 539 q 1000 591 897 591 q 1126 546 1080 591 q 1173 428 1173 501 q 1034 192 1173 324 l 923 86 l 923 83 l 1185 83 l 1185 1 "},"ԍ":{"x_min":65.109375,"x_max":686.359375,"ha":737,"o":"m 686 316 q 609 73 686 162 q 393 -16 531 -16 q 155 79 246 -16 q 65 330 65 175 q 163 606 65 502 q 425 710 261 710 q 604 668 531 710 l 604 554 q 421 617 523 617 q 247 540 315 617 q 179 340 179 464 q 238 149 179 221 q 394 77 298 77 q 524 132 478 77 q 572 280 571 187 l 328 280 l 328 375 l 686 375 l 686 316 "},"'":{"x_min":113.9375,"x_max":205.5,"ha":318,"o":"m 205 972 l 198 669 l 120 669 l 113 972 l 205 972 "},"Ҽ":{"x_min":27.8125,"x_max":1101.4375,"ha":1160,"o":"m 1101 433 l 343 433 q 450 180 354 274 q 694 86 546 86 q 1005 197 874 86 l 1005 82 q 679 -16 872 -16 q 357 106 480 -16 q 223 433 233 229 l 204 433 q 73 480 120 433 q 27 612 27 527 q 54 726 27 676 l 151 726 q 123 622 123 678 q 212 535 123 535 l 225 535 q 369 865 244 741 q 682 988 493 988 q 1101 433 1101 988 m 979 535 q 895 791 973 696 q 680 885 817 885 q 449 789 539 885 q 344 535 359 693 l 979 535 "},"Ѿ":{"x_min":63.75,"x_max":1504.296875,"ha":1568,"o":"m 784 39 q 515 -16 659 -16 q 187 118 311 -16 q 63 478 63 253 q 185 846 63 704 q 514 988 306 988 q 695 959 621 988 l 695 838 q 512 885 623 885 q 272 775 361 885 q 183 481 183 664 q 274 189 183 293 q 529 86 366 86 q 726 131 642 86 l 726 404 l 514 404 l 514 507 l 1053 507 l 1053 404 l 841 404 l 841 131 q 1039 86 925 86 q 1293 189 1201 86 q 1384 481 1384 293 q 1296 774 1384 663 q 1055 885 1207 885 q 872 838 944 885 l 872 959 q 1053 988 946 988 q 1382 847 1260 988 q 1504 480 1504 705 q 1380 119 1504 255 q 1052 -16 1256 -16 q 784 39 910 -16 m 991 1186 l 978 1062 l 935 1062 l 918 1117 l 817 1117 l 805 1062 l 760 1062 l 748 1117 l 647 1117 l 631 1062 l 588 1062 l 575 1186 l 991 1186 "},"ɛ":{"x_min":65.109375,"x_max":512.734375,"ha":574,"o":"m 512 17 q 332 -16 435 -16 q 135 38 206 -16 q 65 184 65 92 q 215 362 65 324 l 215 364 q 88 522 88 408 q 157 658 88 607 q 336 710 225 710 q 494 679 424 710 l 494 575 q 336 617 420 617 q 238 589 275 617 q 201 516 201 562 q 248 435 201 465 q 377 405 296 405 l 432 405 l 432 309 l 376 309 q 179 192 179 309 q 222 108 179 139 q 343 77 265 77 q 512 119 434 77 l 512 17 "},"ṏ":{"x_min":65.109375,"x_max":748.765625,"ha":814,"o":"m 402 -16 q 157 81 248 -16 q 65 339 65 178 q 160 612 65 514 q 419 710 256 710 q 661 615 574 710 q 748 349 748 519 q 654 83 748 183 q 402 -16 560 -16 m 411 617 q 241 544 303 617 q 179 343 179 471 q 242 148 179 219 q 411 77 305 77 q 576 147 518 77 q 634 345 634 217 q 576 546 634 476 q 411 617 518 617 m 541 1022 q 493 1041 513 1022 q 474 1089 474 1060 q 493 1136 474 1117 q 539 1155 512 1155 q 588 1136 567 1155 q 608 1089 608 1117 q 588 1041 608 1060 q 541 1022 569 1022 m 280 1022 q 232 1041 252 1022 q 212 1089 212 1060 q 231 1136 212 1117 q 278 1155 251 1155 q 326 1136 307 1155 q 346 1089 346 1117 q 327 1041 346 1060 q 280 1022 308 1022 m 627 975 q 595 867 627 906 q 506 827 564 827 q 402 852 461 827 q 316 877 343 877 q 256 815 256 877 l 192 815 q 316 961 192 961 q 414 935 358 961 q 503 910 469 910 q 560 975 560 910 l 627 975 "},"ᾲ":{"x_min":67.828125,"x_max":824.71875,"ha":859,"o":"m 824 694 l 687 352 q 792 0 698 309 l 677 0 l 625 211 l 622 211 q 504 35 568 86 q 348 -16 441 -16 q 145 77 223 -16 q 67 326 67 171 q 154 605 67 500 q 388 710 242 710 q 641 493 569 710 l 644 493 l 708 694 l 824 694 m 592 352 q 508 557 556 495 q 389 618 460 618 q 239 539 297 618 q 181 333 181 460 q 232 150 181 219 q 362 81 283 81 q 580 321 493 81 l 592 352 m 453 796 l 389 796 l 270 1041 l 384 1041 l 453 796 m 576 -249 q 477 -303 535 -303 q 393 -275 426 -303 q 361 -200 361 -247 l 361 -80 l 445 -80 l 445 -206 q 491 -252 445 -252 q 546 -223 519 -252 l 576 -249 "},"Ɠ":{"x_min":63.75,"x_max":958.328125,"ha":961,"o":"m 958 1022 q 906 1036 930 1036 q 828 922 828 1036 q 838 816 828 873 l 833 812 q 561 885 704 885 q 288 773 394 885 q 183 481 183 661 q 280 191 183 297 q 543 86 377 86 q 740 131 657 86 l 740 404 l 527 404 l 527 507 l 855 507 l 855 66 q 529 -16 709 -16 q 192 118 320 -16 q 63 473 63 252 q 206 844 63 699 q 568 988 349 988 q 730 965 650 988 q 777 1082 732 1033 q 893 1130 823 1130 q 958 1117 925 1130 l 958 1022 "},"Ć":{"x_min":63.75,"x_max":789.453125,"ha":860,"o":"m 789 40 q 520 -16 681 -16 q 188 117 313 -16 q 63 467 63 250 q 204 845 63 701 q 560 988 344 988 q 789 948 698 988 l 789 827 q 558 885 685 885 q 287 773 391 885 q 183 474 183 661 q 280 191 183 297 q 535 86 377 86 q 789 151 682 86 l 789 40 m 673 1284 l 495 1062 l 409 1062 l 560 1284 l 673 1284 "},"ẓ":{"x_min":22.375,"x_max":596.84375,"ha":628,"o":"m 596 662 l 185 94 l 592 94 l 592 0 l 22 0 l 22 34 l 433 599 l 61 599 l 61 694 l 596 694 l 596 662 m 323 -212 q 275 -193 295 -212 q 256 -145 256 -173 q 276 -99 256 -118 q 323 -80 296 -80 q 370 -99 351 -80 q 390 -145 390 -118 q 370 -193 390 -173 q 323 -212 351 -212 "},"£":{"x_min":71.890625,"x_max":682.296875,"ha":749,"o":"m 682 0 l 71 0 l 71 91 q 219 303 219 138 l 219 430 l 86 430 l 86 526 l 219 526 l 219 698 q 293 907 219 826 q 484 988 367 988 q 629 961 564 988 l 629 855 q 486 894 561 894 q 330 686 330 894 l 330 526 l 531 526 l 531 430 l 330 430 l 330 324 q 200 94 330 160 l 682 94 l 682 0 "},"ů":{"x_min":97.671875,"x_max":674.15625,"ha":786,"o":"m 674 0 l 562 0 l 562 109 l 560 109 q 345 -16 491 -16 q 97 279 97 -16 l 97 694 l 208 694 l 208 297 q 376 77 208 77 q 510 137 457 77 q 562 294 562 197 l 562 694 l 674 694 l 674 0 m 382 797 q 284 833 323 797 q 245 926 245 868 q 285 1024 245 987 q 387 1060 325 1060 q 486 1024 447 1060 q 525 930 525 987 q 483 835 525 873 q 382 797 442 797 m 382 1005 q 328 983 350 1005 q 306 929 306 961 q 382 853 306 853 q 438 874 416 853 q 461 929 461 896 q 438 984 461 962 q 382 1005 416 1005 "},"Ṻ":{"x_min":115.296875,"x_max":838.96875,"ha":954,"o":"m 838 393 q 469 -16 838 -16 q 115 377 115 -16 l 115 972 l 229 972 l 229 385 q 481 86 229 86 q 725 375 725 86 l 725 972 l 838 972 l 838 393 m 611 1188 q 564 1207 583 1188 q 544 1256 544 1226 q 563 1303 544 1284 q 610 1322 583 1322 q 657 1302 637 1322 q 677 1256 677 1283 q 658 1208 677 1227 q 611 1188 639 1188 m 350 1188 q 301 1208 321 1188 q 282 1256 282 1227 q 301 1303 282 1283 q 349 1322 321 1322 q 396 1302 376 1322 q 416 1256 416 1283 q 397 1208 416 1227 q 350 1188 378 1188 m 655 1062 l 311 1062 l 311 1136 l 655 1136 l 655 1062 "},"Ǵ":{"x_min":63.75,"x_max":854.5625,"ha":953,"o":"m 854 66 q 529 -16 708 -16 q 192 118 320 -16 q 63 473 63 252 q 206 844 63 699 q 568 988 349 988 q 834 937 727 988 l 834 811 q 555 885 716 885 q 287 773 392 885 q 183 481 183 660 q 280 191 183 297 q 543 86 377 86 q 740 131 657 86 l 740 404 l 527 404 l 527 507 l 854 507 l 854 66 m 729 1285 l 551 1063 l 465 1063 l 616 1285 l 729 1285 "},"Ğ":{"x_min":63.75,"x_max":854.5625,"ha":953,"o":"m 854 66 q 529 -16 708 -16 q 192 118 320 -16 q 63 473 63 252 q 206 844 63 699 q 568 988 349 988 q 834 937 727 988 l 834 811 q 555 885 716 885 q 287 773 392 885 q 183 481 183 660 q 280 191 183 297 q 543 86 377 86 q 740 131 657 86 l 740 404 l 527 404 l 527 507 l 854 507 l 854 66 m 724 1231 q 664 1108 717 1155 q 535 1061 611 1061 q 405 1107 455 1061 q 352 1231 355 1154 l 419 1231 q 536 1126 428 1126 q 615 1155 582 1126 q 655 1231 648 1183 l 724 1231 "},"ә":{"x_min":55.609375,"x_max":661.265625,"ha":726,"o":"m 55 375 l 545 375 q 483 554 542 491 q 319 617 424 617 q 104 539 202 617 l 104 644 q 345 710 195 710 q 577 616 493 710 q 661 349 661 521 q 569 85 661 186 q 341 -16 477 -16 q 129 72 204 -16 q 55 316 55 161 l 55 375 m 544 280 l 169 280 q 216 130 170 183 q 343 77 261 77 q 476 133 421 77 q 544 280 531 189 "},"Ї":{"x_min":-10.21875,"x_max":385.1875,"ha":370,"o":"m 241 0 l 127 0 l 127 972 l 241 972 l 241 0 m 318 1062 q 271 1081 291 1062 q 252 1129 252 1100 q 271 1176 252 1157 q 317 1195 290 1195 q 365 1176 345 1195 q 385 1129 385 1157 q 366 1081 385 1101 q 318 1062 347 1062 m 58 1062 q 9 1082 29 1062 q -10 1129 -10 1102 q 9 1176 -10 1157 q 56 1195 28 1195 q 104 1176 84 1195 q 124 1129 124 1157 q 105 1081 124 1101 q 58 1062 85 1062 "},"û":{"x_min":97.671875,"x_max":674.15625,"ha":786,"o":"m 674 0 l 562 0 l 562 109 l 560 109 q 345 -16 491 -16 q 97 279 97 -16 l 97 694 l 208 694 l 208 297 q 376 77 208 77 q 510 137 457 77 q 562 294 562 197 l 562 694 l 674 694 l 674 0 m 578 826 l 496 826 l 384 982 l 273 826 l 196 826 l 342 1051 l 432 1051 l 578 826 "},"Ẑ":{"x_min":22.375,"x_max":762.328125,"ha":792,"o":"m 762 945 l 192 103 l 748 103 l 748 0 l 22 0 l 22 31 l 587 869 l 67 869 l 67 972 l 762 972 l 762 945 m 593 1063 l 511 1063 l 399 1219 l 288 1063 l 211 1063 l 357 1288 l 447 1288 l 593 1063 "},"Ź":{"x_min":22.375,"x_max":762.328125,"ha":792,"o":"m 762 945 l 192 103 l 748 103 l 748 0 l 22 0 l 22 31 l 587 869 l 67 869 l 67 972 l 762 972 l 762 945 m 588 1285 l 410 1063 l 324 1063 l 475 1285 l 588 1285 "},"Ṁ":{"x_min":127.5,"x_max":1119.0625,"ha":1247,"o":"m 1119 0 l 1005 0 l 1005 652 q 1015 841 1005 729 l 1012 841 q 983 747 996 775 l 651 0 l 595 0 l 263 741 q 234 841 249 774 l 231 841 q 237 651 237 783 l 237 0 l 127 0 l 127 972 l 278 972 l 576 294 q 621 177 611 216 l 625 177 q 672 297 654 257 l 976 972 l 1119 972 l 1119 0 m 623 1063 q 576 1082 596 1063 q 556 1130 556 1101 q 575 1176 556 1157 q 623 1195 595 1195 q 670 1176 651 1195 q 689 1130 689 1158 q 670 1082 689 1102 q 623 1063 651 1063 "},"ɔ":{"x_min":61.046875,"x_max":581.921875,"ha":647,"o":"m 62 22 l 62 134 q 233 77 143 77 q 402 151 337 77 q 467 351 467 226 q 403 545 467 473 q 231 617 339 617 q 61 560 143 617 l 61 665 q 249 710 142 710 q 490 614 398 710 q 581 362 581 517 q 486 86 581 189 q 230 -16 391 -16 q 62 22 135 -16 "},"ỵ":{"x_min":9.5,"x_max":665.34375,"ha":672,"o":"m 665 694 l 345 -111 q 105 -326 260 -326 q 33 -318 62 -326 l 33 -218 q 99 -230 69 -230 q 225 -130 183 -230 l 280 1 l 9 694 l 132 694 l 320 160 q 335 107 324 149 l 339 107 q 352 158 342 123 l 550 694 l 665 694 m 536 -212 q 488 -193 508 -212 q 469 -145 469 -173 q 489 -99 469 -118 q 536 -80 509 -80 q 583 -99 564 -80 q 603 -145 603 -118 q 583 -193 603 -173 q 536 -212 564 -212 "},"ḇ":{"x_min":112.578125,"x_max":751.46875,"ha":817,"o":"m 226 100 l 223 100 l 223 0 l 112 0 l 112 1028 l 223 1028 l 223 572 l 226 572 q 466 710 308 710 q 675 617 600 710 q 751 367 751 524 q 666 88 751 193 q 434 -16 581 -16 q 226 100 297 -16 m 223 380 l 223 283 q 279 137 223 197 q 421 77 335 77 q 580 154 522 77 q 637 369 637 231 q 583 551 637 485 q 438 617 530 617 q 282 549 341 617 q 223 380 223 482 m 602 -152 l 258 -152 l 258 -79 l 602 -79 l 602 -152 "},"ʚ":{"x_min":62.390625,"x_max":695.859375,"ha":761,"o":"m 205 360 l 205 363 q 77 519 77 404 q 150 657 77 604 q 347 710 224 710 q 602 615 508 710 q 695 354 695 519 q 598 85 695 187 q 336 -16 501 -16 q 134 37 206 -16 q 62 184 62 90 q 205 360 62 324 m 420 405 l 420 309 l 362 309 q 176 193 176 309 q 220 108 176 140 q 340 77 263 77 q 517 148 453 77 q 581 349 581 219 q 517 546 581 475 q 341 617 452 617 q 230 588 271 617 q 189 514 189 560 q 236 435 189 465 q 363 405 282 405 l 420 405 "},"Ῑ":{"x_min":11.734375,"x_max":356.265625,"ha":370,"o":"m 241 0 l 127 0 l 127 972 l 241 972 l 241 0 m 356 1050 l 11 1050 l 11 1124 l 356 1124 l 356 1050 "},"Ń":{"x_min":127.5,"x_max":911.53125,"ha":1039,"o":"m 911 0 l 771 0 l 271 775 q 240 836 252 804 l 236 836 q 241 702 241 805 l 241 0 l 127 0 l 127 972 l 275 972 l 762 209 q 801 144 792 162 l 804 144 q 797 287 797 186 l 797 972 l 911 972 l 911 0 m 682 1284 l 504 1062 l 418 1062 l 569 1284 l 682 1284 "},"ῖ":{"x_min":-21.96875,"x_max":357.84375,"ha":370,"o":"m 352 6 q 270 -8 310 -8 q 112 179 112 -8 l 112 694 l 223 694 l 223 183 q 291 89 223 89 q 352 101 320 89 l 352 6 m 357 807 l 285 807 q 167 901 269 901 q 49 807 66 901 l -21 807 q 37 923 -15 878 q 167 968 89 968 q 298 923 246 968 q 357 807 351 878 "},"ḿ":{"x_min":112.578125,"x_max":1098.71875,"ha":1196,"o":"m 1098 0 l 987 0 l 987 398 q 951 565 987 514 q 832 617 916 617 q 711 552 760 617 q 661 396 661 486 l 661 0 l 550 0 l 550 412 q 392 617 550 617 q 271 555 318 617 q 223 396 223 494 l 223 0 l 112 0 l 112 694 l 223 694 l 223 584 l 226 584 q 442 710 300 710 q 566 671 513 710 q 638 567 619 631 q 869 710 716 710 q 1098 427 1098 710 l 1098 0 m 736 1048 l 558 826 l 472 826 l 623 1048 l 736 1048 "},"ᾛ":{"x_min":-44.25,"x_max":1143.625,"ha":1274,"o":"m 1143 0 l 1029 0 l 1029 443 l 526 443 l 526 0 l 412 0 l 412 972 l 526 972 l 526 545 l 1029 545 l 1029 972 l 1143 972 l 1143 0 m 103 764 l 81 723 q -44 893 -44 777 q 35 975 -44 975 q 83 957 65 975 q 102 912 102 939 q 80 863 102 882 q 24 845 58 845 q 103 764 41 792 m 330 726 l 267 726 l 148 971 l 262 971 l 330 726 m 950 -249 q 851 -303 909 -303 q 767 -275 800 -303 q 735 -200 735 -247 l 735 -80 l 819 -80 l 819 -206 q 865 -252 819 -252 q 920 -223 893 -252 l 950 -249 "},".":{"x_min":75.96875,"x_max":227.890625,"ha":301,"o":"m 151 -14 q 98 7 120 -14 q 75 61 75 29 q 98 114 75 92 q 151 137 120 137 q 205 114 183 137 q 227 61 227 92 q 205 7 227 29 q 151 -14 183 -14 "},"Ѡ":{"x_min":63.75,"x_max":1504.296875,"ha":1568,"o":"m 784 39 q 515 -16 659 -16 q 187 118 311 -16 q 63 478 63 253 q 185 846 63 704 q 514 988 306 988 q 695 959 621 988 l 695 838 q 512 885 623 885 q 272 775 361 885 q 183 481 183 664 q 274 189 183 293 q 529 86 366 86 q 726 131 642 86 l 726 404 l 514 404 l 514 507 l 1053 507 l 1053 404 l 840 404 l 840 131 q 1039 86 923 86 q 1293 189 1201 86 q 1384 481 1384 293 q 1296 774 1384 663 q 1055 885 1207 885 q 872 838 944 885 l 872 959 q 1053 988 946 988 q 1382 847 1260 988 q 1504 480 1504 705 q 1380 119 1504 255 q 1052 -16 1256 -16 q 784 39 910 -16 "},"ǀ":{"x_min":116.65625,"x_max":217.03125,"ha":332,"o":"m 217 -326 l 116 -326 l 116 1062 l 217 1062 l 217 -326 "},"π":{"x_min":10.859375,"x_max":812.515625,"ha":871,"o":"m 812 599 l 661 599 l 661 184 q 732 88 661 88 q 790 103 750 88 l 790 6 q 708 -8 748 -8 q 550 179 550 -8 l 550 599 l 286 599 l 286 188 q 265 0 286 58 l 149 0 q 174 188 174 61 l 174 599 q 10 545 72 597 l 10 648 q 185 694 77 694 l 812 694 l 812 599 "},"Ṗ":{"x_min":127.5,"x_max":722.3125,"ha":778,"o":"m 241 367 l 241 0 l 127 0 l 127 972 l 394 972 q 636 896 550 972 q 722 682 722 820 q 627 455 722 543 q 369 367 531 367 l 241 367 m 241 869 l 241 470 l 360 470 q 540 524 478 470 q 602 676 602 578 q 375 869 602 869 l 241 869 m 376 1063 q 329 1082 349 1063 q 309 1130 309 1101 q 328 1176 309 1157 q 376 1195 348 1195 q 423 1176 404 1195 q 442 1130 442 1158 q 423 1082 442 1102 q 376 1063 404 1063 "},"ʂ":{"x_min":70.53125,"x_max":495.78125,"ha":553,"o":"m 161 -1 l 161 -27 q 262 -143 161 -143 q 343 -119 302 -143 l 343 -202 q 249 -223 299 -223 q 118 -175 166 -223 q 70 -37 70 -126 l 70 144 q 250 77 158 77 q 383 174 383 77 q 354 242 383 215 q 240 305 324 268 q 106 395 140 349 q 71 510 71 442 q 140 653 71 596 q 316 710 208 710 q 465 679 399 710 l 465 567 q 307 617 396 617 q 219 590 252 617 q 185 519 185 562 q 209 452 185 477 q 318 390 232 426 q 457 299 418 347 q 495 185 495 252 q 429 40 495 97 q 249 -16 364 -16 q 161 -1 205 -16 "},"Ẫ":{"x_min":14.921875,"x_max":880.328125,"ha":896,"o":"m 880 0 l 754 0 l 651 272 l 238 272 l 141 0 l 14 0 l 387 972 l 505 972 l 880 0 m 613 375 l 461 789 q 446 854 453 809 l 443 854 q 427 789 436 813 l 276 375 l 613 375 m 660 1431 q 628 1323 660 1362 q 539 1283 597 1283 q 435 1308 494 1283 q 349 1333 376 1333 q 289 1271 289 1333 l 225 1271 q 349 1417 225 1417 q 447 1391 391 1417 q 536 1365 502 1365 q 593 1431 593 1365 l 660 1431 m 633 1061 l 551 1061 l 440 1161 l 328 1061 l 252 1061 l 397 1230 l 488 1230 l 633 1061 "},"Ъ":{"x_min":27.8125,"x_max":912.890625,"ha":980,"o":"m 307 0 l 307 868 l 27 868 l 27 972 l 421 972 l 421 560 l 607 560 q 832 490 751 560 q 912 290 912 420 q 828 77 912 155 q 596 0 743 0 l 307 0 m 421 457 l 421 103 l 581 103 q 738 150 682 103 q 793 283 793 198 q 581 457 793 457 l 421 457 "},"ʯ":{"x_min":-25.09375,"x_max":894.578125,"ha":822,"o":"m 894 -307 q 805 -326 851 -326 q 652 -267 706 -326 q 598 -100 598 -208 l 598 115 l 595 115 q 367 -16 515 -16 q 132 266 132 -16 l 132 497 q 46 617 132 617 q -25 596 8 617 l -25 691 q 67 710 22 710 q 244 504 244 710 l 244 294 q 402 77 244 77 q 541 140 485 77 q 598 301 598 204 l 598 694 l 709 694 l 709 -96 q 817 -231 709 -231 q 894 -214 858 -231 l 894 -307 "},"ή":{"x_min":88.171875,"x_max":689.078125,"ha":799,"o":"m 689 -274 l 576 -274 l 576 387 q 416 609 576 609 q 277 549 332 609 q 223 398 223 489 l 223 0 l 112 0 l 112 470 q 88 694 112 629 l 202 694 q 221 577 221 644 l 223 577 q 454 710 299 710 q 689 427 689 710 l 689 -274 m 541 1041 l 422 796 l 358 796 l 428 1041 l 541 1041 "},"ȵ":{"x_min":112.578125,"x_max":1044.46875,"ha":878,"o":"m 714 -257 q 704 -326 705 -300 l 605 -326 q 637 -189 610 -257 q 577 13 577 -108 l 577 396 q 416 617 577 617 q 278 554 333 617 q 223 396 223 491 l 223 0 l 112 0 l 112 694 l 223 694 l 223 579 l 226 579 q 454 710 305 710 q 628 637 568 710 q 689 424 689 563 l 689 13 q 701 -83 689 -39 q 873 0 771 0 q 996 -39 949 0 q 1044 -141 1044 -79 q 988 -248 1044 -205 q 847 -291 933 -291 q 714 -257 771 -291 m 752 -166 q 847 -198 792 -198 q 945 -141 945 -198 q 870 -90 945 -90 q 752 -166 798 -90 "},"Ś":{"x_min":82.0625,"x_max":623.96875,"ha":690,"o":"m 82 39 l 82 173 q 191 110 125 134 q 316 86 257 86 q 504 231 504 86 q 466 333 504 288 q 299 451 429 378 q 133 579 183 517 q 83 729 83 642 q 168 915 83 843 q 392 988 252 988 q 583 954 522 988 l 583 826 q 386 885 505 885 q 252 845 301 885 q 202 739 202 804 q 232 642 202 685 q 392 527 261 599 q 571 392 518 457 q 623 245 623 326 q 539 54 623 125 q 301 -16 455 -16 q 180 0 246 -16 q 82 39 113 16 m 539 1283 l 361 1061 l 275 1061 l 426 1283 l 539 1283 "},"à":{"x_min":61.046875,"x_max":609.71875,"ha":707,"o":"m 609 0 l 498 0 l 498 108 l 495 108 q 282 -16 423 -16 q 119 38 178 -16 q 61 184 61 93 q 290 411 61 379 l 498 440 q 355 617 498 617 q 128 531 229 617 l 128 645 q 364 710 231 710 q 609 451 609 710 l 609 0 m 498 351 l 330 328 q 214 289 253 317 q 174 192 174 262 q 211 109 174 141 q 307 77 247 77 q 444 135 390 77 q 498 282 498 193 l 498 351 m 457 826 l 371 826 l 193 1048 l 307 1048 l 457 826 "},"¦":{"x_min":116.65625,"x_max":217.03125,"ha":332,"o":"m 217 484 l 116 484 l 116 1062 l 217 1062 l 217 484 m 217 -326 l 116 -326 l 116 250 l 217 250 l 217 -326 "},"Ѣ":{"x_min":27.8125,"x_max":828.78125,"ha":897,"o":"m 225 0 l 225 773 l 27 773 l 27 877 l 225 877 l 225 972 l 339 972 l 339 877 l 573 877 l 573 773 l 339 773 l 339 560 l 523 560 q 748 490 667 560 q 828 290 828 421 q 744 77 828 155 q 514 0 660 0 l 225 0 m 339 457 l 339 103 l 498 103 q 654 150 600 103 q 709 283 709 198 q 498 457 709 457 l 339 457 "},"ᾼ":{"x_min":14.921875,"x_max":880.328125,"ha":896,"o":"m 880 0 l 754 0 l 651 272 l 238 272 l 141 0 l 14 0 l 387 972 l 505 972 l 880 0 m 613 375 l 461 789 q 446 854 453 809 l 443 854 q 427 789 436 813 l 276 375 l 613 375 m 625 -249 q 526 -303 584 -303 q 442 -275 475 -303 q 410 -200 410 -247 l 410 -80 l 494 -80 l 494 -206 q 540 -252 494 -252 q 595 -223 568 -252 l 625 -249 "},"Ỷ":{"x_min":12.203125,"x_max":759.609375,"ha":768,"o":"m 759 972 l 438 359 l 438 0 l 324 0 l 324 356 l 12 972 l 141 972 l 359 533 q 383 473 363 524 l 385 473 q 411 533 392 496 l 638 972 l 759 972 m 306 1301 q 361 1304 332 1304 q 459 1275 420 1304 q 497 1199 497 1247 q 471 1129 497 1157 q 406 1095 445 1100 l 406 1062 l 333 1062 l 333 1140 q 409 1191 409 1140 q 345 1234 409 1234 q 306 1228 334 1234 l 306 1301 "},"Ṕ":{"x_min":127.5,"x_max":722.3125,"ha":778,"o":"m 241 367 l 241 0 l 127 0 l 127 972 l 394 972 q 636 896 550 972 q 722 682 722 820 q 627 455 722 543 q 369 367 531 367 l 241 367 m 241 869 l 241 470 l 360 470 q 540 524 478 470 q 602 676 602 578 q 375 869 602 869 l 241 869 m 508 1285 l 330 1063 l 244 1063 l 395 1285 l 508 1285 "},"ҁ":{"x_min":65.109375,"x_max":587.34375,"ha":608,"o":"m 587 562 q 421 617 510 617 q 247 540 315 617 q 179 340 179 464 q 243 147 179 218 q 415 77 307 77 q 462 83 435 77 l 462 -278 l 352 -278 l 352 -12 q 143 96 222 2 q 65 330 65 191 q 163 606 65 502 q 425 710 261 710 q 587 676 517 710 l 587 562 "},"Ҧ":{"x_min":127.5,"x_max":1344.234375,"ha":1404,"o":"m 746 -226 l 746 -108 q 961 -181 857 -181 q 1158 -103 1088 -181 q 1227 113 1227 -25 q 1140 357 1227 257 q 906 458 1053 458 l 858 458 l 858 0 l 744 0 l 744 870 l 241 870 l 241 0 l 127 0 l 127 972 l 858 972 l 858 558 l 908 558 q 1226 437 1108 558 q 1344 118 1344 315 q 1243 -166 1344 -54 q 964 -278 1142 -278 q 746 -226 846 -278 "},"Ϣ":{"x_min":124.796875,"x_max":1110.921875,"ha":1239,"o":"m 1110 201 q 1002 -203 1110 -79 q 658 -326 894 -326 q 527 -318 610 -326 q 412 -311 444 -311 q 283 -326 341 -311 l 283 -225 q 417 -208 341 -208 q 533 -215 455 -208 q 663 -223 609 -223 q 909 -145 831 -223 q 996 104 986 -66 l 992 104 q 781 -16 918 -16 q 587 127 636 -16 q 355 -16 510 -16 q 124 290 124 -16 l 124 972 l 238 972 l 238 303 q 273 139 238 191 q 393 86 308 86 q 512 150 463 86 q 561 306 561 215 l 561 972 l 675 972 l 675 290 q 828 86 675 86 q 949 147 902 86 q 996 306 996 208 l 996 972 l 1110 972 l 1110 201 "},"e":{"x_min":65.109375,"x_max":670.765625,"ha":726,"o":"m 670 319 l 180 319 q 242 140 183 203 q 406 77 302 77 q 622 154 524 77 l 622 50 q 380 -16 531 -16 q 149 78 233 -16 q 65 344 65 172 q 157 608 65 506 q 385 710 248 710 q 596 622 521 710 q 670 377 670 534 l 670 319 m 556 413 q 510 563 556 510 q 383 617 464 617 q 249 560 304 617 q 181 413 194 504 l 556 413 "},"Ἱ":{"x_min":-45.09375,"x_max":328.453125,"ha":458,"o":"m 328 0 l 214 0 l 214 972 l 328 972 l 328 0 m 115 731 l 87 688 q -6 772 31 716 q -45 889 -45 829 q -21 952 -45 927 q 37 976 1 976 q 87 956 67 976 q 106 907 106 937 q 33 840 106 844 q 115 731 44 769 "},"ὗ":{"x_min":106.734375,"x_max":725.265625,"ha":806,"o":"m 106 694 l 216 694 l 216 312 q 268 140 216 200 q 415 81 320 81 q 561 141 508 81 q 613 310 613 201 q 513 694 613 513 l 637 694 q 725 315 725 524 q 640 72 725 162 q 415 -16 555 -16 q 188 65 269 -16 q 106 293 106 146 l 106 694 m 552 991 l 481 991 q 353 1065 452 1065 q 226 991 254 1065 l 155 991 q 226 1093 172 1056 q 353 1130 280 1130 q 481 1093 427 1130 q 552 991 535 1056 m 356 865 q 417 811 360 826 l 404 775 q 284 898 284 800 q 305 953 284 931 q 359 975 326 975 q 420 919 420 975 q 356 865 420 865 "},"ļ":{"x_min":92.921875,"x_max":323.515625,"ha":336,"o":"m 92 -291 l 92 -230 q 140 -234 118 -234 q 236 -173 236 -234 q 148 -120 236 -120 q 120 -123 140 -120 l 120 0 l 112 0 l 112 1028 l 223 1028 l 223 0 l 193 0 l 193 -70 q 288 -98 252 -70 q 323 -173 323 -126 q 137 -293 323 -293 q 92 -291 111 -293 "},"Ṃ":{"x_min":127.5,"x_max":1119.0625,"ha":1247,"o":"m 1119 0 l 1005 0 l 1005 652 q 1015 841 1005 729 l 1012 841 q 983 747 996 775 l 651 0 l 595 0 l 263 741 q 234 841 249 774 l 231 841 q 237 651 237 783 l 237 0 l 127 0 l 127 972 l 278 972 l 576 294 q 621 177 611 216 l 625 177 q 672 297 654 257 l 976 972 l 1119 972 l 1119 0 m 626 -212 q 578 -193 598 -212 q 559 -145 559 -173 q 579 -99 559 -118 q 626 -80 599 -80 q 673 -99 654 -80 q 693 -145 693 -118 q 673 -193 693 -173 q 626 -212 654 -212 "},"Ѓ":{"x_min":127.5,"x_max":632.109375,"ha":655,"o":"m 632 866 l 242 866 l 242 0 l 127 0 l 127 972 l 632 972 l 632 866 m 583 1284 l 405 1062 l 319 1062 l 470 1284 l 583 1284 "},"ò":{"x_min":65.109375,"x_max":748.765625,"ha":814,"o":"m 402 -16 q 157 81 248 -16 q 65 339 65 178 q 160 612 65 514 q 419 710 256 710 q 661 615 574 710 q 748 349 748 519 q 654 83 748 183 q 402 -16 560 -16 m 411 617 q 241 544 303 617 q 179 343 179 471 q 242 148 179 219 q 411 77 305 77 q 576 147 518 77 q 634 345 634 217 q 576 546 634 476 q 411 617 518 617 m 506 826 l 420 826 l 242 1048 l 356 1048 l 506 826 "},"^":{"x_min":155.984375,"x_max":796.234375,"ha":950,"o":"m 796 423 l 694 423 l 469 843 l 465 843 l 255 423 l 155 423 l 442 988 l 486 988 l 796 423 "},"Ӑ":{"x_min":14.921875,"x_max":880.328125,"ha":896,"o":"m 880 0 l 754 0 l 651 272 l 238 272 l 141 0 l 14 0 l 387 972 l 505 972 l 880 0 m 613 375 l 461 789 q 446 854 453 809 l 443 854 q 427 789 436 813 l 276 375 l 613 375 "},"к":{"x_min":112.578125,"x_max":689.078125,"ha":690,"o":"m 689 0 l 533 0 l 226 333 l 223 333 l 223 0 l 112 0 l 112 694 l 223 694 l 223 376 l 226 376 l 518 694 l 663 694 l 341 359 l 689 0 "},"Ȣ":{"x_min":42.046875,"x_max":781.984375,"ha":819,"o":"m 231 585 q 92 808 92 657 q 130 972 92 889 l 246 972 q 206 813 206 896 q 262 684 206 735 q 411 633 318 633 q 560 684 504 633 q 617 813 617 735 q 575 972 617 893 l 693 972 q 730 808 730 888 q 588 585 730 668 q 730 478 679 550 q 781 311 781 405 q 676 74 781 165 q 408 -16 570 -16 q 143 70 244 -16 q 42 305 42 158 q 231 585 42 499 m 411 527 q 232 468 303 527 q 161 307 161 408 q 234 146 161 206 q 411 86 307 86 q 590 146 518 86 q 662 307 662 206 q 588 468 662 408 q 411 527 514 527 "},"᾿":{"x_min":328.265625,"x_max":487.640625,"ha":814,"o":"m 354 777 l 328 820 q 409 929 398 858 q 356 949 377 930 q 335 996 335 968 q 354 1045 335 1026 q 404 1065 374 1065 q 463 1040 440 1065 q 487 978 487 1015 q 448 862 487 918 q 354 777 409 805 "},"ǘ":{"x_min":97.671875,"x_max":674.15625,"ha":786,"o":"m 674 0 l 562 0 l 562 109 l 560 109 q 345 -16 491 -16 q 97 279 97 -16 l 97 694 l 208 694 l 208 297 q 376 77 208 77 q 510 137 457 77 q 562 294 562 197 l 562 694 l 674 694 l 674 0 m 601 1195 l 423 972 l 337 972 l 489 1195 l 601 1195 m 522 826 q 475 845 495 826 q 455 893 455 864 q 474 940 455 921 q 520 959 493 959 q 569 940 549 959 q 588 893 588 921 q 569 845 588 865 q 522 826 550 826 m 261 826 q 212 845 233 826 q 192 893 192 864 q 211 940 192 921 q 259 959 231 959 q 307 940 287 959 q 328 893 328 921 q 308 845 328 865 q 261 826 288 826 "},"ṉ":{"x_min":112.578125,"x_max":689.078125,"ha":786,"o":"m 689 0 l 577 0 l 577 396 q 416 617 577 617 q 278 554 333 617 q 223 396 223 491 l 223 0 l 112 0 l 112 694 l 223 694 l 223 579 l 226 579 q 454 710 305 710 q 628 637 568 710 q 689 424 689 563 l 689 0 m 582 -154 l 238 -154 l 238 -81 l 582 -81 l 582 -154 "},"ѻ":{"x_min":65.109375,"x_max":837.609375,"ha":903,"o":"m 527 -10 q 453 -54 501 -54 q 379 -12 405 -54 q 145 96 225 4 q 65 339 65 188 q 387 706 65 670 q 461 747 413 747 q 534 706 508 747 q 837 349 837 672 q 756 104 837 199 q 527 -10 674 10 m 533 609 q 461 572 507 572 q 387 612 413 572 q 179 343 179 580 q 380 83 179 116 q 453 120 406 120 q 524 83 499 120 q 723 345 723 115 q 533 609 723 572 "},"ū":{"x_min":97.671875,"x_max":674.15625,"ha":786,"o":"m 674 0 l 562 0 l 562 109 l 560 109 q 345 -16 491 -16 q 97 279 97 -16 l 97 694 l 208 694 l 208 297 q 376 77 208 77 q 510 137 457 77 q 562 294 562 197 l 562 694 l 674 694 l 674 0 m 555 826 l 211 826 l 211 900 l 555 900 l 555 826 "},"č":{"x_min":65.109375,"x_max":587.34375,"ha":642,"o":"m 585 31 q 396 -16 505 -16 q 156 80 247 -16 q 65 330 65 177 q 163 606 65 502 q 425 710 261 710 q 587 676 517 710 l 587 562 q 421 617 510 617 q 247 540 315 617 q 179 340 179 464 q 243 147 179 218 q 415 77 307 77 q 585 137 505 77 l 585 31 m 582 1049 l 437 826 l 347 826 l 201 1049 l 279 1049 l 390 894 l 501 1049 l 582 1049 "},"’":{"x_min":74.609375,"x_max":249.59375,"ha":318,"o":"m 249 988 l 154 686 l 74 686 l 149 988 l 249 988 "},"Ν":{"x_min":127.5,"x_max":911.53125,"ha":1039,"o":"m 911 0 l 771 0 l 271 775 q 240 836 252 804 l 236 836 q 241 702 241 805 l 241 0 l 127 0 l 127 972 l 275 972 l 762 209 q 801 144 792 162 l 804 144 q 797 287 797 186 l 797 972 l 911 972 l 911 0 "},"Q":{"x_min":63.75,"x_max":983.421875,"ha":1047,"o":"m 634 -2 l 861 -238 l 704 -238 l 512 -16 q 187 120 311 -15 q 63 474 63 255 q 190 849 63 709 q 538 988 316 988 q 859 853 736 988 q 983 498 983 717 q 892 165 983 297 q 634 -2 801 33 m 527 885 q 278 775 374 885 q 183 484 183 664 q 276 195 183 305 q 519 86 369 86 q 771 190 679 86 q 864 482 864 295 q 774 780 864 675 q 527 885 685 885 "},"ȝ":{"x_min":20.34375,"x_max":562.921875,"ha":597,"o":"m 31 -316 l 31 -218 q 134 -230 76 -230 q 360 -162 271 -230 q 448 12 448 -94 q 393 149 448 96 q 242 201 337 201 q 119 181 183 201 l 119 276 l 184 288 q 351 358 291 309 q 411 474 411 408 q 361 579 411 541 q 218 617 311 617 q 20 561 116 617 l 20 663 q 230 710 111 710 q 443 646 365 710 q 522 480 522 582 q 364 271 522 345 l 364 266 q 508 178 454 246 q 562 16 562 111 q 444 -227 562 -130 q 139 -324 326 -324 q 31 -316 73 -324 "},"ᾅ":{"x_min":67.828125,"x_max":824.71875,"ha":859,"o":"m 824 694 l 687 352 q 792 0 698 309 l 677 0 l 625 211 l 622 211 q 504 35 568 86 q 348 -16 441 -16 q 145 77 223 -16 q 67 326 67 171 q 154 605 67 500 q 388 710 242 710 q 641 493 569 710 l 644 493 l 708 694 l 824 694 m 592 352 q 508 557 556 495 q 389 618 460 618 q 239 539 297 618 q 181 333 181 460 q 232 150 181 219 q 362 81 283 81 q 580 321 493 81 l 592 352 m 385 834 l 365 793 q 237 963 237 849 q 317 1045 237 1045 q 365 1027 347 1045 q 384 982 384 1009 q 362 933 384 952 q 306 915 340 915 q 385 834 322 862 m 630 1041 l 510 796 l 446 796 l 516 1041 l 630 1041 m 576 -249 q 477 -303 535 -303 q 393 -275 426 -303 q 361 -200 361 -247 l 361 -80 l 445 -80 l 445 -206 q 491 -252 445 -252 q 546 -223 519 -252 l 576 -249 "},"œ":{"x_min":65.109375,"x_max":1237.75,"ha":1289,"o":"m 1237 319 l 746 319 q 808 140 748 203 q 972 77 868 77 q 1188 154 1091 77 l 1188 50 q 946 -16 1096 -16 q 687 144 763 -16 l 685 144 q 402 -16 596 -16 q 156 80 247 -16 q 65 337 65 177 q 161 611 65 512 q 420 710 257 710 q 693 551 619 710 l 695 551 q 956 710 776 710 q 1163 621 1089 710 q 1237 379 1237 532 l 1237 319 m 1123 413 q 1077 563 1122 510 q 952 617 1031 617 q 814 559 871 617 q 747 413 758 501 l 1123 413 m 411 617 q 241 543 303 617 q 179 340 179 470 q 241 147 179 218 q 409 77 303 77 q 576 146 517 77 q 634 344 634 216 q 576 546 634 476 q 411 617 517 617 "},"Ộ":{"x_min":63.75,"x_max":983.421875,"ha":1047,"o":"m 519 -16 q 188 120 312 -16 q 63 474 63 256 q 190 849 63 709 q 535 988 317 988 q 860 853 737 988 q 983 498 983 717 q 857 122 983 260 q 519 -16 731 -16 m 527 885 q 278 775 374 885 q 183 484 183 664 q 276 195 183 305 q 519 86 369 86 q 771 190 679 86 q 864 482 864 295 q 774 780 864 675 q 527 885 685 885 m 729 1063 l 647 1063 l 535 1219 l 424 1063 l 347 1063 l 493 1288 l 583 1288 l 729 1063 m 524 -212 q 476 -193 496 -212 q 457 -145 457 -173 q 477 -99 457 -118 q 524 -80 497 -80 q 571 -99 552 -80 q 591 -145 591 -118 q 571 -193 591 -173 q 524 -212 552 -212 "},"ṩ":{"x_min":70.53125,"x_max":497.140625,"ha":553,"o":"m 70 25 l 70 144 q 250 77 151 77 q 383 174 383 77 q 354 242 383 215 q 240 305 324 268 q 106 395 140 349 q 71 510 71 442 q 140 653 71 596 q 316 710 208 710 q 465 679 399 710 l 465 567 q 307 617 396 617 q 219 590 252 617 q 185 519 185 562 q 209 451 185 477 q 318 390 233 425 q 458 299 420 347 q 497 185 497 252 q 428 40 497 96 q 242 -16 360 -16 q 70 25 143 -16 m 299 -212 q 251 -193 271 -212 q 232 -145 232 -173 q 252 -99 232 -118 q 299 -80 272 -80 q 346 -99 327 -80 q 366 -145 366 -118 q 346 -193 366 -173 q 299 -212 327 -212 m 293 826 q 246 845 266 826 q 226 893 226 864 q 245 939 226 920 q 293 958 265 958 q 340 939 321 958 q 359 893 359 921 q 340 845 359 865 q 293 826 321 826 "},"ӗ":{"x_min":65.109375,"x_max":670.765625,"ha":726,"o":"m 670 319 l 180 319 q 242 140 183 203 q 406 77 302 77 q 622 154 524 77 l 622 50 q 380 -16 531 -16 q 149 78 233 -16 q 65 344 65 172 q 157 608 65 506 q 385 710 248 710 q 596 622 521 710 q 670 377 670 534 l 670 319 m 556 413 q 510 563 556 510 q 383 617 464 617 q 249 560 304 617 q 181 413 194 504 l 556 413 m 552 996 q 492 873 545 920 q 363 826 439 826 q 233 872 283 826 q 180 996 183 919 l 247 996 q 364 891 256 891 q 443 920 410 891 q 483 996 476 948 l 552 996 "},"ϗ":{"x_min":0,"x_max":792.171875,"ha":792,"o":"m 792 -46 q 740 -191 792 -137 q 604 -245 689 -245 q 526 -229 561 -245 l 526 -130 q 601 -151 561 -151 q 663 -121 640 -151 q 687 -43 687 -92 l 687 -14 q 561 70 607 -4 q 516 263 516 144 q 530 406 516 335 q 362 254 526 402 q 204 96 262 162 q 164 0 190 60 l 47 0 q 166 416 166 250 q 137 563 166 509 q 54 617 108 617 q 0 602 25 617 l 0 695 q 75 710 33 710 q 222 635 169 710 q 275 430 275 560 q 261 287 275 359 q 587 598 530 529 q 628 694 600 634 l 744 694 q 625 278 625 443 q 654 130 625 183 q 737 77 684 77 q 792 87 766 77 l 792 -46 "},"Ὲ":{"x_min":-56.625,"x_max":731.953125,"ha":792,"o":"m 731 0 l 216 0 l 216 972 l 710 972 l 710 869 l 330 869 l 330 545 l 681 545 l 681 443 l 330 443 l 330 103 l 731 103 l 731 0 m 126 726 l 62 726 l -56 971 l 57 971 l 126 726 "},"Ɵ":{"x_min":63.75,"x_max":983.421875,"ha":1047,"o":"m 519 -16 q 188 120 312 -16 q 63 474 63 256 q 190 849 63 709 q 535 988 317 988 q 860 853 737 988 q 983 498 983 717 q 857 122 983 260 q 519 -16 731 -16 m 862 537 q 761 794 849 704 q 527 885 674 885 q 293 790 386 885 q 185 537 200 695 l 862 537 m 862 432 l 185 432 q 290 179 200 273 q 519 86 381 86 q 759 176 668 86 q 862 432 849 267 "},"Ѥ":{"x_min":127.5,"x_max":1188.921875,"ha":1262,"o":"m 1188 40 q 922 -16 1081 -16 q 602 106 725 -16 q 469 433 479 228 l 241 433 l 241 0 l 127 0 l 127 972 l 241 972 l 241 535 l 470 535 q 619 866 490 744 q 941 988 749 988 q 1188 948 1086 988 l 1188 827 q 940 885 1078 885 q 700 792 794 885 q 590 535 606 699 l 1019 535 l 1019 433 l 588 433 q 692 178 599 271 q 930 84 784 84 q 1188 149 1082 84 l 1188 40 "},"ș":{"x_min":70.53125,"x_max":497.140625,"ha":553,"o":"m 70 25 l 70 144 q 250 77 151 77 q 383 174 383 77 q 354 242 383 215 q 240 305 324 268 q 106 395 140 349 q 71 510 71 442 q 140 653 71 596 q 316 710 208 710 q 465 679 399 710 l 465 567 q 307 617 396 617 q 219 590 252 617 q 185 519 185 562 q 209 451 185 477 q 318 390 233 425 q 458 299 420 347 q 497 185 497 252 q 428 40 497 96 q 242 -16 360 -16 q 70 25 143 -16 m 350 -80 l 237 -257 l 154 -257 l 233 -80 l 350 -80 "},"ἱ":{"x_min":74.90625,"x_max":352.671875,"ha":370,"o":"m 352 6 q 270 -8 310 -8 q 112 179 112 -8 l 112 694 l 223 694 l 223 183 q 291 89 223 89 q 352 101 320 89 l 352 6 m 235 820 l 207 777 q 113 861 151 805 q 74 978 74 918 q 98 1041 74 1016 q 157 1065 121 1065 q 207 1045 187 1065 q 226 996 226 1026 q 153 929 226 933 q 235 820 164 858 "},"Ѵ":{"x_min":12.203125,"x_max":992.921875,"ha":1000,"o":"m 992 824 l 888 824 q 832 891 880 891 q 759 807 788 891 l 493 0 l 364 0 l 12 972 l 139 972 l 408 201 q 427 115 421 164 l 430 115 q 453 202 435 149 l 666 858 q 836 988 709 988 q 992 824 978 988 "},"Ȫ":{"x_min":63.75,"x_max":983.421875,"ha":1047,"o":"m 519 -16 q 188 120 312 -16 q 63 474 63 256 q 190 849 63 709 q 535 988 317 988 q 860 853 737 988 q 983 498 983 717 q 857 122 983 260 q 519 -16 731 -16 m 527 885 q 278 775 374 885 q 183 484 183 664 q 276 195 183 305 q 519 86 369 86 q 771 190 679 86 q 864 482 864 295 q 774 780 864 675 q 527 885 685 885 m 698 1252 l 353 1252 l 353 1326 l 698 1326 l 698 1252 m 656 1071 q 609 1090 629 1071 q 589 1138 589 1109 q 609 1185 589 1166 q 654 1204 628 1204 q 703 1185 683 1204 q 723 1138 723 1166 q 703 1090 723 1110 q 656 1071 684 1071 m 395 1071 q 347 1090 367 1071 q 327 1138 327 1109 q 346 1185 327 1166 q 394 1204 365 1204 q 442 1185 422 1204 q 462 1138 462 1166 q 442 1090 462 1110 q 395 1071 423 1071 "},"ǎ":{"x_min":56.046875,"x_max":604.71875,"ha":701,"o":"m 604 0 l 493 0 l 493 108 l 490 108 q 277 -16 418 -16 q 114 38 173 -16 q 56 184 56 93 q 285 411 56 379 l 493 440 q 350 617 493 617 q 123 531 224 617 l 123 645 q 359 710 226 710 q 604 451 604 710 l 604 0 m 493 351 l 325 328 q 209 289 248 317 q 169 192 169 262 q 206 109 169 141 q 302 77 242 77 q 439 135 385 77 q 493 282 493 193 l 493 351 m 536 1049 l 391 826 l 301 826 l 155 1049 l 233 1049 l 344 894 l 455 1049 l 536 1049 "},"ɘ":{"x_min":55.609375,"x_max":661.265625,"ha":726,"o":"m 104 44 l 104 154 q 330 77 208 77 q 490 141 433 77 q 548 319 546 205 l 55 319 l 55 377 q 135 620 55 529 q 354 710 215 710 q 577 614 493 710 q 661 347 661 517 q 572 81 661 179 q 337 -16 484 -16 q 104 44 206 -16 m 544 413 q 347 617 517 617 q 217 562 264 617 q 169 413 170 507 l 544 413 "},"ạ":{"x_min":61.046875,"x_max":609.71875,"ha":707,"o":"m 609 0 l 498 0 l 498 108 l 495 108 q 282 -16 423 -16 q 119 38 178 -16 q 61 184 61 93 q 290 411 61 379 l 498 440 q 355 617 498 617 q 128 531 229 617 l 128 645 q 364 710 231 710 q 609 451 609 710 l 609 0 m 498 351 l 330 328 q 214 289 253 317 q 174 192 174 262 q 211 109 174 141 q 307 77 247 77 q 444 135 390 77 q 498 282 498 193 l 498 351 m 363 -212 q 315 -193 335 -212 q 296 -145 296 -173 q 316 -99 296 -118 q 363 -80 336 -80 q 410 -99 391 -80 q 430 -145 430 -118 q 410 -193 430 -173 q 363 -212 391 -212 "},"Ǖ":{"x_min":115.296875,"x_max":838.96875,"ha":954,"o":"m 838 393 q 469 -16 838 -16 q 115 377 115 -16 l 115 972 l 229 972 l 229 385 q 481 86 229 86 q 725 375 725 86 l 725 972 l 838 972 l 838 393 m 650 1246 l 305 1246 l 305 1320 l 650 1320 l 650 1246 m 608 1065 q 561 1084 581 1065 q 541 1132 541 1103 q 561 1179 541 1160 q 606 1198 580 1198 q 655 1179 635 1198 q 675 1132 675 1160 q 655 1084 675 1104 q 608 1065 636 1065 m 347 1065 q 299 1084 319 1065 q 279 1132 279 1103 q 298 1179 279 1160 q 346 1198 317 1198 q 394 1179 374 1198 q 414 1132 414 1160 q 394 1084 414 1104 q 347 1065 375 1065 "},"д":{"x_min":12.203125,"x_max":718.234375,"ha":760,"o":"m 718 -183 l 623 -183 l 623 0 l 107 0 l 107 -183 l 12 -183 l 12 94 l 73 94 q 254 694 251 351 l 615 694 l 615 94 l 718 94 l 718 -183 m 504 94 l 504 599 l 349 599 q 191 94 330 318 l 504 94 "},"ӥ":{"x_min":112.578125,"x_max":694.5,"ha":807,"o":"m 694 0 l 594 0 l 594 554 q 548 472 579 524 l 227 0 l 112 0 l 112 694 l 214 694 l 214 147 q 249 214 222 166 l 579 694 l 694 694 l 694 0 m 553 826 q 506 845 526 826 q 487 893 487 864 q 506 940 487 921 q 552 959 525 959 q 600 940 580 959 q 620 893 620 921 q 601 845 620 865 q 553 826 582 826 m 293 826 q 244 846 264 826 q 224 893 224 866 q 244 940 224 921 q 291 959 263 959 q 339 940 319 959 q 359 893 359 921 q 340 845 359 865 q 293 826 320 826 "},"ʛ":{"x_min":65.109375,"x_max":751.46875,"ha":735,"o":"m 751 750 q 690 767 718 767 q 626 687 626 767 q 641 572 626 642 l 637 568 q 434 617 531 617 q 249 540 320 617 q 179 343 179 464 q 245 147 179 218 q 425 77 312 77 q 551 103 500 77 l 551 279 l 400 279 l 400 373 l 659 373 l 659 42 q 416 -16 541 -16 q 160 78 256 -16 q 65 336 65 173 q 169 604 65 498 q 440 710 274 710 q 544 695 495 710 q 541 720 541 718 q 579 810 541 772 q 675 847 617 847 q 751 830 716 847 l 751 750 "},"ʏ":{"x_min":6.78125,"x_max":572.421875,"ha":579,"o":"m 572 694 l 344 254 l 344 0 l 233 0 l 233 254 l 6 694 l 126 694 l 250 433 q 290 343 278 374 l 293 343 q 330 433 309 390 l 458 694 l 572 694 "},"¯":{"x_min":0,"x_max":576.484375,"ha":576,"o":"m 576 946 l 0 946 l 0 1028 l 576 1028 l 576 946 "},"ƕ":{"x_min":112.578125,"x_max":1133.3125,"ha":1214,"o":"m 223 0 l 112 0 l 112 1028 l 223 1028 l 223 584 l 226 584 q 430 710 293 710 q 658 427 658 710 l 658 312 q 826 80 658 80 q 969 146 915 80 q 1022 323 1022 212 q 925 694 1022 514 l 1045 694 q 1133 328 1133 514 q 1047 78 1133 172 q 823 -16 961 -16 q 547 305 547 -16 l 547 398 q 511 565 547 514 q 392 617 476 617 q 271 555 318 617 q 223 396 223 494 l 223 0 "},"ṛ":{"x_min":112.578125,"x_max":474.75,"ha":483,"o":"m 474 581 q 390 604 445 604 q 271 537 319 604 q 223 354 223 470 l 223 0 l 112 0 l 112 694 l 223 694 l 223 551 l 226 551 q 299 665 250 624 q 408 706 347 706 q 474 697 451 706 l 474 581 m 292 -212 q 244 -193 264 -212 q 225 -145 225 -173 q 245 -99 225 -118 q 292 -80 265 -80 q 339 -99 320 -80 q 359 -145 359 -118 q 339 -193 359 -173 q 292 -212 320 -212 "},"Ḙ":{"x_min":127.5,"x_max":642.953125,"ha":703,"o":"m 642 0 l 127 0 l 127 972 l 621 972 l 621 869 l 241 869 l 241 545 l 592 545 l 592 443 l 241 443 l 241 103 l 642 103 l 642 0 m 591 -306 l 509 -306 l 397 -150 l 286 -306 l 209 -306 l 355 -81 l 445 -81 l 591 -306 "},"З":{"x_min":65.109375,"x_max":674.15625,"ha":750,"o":"m 65 40 l 65 164 q 323 80 179 80 q 490 131 428 80 q 552 268 552 182 q 299 455 552 455 l 198 455 l 198 550 l 291 550 q 458 596 399 550 q 518 729 518 643 q 468 846 518 802 q 333 890 419 890 q 96 813 211 890 l 96 929 q 343 988 203 988 q 560 923 481 988 q 640 750 640 857 q 455 511 640 560 l 455 508 q 615 433 556 497 q 674 275 674 369 q 579 62 674 141 q 319 -16 484 -16 q 65 40 154 -16 "},"ϛ":{"x_min":65.109375,"x_max":632.109375,"ha":632,"o":"m 531 649 q 335 580 411 613 q 218 480 258 548 q 179 312 179 413 q 377 101 179 141 q 565 32 510 74 q 621 -90 621 -10 q 567 -214 621 -154 l 444 -214 q 511 -103 511 -160 q 472 -38 511 -60 q 337 0 433 -16 q 65 298 65 48 q 294 675 65 579 q 479 738 438 719 q 520 792 520 757 q 514 828 520 811 l 617 828 q 625 779 625 804 q 531 649 625 689 m 632 710 l 632 710 "},"⅝":{"x_min":97.453125,"x_max":1240.15625,"ha":1290,"o":"m 97 411 l 97 510 q 233 462 174 462 q 325 493 290 462 q 359 571 359 523 q 220 674 359 674 l 115 668 l 115 975 l 425 975 l 425 891 l 202 891 l 202 755 q 389 713 326 764 q 452 575 452 661 q 393 435 452 489 q 231 381 334 381 q 97 411 147 381 m 994 972 l 413 0 l 315 0 l 897 972 l 994 972 m 1129 303 q 1240 151 1240 255 q 1184 30 1240 74 q 1027 -13 1128 -13 q 886 30 943 -13 q 829 145 829 74 q 939 303 829 249 q 850 439 850 354 q 902 548 850 507 q 1043 590 954 590 q 1172 550 1122 590 q 1221 447 1221 511 q 1129 303 1221 356 m 1035 345 q 1127 439 1127 383 q 1037 509 1127 509 q 970 490 996 509 q 944 440 944 470 q 1035 345 944 383 m 1031 263 q 923 149 923 227 q 955 91 923 114 q 1036 67 987 67 q 1116 90 1084 67 q 1147 146 1147 114 q 1031 263 1147 223 "},"ẻ":{"x_min":65.109375,"x_max":670.765625,"ha":726,"o":"m 670 319 l 180 319 q 242 140 183 203 q 406 77 302 77 q 622 154 524 77 l 622 50 q 380 -16 531 -16 q 149 78 233 -16 q 65 344 65 172 q 157 608 65 506 q 385 710 248 710 q 596 622 521 710 q 670 377 670 534 l 670 319 m 556 413 q 510 563 556 510 q 383 617 464 617 q 249 560 304 617 q 181 413 194 504 l 556 413 m 306 1065 q 361 1068 332 1068 q 459 1039 420 1068 q 497 963 497 1011 q 471 893 497 921 q 406 859 445 864 l 406 826 l 333 826 l 333 904 q 409 955 409 904 q 345 998 409 998 q 306 992 334 998 l 306 1065 "},"ữ":{"x_min":97.671875,"x_max":829.46875,"ha":817,"o":"m 674 0 l 562 0 l 562 109 l 560 109 q 345 -16 491 -16 q 97 279 97 -16 l 97 694 l 208 694 l 208 297 q 376 77 208 77 q 510 137 457 77 q 562 294 562 197 l 562 694 l 645 694 q 712 718 685 694 q 739 776 739 742 q 725 865 739 826 l 816 865 q 829 773 829 827 q 674 614 829 638 l 674 0 m 608 988 q 575 872 608 917 q 487 827 543 827 q 377 862 439 827 q 297 891 325 891 q 237 815 237 891 l 173 815 q 206 931 173 887 q 297 975 238 975 q 398 940 341 975 q 485 910 448 910 q 542 988 542 910 l 608 988 "},"ḃ":{"x_min":112.578125,"x_max":751.46875,"ha":817,"o":"m 226 100 l 223 100 l 223 0 l 112 0 l 112 1028 l 223 1028 l 223 572 l 226 572 q 466 710 308 710 q 675 617 600 710 q 751 367 751 524 q 666 88 751 193 q 434 -16 581 -16 q 226 100 297 -16 m 223 380 l 223 283 q 279 137 223 197 q 421 77 335 77 q 580 154 522 77 q 637 369 637 231 q 583 551 637 485 q 438 617 530 617 q 282 549 341 617 q 223 380 223 482 m 408 826 q 361 845 381 826 q 341 893 341 864 q 360 939 341 920 q 408 958 380 958 q 455 939 436 958 q 474 893 474 921 q 455 845 474 865 q 408 826 436 826 "},"ʐ":{"x_min":22.375,"x_max":693.140625,"ha":628,"o":"m 693 -161 q 613 -177 657 -177 q 517 -140 554 -177 q 481 -47 481 -102 q 487 0 481 -24 l 22 0 l 22 34 l 433 599 l 61 599 l 61 694 l 596 694 l 596 662 l 185 94 l 592 94 q 569 -27 569 13 q 630 -99 569 -99 q 693 -80 660 -99 l 693 -161 "},"é":{"x_min":65.109375,"x_max":670.765625,"ha":726,"o":"m 670 319 l 180 319 q 242 140 183 203 q 406 77 302 77 q 622 154 524 77 l 622 50 q 380 -16 531 -16 q 149 78 233 -16 q 65 344 65 172 q 157 608 65 506 q 385 710 248 710 q 596 622 521 710 q 670 377 670 534 l 670 319 m 556 413 q 510 563 556 510 q 383 617 464 617 q 249 560 304 617 q 181 413 194 504 l 556 413 m 539 1048 l 361 826 l 275 826 l 426 1048 l 539 1048 "},"Ş":{"x_min":82.0625,"x_max":623.96875,"ha":690,"o":"m 82 39 l 82 173 q 316 86 180 86 q 504 231 504 86 q 465 334 504 288 q 299 451 426 379 q 132 580 182 518 q 83 729 83 643 q 168 915 83 843 q 392 988 254 988 q 583 954 520 988 l 583 826 q 386 885 508 885 q 252 845 301 885 q 202 739 202 804 q 231 642 202 685 q 392 527 259 600 q 571 392 519 457 q 623 245 623 326 q 554 67 623 137 q 355 -14 484 -2 l 355 -70 q 449 -98 414 -70 q 484 -173 484 -126 q 298 -293 484 -293 q 254 -291 272 -293 l 254 -230 q 301 -234 279 -234 q 397 -173 397 -234 q 309 -120 397 -120 q 282 -123 301 -120 l 282 -16 q 82 39 151 -8 "},"ὂ":{"x_min":65.109375,"x_max":748.765625,"ha":814,"o":"m 402 -16 q 157 81 248 -16 q 65 339 65 178 q 160 612 65 514 q 419 710 256 710 q 661 615 574 710 q 748 349 748 519 q 654 83 748 183 q 402 -16 560 -16 m 411 617 q 241 544 303 617 q 179 343 179 471 q 242 148 179 219 q 411 77 305 77 q 576 147 518 77 q 634 345 634 217 q 576 546 634 476 q 411 617 518 617 m 228 793 l 207 834 q 286 915 270 862 q 231 933 253 915 q 209 982 209 952 q 227 1027 209 1009 q 275 1045 245 1045 q 356 963 356 1045 q 228 793 356 849 m 574 796 l 510 796 l 392 1041 l 504 1041 l 574 796 "},"Ủ":{"x_min":115.296875,"x_max":838.96875,"ha":954,"o":"m 838 393 q 469 -16 838 -16 q 115 377 115 -16 l 115 972 l 229 972 l 229 385 q 481 86 229 86 q 725 375 725 86 l 725 972 l 838 972 l 838 393 m 391 1301 q 446 1304 417 1304 q 544 1275 505 1304 q 582 1199 582 1247 q 556 1129 582 1157 q 491 1095 530 1100 l 491 1062 l 418 1062 l 418 1140 q 494 1191 494 1140 q 430 1234 494 1234 q 391 1228 419 1234 l 391 1301 "},"H":{"x_min":127.5,"x_max":858.625,"ha":986,"o":"m 858 0 l 744 0 l 744 443 l 241 443 l 241 0 l 127 0 l 127 972 l 241 972 l 241 545 l 744 545 l 744 972 l 858 972 l 858 0 "},"î":{"x_min":-22.609375,"x_max":359.921875,"ha":336,"o":"m 223 0 l 112 0 l 112 694 l 223 694 l 223 0 m 359 826 l 277 826 l 165 982 l 54 826 l -22 826 l 123 1051 l 213 1051 l 359 826 "},"ύ":{"x_min":106.734375,"x_max":725.265625,"ha":807,"o":"m 106 694 l 216 694 l 216 312 q 268 140 216 200 q 415 81 320 81 q 561 141 508 81 q 613 310 613 201 q 513 694 613 513 l 637 694 q 725 315 725 524 q 640 72 725 162 q 415 -16 555 -16 q 188 65 269 -16 q 106 293 106 146 l 106 694 m 505 1041 l 386 796 l 322 796 l 392 1041 l 505 1041 "},"ϰ":{"x_min":0,"x_max":792.171875,"ha":792,"o":"m 792 -1 q 714 -16 757 -16 q 569 59 622 -16 q 516 263 516 134 q 530 406 516 335 q 362 254 526 402 q 204 96 262 162 q 164 0 190 60 l 47 0 q 166 416 166 250 q 137 563 166 509 q 54 617 108 617 q 0 602 25 617 l 0 695 q 75 710 33 710 q 222 635 169 710 q 275 430 275 560 q 261 287 275 359 q 587 598 530 529 q 628 694 600 634 l 744 694 q 625 278 625 443 q 654 130 625 183 q 737 77 684 77 q 792 91 766 77 l 792 -1 "},"ʪ":{"x_min":103.09375,"x_max":748.765625,"ha":806,"o":"m 103 1039 l 214 1039 l 214 276 q 268 123 214 170 q 430 77 322 77 q 634 185 634 77 q 604 249 634 224 q 493 307 575 275 q 362 393 398 346 q 326 511 326 439 q 394 654 326 598 q 569 710 462 710 q 719 679 653 710 l 719 567 q 561 617 651 617 q 473 590 505 617 q 440 520 440 563 q 464 453 440 478 q 571 393 488 427 q 711 302 673 349 q 748 188 748 255 q 667 40 748 97 q 423 -16 585 -16 q 178 52 252 -16 q 103 268 103 122 l 103 1039 "},"ǰ":{"x_min":-134.28125,"x_max":358.34375,"ha":336,"o":"m 223 29 q 154 -234 223 -141 q -42 -326 86 -326 q -134 -305 -89 -326 l -134 -201 q -39 -231 -84 -231 q 112 10 112 -231 l 112 694 l 223 694 l 223 29 m 358 1049 l 213 826 l 123 826 l -22 1049 l 55 1049 l 166 894 l 277 1049 l 358 1049 "},"Ἕ":{"x_min":-44.390625,"x_max":928.953125,"ha":989,"o":"m 928 0 l 413 0 l 413 972 l 907 972 l 907 869 l 527 869 l 527 545 l 878 545 l 878 443 l 527 443 l 527 103 l 928 103 l 928 0 m 103 763 l 83 722 q -44 892 -44 778 q 35 974 -44 974 q 83 956 65 974 q 102 911 102 938 q 80 862 102 881 q 24 844 58 844 q 103 763 40 791 m 348 970 l 228 725 l 164 725 l 234 970 l 348 970 "},"ḧ":{"x_min":112.578125,"x_max":689.078125,"ha":786,"o":"m 689 0 l 577 0 l 577 400 q 416 617 577 617 q 279 554 335 617 q 223 393 223 491 l 223 0 l 112 0 l 112 1028 l 223 1028 l 223 579 l 226 579 q 454 710 306 710 q 689 427 689 710 l 689 0 m 567 1063 q 520 1082 540 1063 q 501 1130 501 1101 q 520 1177 501 1158 q 566 1196 539 1196 q 614 1177 594 1196 q 634 1130 634 1158 q 615 1082 634 1102 q 567 1063 596 1063 m 307 1063 q 258 1083 278 1063 q 238 1130 238 1103 q 258 1177 238 1158 q 305 1196 277 1196 q 353 1177 333 1196 q 373 1130 373 1158 q 354 1082 373 1102 q 307 1063 334 1063 "},"ɓ":{"x_min":112.578125,"x_max":752.828125,"ha":818,"o":"m 227 100 l 225 100 l 225 0 l 112 0 l 112 670 q 198 950 112 857 q 433 1043 284 1043 q 612 1005 526 1043 l 612 902 q 430 948 522 948 q 282 892 339 948 q 225 672 225 836 l 225 572 l 227 572 q 467 710 309 710 q 677 617 601 710 q 752 367 752 524 q 668 88 752 193 q 436 -16 583 -16 q 227 100 299 -16 m 225 380 l 225 283 q 281 137 225 197 q 423 77 337 77 q 582 154 524 77 q 640 369 640 232 q 586 551 640 484 q 440 617 532 617 q 284 549 343 617 q 225 380 225 482 "},"ǫ":{"x_min":65.109375,"x_max":748.765625,"ha":814,"o":"m 457 -13 q 369 -151 369 -100 q 415 -198 369 -198 q 453 -189 435 -198 l 453 -262 q 397 -271 432 -271 q 314 -244 345 -271 q 283 -169 283 -217 q 372 -14 283 -94 q 148 90 231 -5 q 65 339 65 187 q 160 612 65 514 q 419 710 256 710 q 661 615 574 710 q 748 349 748 519 q 670 101 748 199 q 457 -13 592 3 m 411 617 q 241 544 303 617 q 179 343 179 471 q 242 148 179 219 q 411 77 305 77 q 576 147 518 77 q 634 345 634 217 q 576 546 634 476 q 411 617 518 617 "},"Ṥ":{"x_min":82.0625,"x_max":623.96875,"ha":690,"o":"m 82 39 l 82 173 q 191 110 125 134 q 316 86 257 86 q 504 231 504 86 q 466 333 504 288 q 299 451 429 378 q 133 579 183 517 q 83 729 83 642 q 168 915 83 843 q 392 988 252 988 q 583 954 522 988 l 583 826 q 386 885 505 885 q 252 845 301 885 q 202 739 202 804 q 232 642 202 685 q 392 527 261 599 q 571 392 518 457 q 623 245 623 326 q 539 54 623 125 q 301 -16 455 -16 q 180 0 246 -16 q 82 39 113 16 m 300 1155 q 253 1174 272 1155 q 233 1222 233 1193 q 252 1268 233 1249 q 300 1287 272 1287 q 346 1268 327 1287 q 366 1222 366 1249 q 346 1175 366 1195 q 300 1155 327 1155 m 342 1062 l 465 1228 l 579 1228 l 428 1062 l 342 1062 "},"†":{"x_min":46.125,"x_max":473.40625,"ha":521,"o":"m 473 678 l 302 678 l 302 166 l 217 166 l 217 678 l 46 678 l 46 752 l 217 752 l 217 969 l 302 969 l 302 752 l 473 752 l 473 678 "},"°":{"x_min":73.25,"x_max":448.984375,"ha":524,"o":"m 261 608 q 128 663 183 608 q 73 797 73 718 q 127 929 73 875 q 259 983 181 983 q 393 929 338 983 q 448 797 448 874 q 394 663 448 718 q 261 608 339 608 m 261 904 q 185 872 217 904 q 154 797 154 841 q 185 719 154 752 q 259 687 215 687 q 335 720 303 687 q 367 797 367 752 q 336 873 367 842 q 261 904 305 904 "},"Ξ":{"x_min":39.34375,"x_max":669.40625,"ha":708,"o":"m 651 864 l 56 864 l 56 972 l 651 972 l 651 864 m 557 439 l 151 439 l 151 543 l 557 543 l 557 439 m 669 0 l 39 0 l 39 109 l 669 109 l 669 0 "},"ồ":{"x_min":32.765625,"x_max":749.765625,"ha":814,"o":"m 403 -16 q 158 81 249 -16 q 66 339 66 178 q 161 612 66 514 q 420 710 257 710 q 662 615 575 710 q 749 349 749 519 q 655 83 749 183 q 403 -16 561 -16 m 412 617 q 242 544 304 617 q 180 343 180 471 q 243 148 180 219 q 412 77 306 77 q 577 147 519 77 q 635 345 635 217 q 577 546 635 476 q 412 617 519 617 m 268 929 l 183 929 l 32 1096 l 146 1096 l 268 929 m 224 826 l 370 995 l 461 995 l 606 826 l 530 826 l 418 926 l 306 826 l 224 826 "},"Ԃ":{"x_min":67.828125,"x_max":1101.4375,"ha":1185,"o":"m 1101 272 q 1030 60 1101 137 q 830 -16 959 -16 q 700 17 758 -16 q 612 113 641 50 q 373 -16 534 -16 q 149 63 231 -16 q 67 280 67 143 q 149 486 67 412 q 373 560 231 560 l 558 560 l 558 972 l 672 972 l 672 271 q 715 137 672 189 q 832 86 758 86 q 987 280 987 86 l 987 560 l 1101 560 l 1101 272 m 558 250 l 558 457 l 398 457 q 187 274 187 457 q 389 86 187 86 q 507 130 456 86 q 558 250 558 174 "},"΄":{"x_min":139.71875,"x_max":322.15625,"ha":378,"o":"m 322 1042 l 203 796 l 139 796 l 208 1042 l 322 1042 "},"ŵ":{"x_min":16.28125,"x_max":987.5,"ha":1004,"o":"m 987 694 l 779 0 l 663 0 l 520 497 q 510 561 512 525 l 507 561 q 493 498 505 537 l 337 0 l 226 0 l 16 694 l 132 694 l 276 172 q 286 109 283 148 l 291 109 q 303 173 293 139 l 463 694 l 565 694 l 709 170 q 719 108 716 145 l 725 108 q 736 170 726 134 l 877 694 l 987 694 m 704 826 l 622 826 l 510 982 l 399 826 l 322 826 l 468 1051 l 558 1051 l 704 826 "},"ʖ":{"x_min":0,"x_max":484.921875,"ha":507,"o":"m 0 26 l 0 131 q 191 78 90 78 q 323 118 274 78 q 372 221 372 158 q 352 305 372 267 q 261 415 331 342 q 160 547 185 493 q 135 693 135 601 l 135 1028 l 246 1028 l 246 693 q 267 583 246 629 q 348 477 288 537 q 458 342 431 396 q 484 223 484 288 q 403 53 484 121 q 191 -14 322 -14 q 0 26 91 -14 "},"ǁ":{"x_min":116.65625,"x_max":416.421875,"ha":532,"o":"m 416 -326 l 316 -326 l 316 1062 l 416 1062 l 416 -326 m 217 -326 l 116 -326 l 116 1062 l 217 1062 l 217 -326 "},"Ḱ":{"x_min":127.5,"x_max":804.375,"ha":806,"o":"m 804 0 l 645 0 l 269 444 q 244 478 248 470 l 241 478 l 241 0 l 127 0 l 127 972 l 241 972 l 241 515 l 244 515 q 269 548 253 530 l 633 972 l 775 972 l 358 505 l 804 0 m 595 1283 l 417 1061 l 331 1061 l 482 1283 l 595 1283 "},"ᾚ":{"x_min":-46.1875,"x_max":1144.625,"ha":1274,"o":"m 1144 0 l 1030 0 l 1030 443 l 527 443 l 527 0 l 413 0 l 413 972 l 527 972 l 527 545 l 1030 545 l 1030 972 l 1144 972 l 1144 0 m -25 723 l -46 764 q 32 845 16 792 q -22 863 0 845 q -44 912 -44 882 q -26 957 -44 939 q 21 975 -8 975 q 102 893 102 975 q -25 723 102 779 m 320 726 l 256 726 l 138 971 l 250 971 l 320 726 m 951 -249 q 852 -303 910 -303 q 768 -275 801 -303 q 736 -200 736 -247 l 736 -80 l 820 -80 l 820 -206 q 866 -252 820 -252 q 921 -223 894 -252 l 951 -249 "},"№":{"x_min":127.5,"x_max":1493.453125,"ha":1559,"o":"m 1234 409 q 1049 484 1115 409 q 983 693 983 560 q 1052 910 983 834 q 1247 986 1121 986 q 1430 912 1366 986 q 1493 702 1493 838 q 1424 488 1493 568 q 1234 409 1355 409 m 1241 894 q 1127 842 1168 894 q 1086 695 1086 790 q 1239 501 1086 501 q 1389 697 1389 501 q 1241 894 1389 894 m 869 0 l 727 0 l 271 770 q 240 830 249 807 l 236 830 q 241 698 241 798 l 241 0 l 127 0 l 127 972 l 276 972 l 758 149 l 760 149 q 755 291 755 183 l 755 972 l 869 972 l 869 0 m 1472 215 l 1003 215 l 1003 305 l 1472 305 l 1472 215 "},"ẏ":{"x_min":9.5,"x_max":665.34375,"ha":672,"o":"m 665 694 l 345 -111 q 105 -326 260 -326 q 33 -318 62 -326 l 33 -218 q 99 -230 69 -230 q 225 -130 183 -230 l 280 1 l 9 694 l 132 694 l 320 160 q 335 107 324 149 l 339 107 q 352 158 342 123 l 550 694 l 665 694 m 335 826 q 288 845 308 826 q 268 893 268 864 q 287 939 268 920 q 335 958 307 958 q 382 939 363 958 q 401 893 401 921 q 382 845 401 865 q 335 826 363 826 "},"ƫ":{"x_min":29.15625,"x_max":434.734375,"ha":472,"o":"m 434 -46 q 382 -191 434 -137 q 245 -245 330 -245 q 169 -229 204 -245 l 169 -130 q 245 -151 204 -151 q 330 -43 330 -151 l 330 -16 q 148 187 148 -16 l 148 599 l 29 599 l 29 694 l 148 694 l 148 864 q 259 900 200 880 l 259 694 l 434 694 l 434 599 l 259 599 l 259 206 q 283 107 259 137 q 362 77 306 77 q 434 100 402 77 l 434 -46 "},"ί":{"x_min":112.578125,"x_max":352.671875,"ha":370,"o":"m 352 6 q 270 -8 310 -8 q 112 179 112 -8 l 112 694 l 223 694 l 223 183 q 291 89 223 89 q 352 101 320 89 l 352 6 m 301 1042 l 182 796 l 118 796 l 187 1042 l 301 1042 "},"ḵ":{"x_min":112.578125,"x_max":689.078125,"ha":690,"o":"m 689 0 l 533 0 l 226 333 l 223 333 l 223 0 l 112 0 l 112 1028 l 223 1028 l 223 376 l 226 376 l 518 694 l 663 694 l 341 359 l 689 0 m 560 -154 l 216 -154 l 216 -81 l 560 -81 l 560 -154 "},"ť":{"x_min":29.15625,"x_max":663.984375,"ha":571,"o":"m 434 6 q 330 -14 395 -14 q 148 188 148 -14 l 148 599 l 29 599 l 29 694 l 148 694 l 148 864 l 259 900 l 259 694 l 434 694 l 434 599 l 259 599 l 259 208 q 283 108 259 138 q 362 78 307 78 q 434 101 404 78 l 434 6 m 663 945 l 551 769 l 467 769 l 547 945 l 663 945 "},"5":{"x_min":111.234375,"x_max":656.515625,"ha":749,"o":"m 111 23 l 111 141 q 314 77 210 77 q 480 135 417 77 q 543 290 543 193 q 478 439 543 385 q 294 493 414 493 q 141 484 253 493 l 141 972 l 612 972 l 612 872 l 246 872 l 246 587 q 329 590 291 590 q 571 511 485 590 q 656 297 656 433 q 564 69 656 155 q 312 -16 472 -16 q 111 23 177 -16 "},"ῃ":{"x_min":89.171875,"x_max":690.078125,"ha":799,"o":"m 690 -274 l 577 -274 l 577 387 q 417 609 577 609 q 278 549 333 609 q 224 398 224 489 l 224 0 l 113 0 l 113 470 q 89 694 113 629 l 203 694 q 222 577 222 644 l 224 577 q 455 710 300 710 q 690 427 690 710 l 690 -274 m 354 -249 q 255 -303 313 -303 q 171 -275 204 -303 q 139 -200 139 -247 l 139 -80 l 223 -80 l 223 -206 q 269 -252 223 -252 q 324 -223 297 -252 l 354 -249 "},"Ѕ":{"x_min":82.0625,"x_max":623.96875,"ha":690,"o":"m 82 39 l 82 173 q 191 110 125 134 q 316 86 257 86 q 504 231 504 86 q 466 333 504 288 q 299 451 429 378 q 133 579 183 517 q 83 729 83 642 q 168 915 83 843 q 392 988 252 988 q 583 954 522 988 l 583 826 q 386 885 505 885 q 252 845 301 885 q 202 739 202 804 q 232 642 202 685 q 392 527 261 599 q 571 392 518 457 q 623 245 623 326 q 539 54 623 125 q 301 -16 455 -16 q 180 0 246 -16 q 82 39 113 16 "},"Ẍ":{"x_min":17.640625,"x_max":798.953125,"ha":819,"o":"m 798 0 l 659 0 l 436 372 q 413 420 425 389 l 411 420 q 387 372 404 404 l 157 0 l 17 0 l 343 489 l 43 972 l 183 972 l 381 630 q 416 562 401 596 l 419 562 q 457 633 440 607 l 663 972 l 794 972 l 489 490 l 798 0 m 552 1063 q 505 1082 525 1063 q 486 1130 486 1101 q 505 1177 486 1158 q 551 1196 524 1196 q 599 1177 579 1196 q 619 1130 619 1158 q 600 1082 619 1102 q 552 1063 581 1063 m 292 1063 q 243 1083 263 1063 q 223 1130 223 1103 q 243 1177 223 1158 q 290 1196 262 1196 q 338 1177 318 1196 q 358 1130 358 1158 q 339 1082 358 1102 q 292 1063 319 1063 "},"□":{"x_min":99.015625,"x_max":739.265625,"ha":839,"o":"m 99 640 l 739 640 l 739 0 l 99 0 l 99 640 m 149 588 l 149 51 l 687 51 l 687 588 l 149 588 "},"ῳ":{"x_min":86.140625,"x_max":1047.171875,"ha":1133,"o":"m 568 114 l 565 114 q 358 -14 495 -14 q 157 72 229 -14 q 86 310 86 159 q 171 695 86 485 l 295 695 q 199 306 199 478 q 240 141 199 199 q 355 83 281 83 q 511 317 511 83 l 511 509 l 622 509 l 622 317 q 777 83 622 83 q 893 142 852 83 q 934 306 934 201 q 837 695 934 478 l 961 695 q 1047 310 1047 483 q 974 71 1047 156 q 773 -14 902 -14 q 568 114 636 -14 m 741 -249 q 642 -303 700 -303 q 558 -275 591 -303 q 526 -200 526 -247 l 526 -80 l 610 -80 l 610 -206 q 656 -252 610 -252 q 711 -223 684 -252 l 741 -249 "},",":{"x_min":26.453125,"x_max":214.3125,"ha":301,"o":"m 214 154 l 105 -179 l 26 -179 l 105 154 l 214 154 "},"\"":{"x_min":120.71875,"x_max":404.21875,"ha":524,"o":"m 404 972 l 397 669 l 318 669 l 312 972 l 404 972 m 212 972 l 205 669 l 127 669 l 120 972 l 212 972 "},"Ӳ":{"x_min":34.59375,"x_max":790.8125,"ha":782,"o":"m 790 972 l 487 293 q 338 41 400 98 q 191 -16 276 -16 q 70 4 121 -16 l 70 119 q 183 84 128 84 q 271 121 231 84 q 363 276 311 158 l 34 972 l 164 972 l 397 453 l 421 390 l 423 390 q 451 450 433 410 l 668 972 l 790 972 m 667 1277 l 501 1062 l 435 1062 l 577 1277 l 667 1277 m 500 1277 l 337 1062 l 272 1062 l 412 1277 l 500 1277 "},"ҙ":{"x_min":59.6875,"x_max":567,"ha":631,"o":"m 347 -12 q 381 -112 381 -68 q 351 -197 381 -166 q 269 -229 320 -229 q 183 -214 221 -229 l 183 -140 q 249 -157 217 -157 q 295 -112 295 -157 q 265 -16 295 -70 q 59 18 128 -13 l 59 128 q 272 77 150 77 q 455 193 455 77 q 254 309 455 309 l 185 309 l 185 404 l 250 404 q 427 514 427 404 q 387 588 427 560 q 276 617 347 617 q 73 565 174 617 l 73 669 q 284 710 188 710 q 538 524 538 710 q 396 362 538 396 l 396 359 q 519 307 472 353 q 567 189 567 261 q 508 54 567 109 q 347 -12 450 0 "},"ė":{"x_min":65.109375,"x_max":670.765625,"ha":726,"o":"m 670 319 l 180 319 q 242 140 183 203 q 406 77 302 77 q 622 154 524 77 l 622 50 q 380 -16 531 -16 q 149 78 233 -16 q 65 344 65 172 q 157 608 65 506 q 385 710 248 710 q 596 622 521 710 q 670 377 670 534 l 670 319 m 556 413 q 510 563 556 510 q 383 617 464 617 q 249 560 304 617 q 181 413 194 504 l 556 413 m 390 826 q 343 845 363 826 q 323 893 323 864 q 342 939 323 920 q 390 958 362 958 q 437 939 418 958 q 456 893 456 921 q 437 845 456 865 q 390 826 418 826 "},"ề":{"x_min":7.765625,"x_max":671.765625,"ha":726,"o":"m 671 319 l 181 319 q 243 140 184 203 q 407 77 303 77 q 623 154 525 77 l 623 50 q 381 -16 532 -16 q 150 78 234 -16 q 66 344 66 172 q 158 608 66 506 q 386 710 249 710 q 597 622 522 710 q 671 377 671 534 l 671 319 m 557 413 q 511 563 557 510 q 384 617 465 617 q 250 560 305 617 q 182 413 195 504 l 557 413 m 243 929 l 158 929 l 7 1096 l 121 1096 l 243 929 m 199 826 l 345 995 l 436 995 l 581 826 l 505 826 l 393 926 l 281 826 l 199 826 "},"ῴ":{"x_min":86.140625,"x_max":1047.171875,"ha":1133,"o":"m 568 114 l 565 114 q 358 -14 495 -14 q 157 72 229 -14 q 86 310 86 159 q 171 695 86 485 l 295 695 q 199 306 199 478 q 240 141 199 199 q 355 83 281 83 q 511 317 511 83 l 511 509 l 622 509 l 622 317 q 777 83 622 83 q 893 142 852 83 q 934 306 934 201 q 837 695 934 478 l 961 695 q 1047 310 1047 483 q 974 71 1047 156 q 773 -14 902 -14 q 568 114 636 -14 m 693 1041 l 574 796 l 510 796 l 580 1041 l 693 1041 m 741 -249 q 642 -303 700 -303 q 558 -275 591 -303 q 526 -200 526 -247 l 526 -80 l 610 -80 l 610 -206 q 656 -252 610 -252 q 711 -223 684 -252 l 741 -249 "},"Í":{"x_min":81.5625,"x_max":345.390625,"ha":370,"o":"m 241 0 l 127 0 l 127 972 l 241 972 l 241 0 m 345 1284 l 167 1062 l 81 1062 l 232 1284 l 345 1284 "},"Ú":{"x_min":115.296875,"x_max":838.96875,"ha":954,"o":"m 838 393 q 469 -16 838 -16 q 115 377 115 -16 l 115 972 l 229 972 l 229 385 q 481 86 229 86 q 725 375 725 86 l 725 972 l 838 972 l 838 393 m 651 1283 l 473 1061 l 387 1061 l 538 1283 l 651 1283 "},"ἠ":{"x_min":88.171875,"x_max":689.078125,"ha":799,"o":"m 689 -274 l 576 -274 l 576 387 q 416 609 576 609 q 277 549 332 609 q 223 398 223 489 l 223 0 l 112 0 l 112 470 q 88 694 112 629 l 202 694 q 221 577 221 644 l 223 577 q 454 710 299 710 q 689 427 689 710 l 689 -274 m 375 777 l 349 820 q 430 929 419 858 q 377 949 398 930 q 356 996 356 968 q 375 1045 356 1026 q 425 1065 395 1065 q 484 1040 461 1065 q 508 978 508 1015 q 469 862 508 918 q 375 777 430 805 "},"Ẇ":{"x_min":17.640625,"x_max":1280.484375,"ha":1297,"o":"m 1280 972 l 1005 0 l 872 0 l 672 710 q 656 809 659 756 l 653 809 q 636 712 649 759 l 434 0 l 302 0 l 17 972 l 143 972 l 349 226 q 366 128 362 179 l 369 128 q 390 226 373 164 l 605 972 l 714 972 l 921 221 q 937 130 931 182 l 940 130 q 958 223 942 165 l 1157 972 l 1280 972 m 659 1063 q 612 1082 632 1063 q 592 1130 592 1101 q 611 1176 592 1157 q 659 1195 631 1195 q 706 1176 687 1195 q 725 1130 725 1158 q 706 1082 725 1102 q 659 1063 687 1063 "},"Ý":{"x_min":12.203125,"x_max":759.609375,"ha":768,"o":"m 759 972 l 438 359 l 438 0 l 324 0 l 324 356 l 12 972 l 141 972 l 359 533 q 383 473 363 524 l 385 473 q 411 533 392 496 l 638 972 l 759 972 m 563 1284 l 385 1062 l 299 1062 l 450 1284 l 563 1284 "},"ǧ":{"x_min":65.109375,"x_max":705.359375,"ha":818,"o":"m 705 55 q 339 -326 705 -326 q 113 -278 210 -326 l 113 -166 q 337 -231 231 -231 q 594 40 594 -231 l 594 116 l 591 116 q 352 -16 512 -16 q 144 76 223 -16 q 65 324 65 168 q 150 606 65 501 q 383 710 235 710 q 591 598 523 710 l 594 598 l 594 694 l 705 694 l 705 55 m 594 314 l 594 416 q 538 558 594 499 q 398 617 482 617 q 237 542 295 617 q 179 332 179 467 q 235 146 179 216 q 383 77 290 77 q 535 143 476 77 q 594 314 594 210 m 582 1049 l 437 826 l 347 826 l 201 1049 l 279 1049 l 390 894 l 501 1049 l 582 1049 "},"ᾶ":{"x_min":67.828125,"x_max":824.71875,"ha":859,"o":"m 824 694 l 687 352 q 792 0 698 309 l 677 0 l 625 211 l 622 211 q 504 35 568 86 q 348 -16 441 -16 q 145 77 223 -16 q 67 326 67 171 q 154 605 67 500 q 388 710 242 710 q 641 493 569 710 l 644 493 l 708 694 l 824 694 m 592 352 q 508 557 556 495 q 389 618 460 618 q 239 539 297 618 q 181 333 181 460 q 232 150 181 219 q 362 81 283 81 q 580 321 493 81 l 592 352 m 603 807 l 531 807 q 413 901 515 901 q 295 807 312 901 l 224 807 q 283 923 230 878 q 413 968 335 968 q 544 923 492 968 q 603 807 597 878 "},"ȍ":{"x_min":65.109375,"x_max":748.765625,"ha":814,"o":"m 402 -16 q 157 81 248 -16 q 65 339 65 178 q 160 612 65 514 q 419 710 256 710 q 661 615 574 710 q 748 349 748 519 q 654 83 748 183 q 402 -16 560 -16 m 411 617 q 241 544 303 617 q 179 343 179 471 q 242 148 179 219 q 411 77 305 77 q 576 147 518 77 q 634 345 634 217 q 576 546 634 476 q 411 617 518 617 m 526 826 l 460 826 l 298 1041 l 386 1041 l 526 826 m 362 826 l 297 826 l 130 1041 l 220 1041 l 362 826 "},"ã":{"x_min":61.046875,"x_max":609.71875,"ha":707,"o":"m 609 0 l 498 0 l 498 108 l 495 108 q 282 -16 423 -16 q 119 38 178 -16 q 61 184 61 93 q 290 411 61 379 l 498 440 q 355 617 498 617 q 128 531 229 617 l 128 645 q 364 710 231 710 q 609 451 609 710 l 609 0 m 498 351 l 330 328 q 214 289 253 317 q 174 192 174 262 q 211 109 174 141 q 307 77 247 77 q 444 135 390 77 q 498 282 498 193 l 498 351 m 572 988 q 539 872 572 917 q 451 827 507 827 q 341 862 403 827 q 261 891 289 891 q 201 815 201 891 l 137 815 q 170 931 137 887 q 261 975 202 975 q 362 940 305 975 q 449 910 412 910 q 506 988 506 910 l 572 988 "},"Ɗ":{"x_min":-56.96875,"x_max":965.796875,"ha":1030,"o":"m 183 0 l 183 869 l 166 869 q 81 837 111 869 q 51 754 51 806 q 65 682 51 716 l -42 682 q -56 765 -56 720 q 9 913 -56 854 q 184 972 75 972 l 451 972 q 965 498 965 972 q 823 136 965 273 q 440 0 680 0 l 183 0 m 297 869 l 297 103 l 442 103 q 739 205 633 103 q 845 495 845 307 q 448 869 845 869 l 297 869 "},"Ҵ":{"x_min":27.8125,"x_max":1169.25,"ha":1211,"o":"m 1169 -219 l 1070 -219 l 1070 0 l 307 0 l 307 869 l 27 869 l 27 972 l 702 972 l 702 869 l 421 869 l 421 103 l 925 103 l 925 972 l 1039 972 l 1039 103 l 1169 103 l 1169 -219 "},"ĩ":{"x_min":-49.265625,"x_max":385.484375,"ha":336,"o":"m 223 0 l 112 0 l 112 694 l 223 694 l 223 0 m 385 988 q 352 872 385 917 q 264 827 320 827 q 154 862 216 827 q 74 891 102 891 q 14 815 14 891 l -49 815 q -16 931 -49 887 q 74 975 15 975 q 175 940 118 975 q 262 910 225 910 q 319 988 319 910 l 385 988 "},"ɦ":{"x_min":112.578125,"x_max":689.078125,"ha":786,"o":"m 689 0 l 577 0 l 577 400 q 416 617 577 617 q 279 554 335 617 q 223 393 223 491 l 223 0 l 112 0 l 112 670 q 198 950 112 857 q 432 1043 283 1043 q 611 1005 525 1043 l 611 902 q 429 948 521 948 q 280 892 337 948 q 223 672 223 836 l 223 579 l 226 579 q 454 710 306 710 q 689 427 689 710 l 689 0 "},"ŀ":{"x_min":112.578125,"x_max":438.859375,"ha":437,"o":"m 223 0 l 112 0 l 112 1028 l 223 1028 l 223 0 m 372 452 q 325 471 345 452 q 305 519 305 490 q 324 565 305 546 q 372 584 344 584 q 419 565 400 584 q 438 519 438 547 q 419 471 438 491 q 372 452 400 452 "},"῾":{"x_min":326.90625,"x_max":487.640625,"ha":814,"o":"m 487 820 l 459 777 q 365 861 403 805 q 326 978 326 918 q 350 1041 326 1016 q 409 1065 373 1065 q 459 1045 439 1065 q 478 996 478 1026 q 405 929 478 933 q 487 820 416 858 "},"ᾊ":{"x_min":-45.1875,"x_max":1014.328125,"ha":1030,"o":"m 1014 0 l 888 0 l 785 272 l 372 272 l 275 0 l 148 0 l 521 972 l 639 972 l 1014 0 m 747 375 l 595 789 q 580 854 587 809 l 577 854 q 561 789 570 813 l 410 375 l 747 375 m -24 722 l -45 763 q 33 844 17 791 q -21 862 0 844 q -43 911 -43 881 q -25 956 -43 938 q 22 974 -7 974 q 103 892 103 974 q -24 722 103 778 m 321 725 l 257 725 l 139 970 l 251 970 l 321 725 m 767 -249 q 668 -303 726 -303 q 584 -275 617 -303 q 552 -200 552 -247 l 552 -80 l 636 -80 l 636 -206 q 682 -252 636 -252 q 737 -223 710 -252 l 767 -249 "},"ẅ":{"x_min":16.28125,"x_max":987.5,"ha":1004,"o":"m 987 694 l 779 0 l 663 0 l 520 497 q 510 561 512 525 l 507 561 q 493 498 505 537 l 337 0 l 226 0 l 16 694 l 132 694 l 276 172 q 286 109 283 148 l 291 109 q 303 173 293 139 l 463 694 l 565 694 l 709 170 q 719 108 716 145 l 725 108 q 736 170 726 134 l 877 694 l 987 694 m 633 826 q 586 845 606 826 q 567 893 567 864 q 586 940 567 921 q 632 959 605 959 q 680 940 660 959 q 700 893 700 921 q 681 845 700 865 q 633 826 662 826 m 373 826 q 324 846 344 826 q 304 893 304 866 q 324 940 304 921 q 371 959 343 959 q 419 940 399 959 q 439 893 439 921 q 420 845 439 865 q 373 826 400 826 "},"ậ":{"x_min":61.046875,"x_max":609.71875,"ha":707,"o":"m 609 0 l 498 0 l 498 108 l 495 108 q 282 -16 423 -16 q 119 38 178 -16 q 61 184 61 93 q 290 411 61 379 l 498 440 q 355 617 498 617 q 128 531 229 617 l 128 645 q 364 710 231 710 q 609 451 609 710 l 609 0 m 498 351 l 330 328 q 214 289 253 317 q 174 192 174 262 q 211 109 174 141 q 307 77 247 77 q 444 135 390 77 q 498 282 498 193 l 498 351 m 546 826 l 464 826 l 352 982 l 241 826 l 164 826 l 310 1051 l 400 1051 l 546 826 m 363 -212 q 315 -193 335 -212 q 296 -145 296 -173 q 316 -99 296 -118 q 363 -80 336 -80 q 410 -99 391 -80 q 430 -145 430 -118 q 410 -193 430 -173 q 363 -212 391 -212 "},"ǡ":{"x_min":56.046875,"x_max":604.71875,"ha":701,"o":"m 604 0 l 493 0 l 493 108 l 490 108 q 277 -16 418 -16 q 114 38 173 -16 q 56 184 56 93 q 285 411 56 379 l 493 440 q 350 617 493 617 q 123 531 224 617 l 123 645 q 359 710 226 710 q 604 451 604 710 l 604 0 m 493 351 l 325 328 q 209 289 248 317 q 169 192 169 262 q 206 109 169 141 q 302 77 242 77 q 439 135 385 77 q 493 282 493 193 l 493 351 m 523 1003 l 179 1003 l 179 1077 l 523 1077 l 523 1003 m 351 826 q 304 845 324 826 q 284 893 284 864 q 304 939 284 921 q 351 958 324 958 q 398 939 379 958 q 417 893 417 921 q 398 845 417 865 q 351 826 379 826 "},"ɯ":{"x_min":112.578125,"x_max":1098.71875,"ha":1196,"o":"m 1098 0 l 987 0 l 987 109 l 984 109 q 769 -16 910 -16 q 644 23 697 -16 q 572 127 592 63 q 341 -16 495 -16 q 112 266 112 -16 l 112 694 l 223 694 l 223 295 q 259 128 223 180 q 379 77 295 77 q 500 142 450 77 q 550 298 550 207 l 550 694 l 661 694 l 661 282 q 819 77 661 77 q 940 138 892 77 q 987 298 987 200 l 987 694 l 1098 694 l 1098 0 "},"К":{"x_min":127.5,"x_max":804.375,"ha":806,"o":"m 804 0 l 645 0 l 269 444 q 244 478 248 470 l 241 478 l 241 0 l 127 0 l 127 972 l 241 972 l 241 515 l 244 515 q 269 548 253 530 l 633 972 l 775 972 l 358 505 l 804 0 "},"ʣ":{"x_min":65.109375,"x_max":1241.828125,"ha":1272,"o":"m 1241 662 l 828 94 l 1235 94 l 1235 0 l 594 0 l 594 122 l 591 122 q 352 -16 514 -16 q 143 77 221 -16 q 65 329 65 172 q 152 607 65 503 q 385 710 240 710 q 591 596 524 710 l 594 596 l 594 1028 l 705 1028 l 705 694 l 1241 694 l 1241 662 m 594 319 l 594 411 q 538 557 594 497 q 396 617 482 617 q 236 541 293 617 q 179 333 179 465 q 234 147 179 217 q 383 77 290 77 q 535 146 476 77 q 594 319 594 215 m 1077 599 l 705 599 l 705 88 l 1077 599 "},"ΰ":{"x_min":106.734375,"x_max":725.265625,"ha":807,"o":"m 106 694 l 216 694 l 216 312 q 268 140 216 200 q 415 81 320 81 q 561 141 508 81 q 613 310 613 201 q 513 694 613 513 l 637 694 q 725 315 725 524 q 640 72 725 162 q 415 -16 555 -16 q 188 65 269 -16 q 106 293 106 146 l 106 694 m 497 1051 l 378 806 l 314 806 l 383 1051 l 497 1051 m 548 830 q 501 848 520 830 q 482 895 482 867 q 501 943 482 924 q 548 962 520 962 q 595 943 575 962 q 615 895 615 924 q 596 849 615 868 q 548 830 576 830 m 218 830 q 171 849 191 830 q 151 895 151 867 q 171 943 151 924 q 218 962 191 962 q 266 943 246 962 q 286 895 286 924 q 266 849 286 868 q 218 830 246 830 "},"Ԏ":{"x_min":27.8125,"x_max":854.5625,"ha":937,"o":"m 854 278 q 783 62 854 141 q 583 -16 711 -16 q 382 65 457 -16 q 307 272 307 147 l 307 869 l 27 869 l 27 972 l 702 972 l 702 869 l 421 869 l 421 283 q 464 141 421 196 q 584 86 507 86 q 740 282 740 86 l 740 560 l 854 560 l 854 278 "},"%":{"x_min":54.265625,"x_max":1085.15625,"ha":1137,"o":"m 274 484 q 113 551 173 484 q 54 727 54 617 q 117 917 54 848 q 287 987 180 987 q 448 923 391 987 q 505 741 505 858 q 441 555 505 625 q 274 484 377 484 m 283 912 q 181 865 219 912 q 144 733 144 817 q 181 605 144 651 q 280 560 217 560 q 380 607 344 560 q 416 739 416 655 q 380 867 416 821 q 283 912 345 912 m 925 972 l 301 -6 l 204 -6 l 827 972 l 925 972 m 853 -14 q 693 51 752 -14 q 633 227 633 118 q 697 418 633 348 q 866 489 760 489 q 1027 423 969 489 q 1085 241 1085 358 q 1021 55 1085 125 q 853 -14 956 -14 m 862 412 q 760 364 797 412 q 723 233 723 317 q 760 106 723 152 q 859 61 796 61 q 959 108 923 61 q 995 240 995 156 q 960 367 995 322 q 862 412 924 412 "},"⅞":{"x_min":110.21875,"x_max":1148.15625,"ha":1239,"o":"m 278 396 l 179 396 l 397 899 l 110 899 l 110 979 l 513 979 l 513 943 l 278 396 m 902 972 l 321 0 l 223 0 l 805 972 l 902 972 m 1037 303 q 1148 151 1148 255 q 1092 30 1148 74 q 935 -13 1036 -13 q 794 30 851 -13 q 737 145 737 74 q 847 303 737 249 q 758 439 758 354 q 810 548 758 507 q 951 590 862 590 q 1080 550 1030 590 q 1129 447 1129 511 q 1037 303 1129 356 m 943 345 q 1035 439 1035 383 q 945 509 1035 509 q 878 490 904 509 q 852 440 852 470 q 943 345 852 383 m 939 263 q 831 149 831 227 q 863 91 831 114 q 944 67 895 67 q 1024 90 992 67 q 1055 146 1055 114 q 939 263 1055 223 "},"ṍ":{"x_min":65.109375,"x_max":748.765625,"ha":814,"o":"m 402 -16 q 157 81 248 -16 q 65 339 65 178 q 160 612 65 514 q 419 710 256 710 q 661 615 574 710 q 748 349 748 519 q 654 83 748 183 q 402 -16 560 -16 m 411 617 q 241 544 303 617 q 179 343 179 471 q 242 148 179 219 q 411 77 305 77 q 576 147 518 77 q 634 345 634 217 q 576 546 634 476 q 411 617 518 617 m 314 992 l 436 1159 l 550 1159 l 400 992 l 314 992 m 623 975 q 591 867 623 906 q 502 827 560 827 q 398 852 457 827 q 312 877 339 877 q 252 815 252 877 l 188 815 q 312 961 188 961 q 410 935 354 961 q 499 910 465 910 q 556 975 556 910 l 623 975 "},"Æ":{"x_min":6.78125,"x_max":1130.59375,"ha":1195,"o":"m 1130 0 l 615 0 l 615 272 l 269 272 l 139 0 l 6 0 l 481 972 l 1108 972 l 1108 869 l 729 869 l 729 545 l 1081 545 l 1081 443 l 729 443 l 729 103 l 1130 103 l 1130 0 m 615 375 l 615 869 l 551 869 l 316 375 l 615 375 "},"₣":{"x_min":18.984375,"x_max":621.25,"ha":678,"o":"m 406 188 l 241 188 l 241 0 l 127 0 l 127 188 l 18 188 l 18 294 l 127 294 l 127 972 l 621 972 l 621 869 l 241 869 l 241 533 l 592 533 l 592 430 l 241 430 l 241 294 l 406 294 l 406 188 "},"Ṯ":{"x_min":27.8125,"x_max":702.640625,"ha":728,"o":"m 702 869 l 421 869 l 421 0 l 307 0 l 307 869 l 27 869 l 27 972 l 702 972 l 702 869 m 538 -154 l 194 -154 l 194 -81 l 538 -81 l 538 -154 "},"ǈ":{"x_min":127.5,"x_max":906.796875,"ha":1000,"o":"m 632 0 l 127 0 l 127 972 l 241 972 l 241 103 l 632 103 l 632 0 m 887 29 q 818 -234 887 -141 q 621 -326 750 -326 q 529 -305 574 -326 l 529 -201 q 624 -231 579 -231 q 776 10 776 -231 l 776 694 l 887 694 l 887 29 m 833 870 q 782 891 803 870 q 761 942 761 911 q 782 994 761 973 q 833 1015 803 1015 q 885 994 864 1015 q 906 942 906 973 q 885 891 906 912 q 833 870 864 870 "}}}
